<?xml version="1.0" standalone="no"?>
<!DOCTYPE svg PUBLIC "-//W3C//DTD SVG 20010904//EN"
 "http://www.w3.org/TR/2001/REC-SVG-20010904/DTD/svg10.dtd">
<svg version="1.0" xmlns="http://www.w3.org/2000/svg"
 width="425.000000pt" height="482.000000pt" viewBox="0 0 425.000000 482.000000"
 preserveAspectRatio="xMidYMid meet">
<metadata>
Created by potrace 1.16, written by Peter Selinger 2001-2019
</metadata>
<g transform="translate(0.000000,482.000000) scale(0.100000,-0.100000)"
fill="#000000" stroke="none">
<path d="M421 4579 c-5 -13 -19 -46 -30 -73 -12 -27 -19 -51 -16 -54 7 -8 9
-5 39 72 15 38 25 71 22 74 -3 2 -10 -6 -15 -19z"/>
<path d="M480 4525 c0 -38 3 -65 7 -62 7 8 5 119 -3 126 -2 2 -4 -26 -4 -64z"/>
<path d="M832 4535 c-2 -52 10 -76 38 -74 10 0 9 3 -5 8 -15 6 -21 20 -26 62
l-6 54 -1 -50z"/>
<path d="M597 4543 c-11 -11 -8 -58 5 -71 7 -7 19 -12 28 -11 9 0 5 4 -9 10
-19 8 -23 15 -19 44 4 38 4 38 -5 28z"/>
<path d="M646 4537 c3 -10 9 -15 12 -12 3 3 0 11 -7 18 -10 9 -11 8 -5 -6z"/>
<path d="M707 4543 c-11 -11 -8 -58 5 -71 7 -7 19 -12 27 -11 10 0 6 4 -8 10
-19 8 -23 15 -19 44 4 38 4 38 -5 28z"/>
<path d="M756 4537 c3 -10 9 -15 12 -12 3 3 0 11 -7 18 -10 9 -11 8 -5 -6z"/>
<path d="M540 4482 c0 -6 -8 -13 -17 -15 -16 -4 -16 -5 -1 -6 18 -1 34 16 24
26 -3 4 -6 1 -6 -5z"/>
<path d="M402 2298 l-2 -2118 145 0 c90 0 145 4 145 10 0 6 -53 10 -140 10
l-140 0 0 95 0 95 140 0 c87 0 140 4 140 10 0 6 -53 10 -140 10 l-140 0 0 100
0 100 140 0 c87 0 140 4 140 10 0 6 -53 10 -140 10 l-140 0 0 1825 0 1825 140
0 c87 0 140 4 140 10 0 6 -53 10 -140 10 l-139 0 -4 58 c-2 31 -4 -896 -5
-2060z"/>
<path d="M1140 4305 c0 -38 3 -65 7 -62 7 8 5 119 -3 126 -2 2 -4 -26 -4 -64z"/>
<path d="M870 4273 c-3 -34 -1 -58 3 -54 5 4 7 32 5 62 l-3 54 -5 -62z"/>
<path d="M942 4293 c-1 -23 -8 -44 -14 -46 -7 -3 3 -5 22 -5 19 0 27 2 18 5
-12 3 -18 17 -21 46 l-4 42 -1 -42z"/>
<path d="M1034 4290 c1 -36 5 -45 21 -48 18 -4 19 -3 3 10 -9 7 -19 29 -21 48
-3 26 -4 24 -3 -10z"/>
<path d="M1093 4285 c0 -27 2 -38 4 -22 2 15 2 37 0 50 -2 12 -4 0 -4 -28z"/>
<path d="M1200 4262 c0 -6 -8 -13 -17 -15 -16 -4 -16 -5 -1 -6 18 -1 34 16 24
26 -3 4 -6 1 -6 -5z"/>
<path d="M702 3163 l-2 -1043 145 0 c90 0 145 4 145 10 0 6 -53 10 -140 10
l-140 0 0 100 0 100 140 0 c87 0 140 4 140 10 0 6 -53 10 -140 10 l-140 0 0
420 0 420 140 0 c87 0 140 4 140 10 0 6 -53 10 -140 10 l-140 0 0 100 0 100
140 0 c87 0 140 4 140 10 0 6 -53 10 -140 10 l-140 0 0 100 0 100 140 0 c87 0
140 4 140 10 0 6 -53 10 -140 10 l-140 0 0 205 0 205 140 0 c87 0 140 4 140
10 0 6 -53 10 -140 10 l-139 0 -4 58 c-2 31 -4 -412 -5 -985z"/>
<path d="M1156 4151 c-4 -5 3 -7 14 -4 23 6 26 13 6 13 -8 0 -17 -4 -20 -9z"/>
<path d="M1472 4105 c-2 -52 10 -76 38 -74 10 0 9 3 -5 8 -15 6 -21 20 -26 62
l-6 54 -1 -50z"/>
<path d="M1237 4113 c-11 -11 -8 -58 5 -71 7 -7 19 -12 28 -11 9 0 5 4 -9 10
-19 8 -23 15 -19 44 4 38 4 38 -5 28z"/>
<path d="M1286 4107 c3 -10 9 -15 12 -12 3 3 0 11 -7 18 -10 9 -11 8 -5 -6z"/>
<path d="M1343 4075 c0 -27 2 -38 4 -22 2 15 2 37 0 50 -2 12 -4 0 -4 -28z"/>
<path d="M1400 4072 l5 -47 3 39 c2 21 0 42 -5 47 -4 4 -6 -13 -3 -39z"/>
<path d="M1606 4073 c6 -4 14 -15 17 -23 5 -11 6 -9 4 4 -1 11 -9 21 -17 23
-10 3 -11 2 -4 -4z"/>
<path d="M1588 4033 c7 -3 16 -2 19 1 4 3 -2 6 -13 5 -11 0 -14 -3 -6 -6z"/>
<path d="M1012 3918 l-2 -68 145 0 c90 0 145 4 145 10 0 6 -53 10 -140 10
l-139 0 -4 58 -3 57 -2 -67z"/>
<path d="M1670 3940 c0 -5 5 -10 10 -10 6 0 10 5 10 10 0 6 -4 10 -10 10 -5 0
-10 -4 -10 -10z"/>
<path d="M2040 3919 c0 -15 -5 -19 -19 -14 -38 12 -70 -57 -38 -83 7 -6 27
-10 45 -10 l32 1 0 64 c0 35 -4 63 -10 63 -5 0 -10 -9 -10 -21z m-5 -64 c0
-23 -4 -30 -20 -30 -21 0 -31 25 -21 51 11 28 41 12 41 -21z"/>
<path d="M2436 3918 c-13 -14 -15 -23 -8 -26 7 -2 12 -21 12 -43 0 -21 5 -39
10 -39 6 0 10 18 10 39 0 33 4 40 23 44 l22 4 -22 8 c-13 4 -23 11 -23 15 0 5
10 11 23 13 20 4 20 4 -3 6 -15 0 -33 -8 -44 -21z"/>
<path d="M2530 3921 c-7 -14 -7 -21 0 -21 5 0 10 5 10 10 0 6 11 10 25 10 34
0 31 -19 -11 -68 l-36 -42 47 0 c28 0 44 4 40 10 -3 6 -15 10 -26 10 -20 0
-20 0 1 30 29 40 23 74 -12 78 -19 2 -30 -3 -38 -17z"/>
<path d="M1424 3865 l1 -50 38 -2 37 -1 0 43 c0 58 -18 68 -22 13 -2 -35 -7
-43 -23 -43 -16 0 -21 9 -26 45 l-7 45 2 -50z"/>
<path d="M1532 3860 c1 -52 1 -53 7 -15 5 32 11 41 29 43 20 3 22 -1 22 -37 0
-23 5 -41 10 -41 16 0 12 67 -6 84 -18 19 -30 20 -40 5 -4 -8 -9 -7 -15 2 -5
9 -8 -7 -7 -41z"/>
<path d="M1640 3901 c0 -6 7 -11 15 -11 23 0 20 -67 -2 -73 -10 -3 2 -5 27 -5
25 0 37 2 28 5 -12 3 -18 17 -20 46 -2 35 -7 43 -25 45 -13 2 -23 -1 -23 -7z"/>
<path d="M1761 3896 c-7 -8 -11 -30 -9 -48 3 -29 6 -33 32 -33 16 0 31 6 34
13 3 11 1 11 -17 0 -18 -11 -23 -11 -31 2 -15 23 -7 54 14 58 10 2 22 -2 27
-10 7 -10 9 -10 9 3 0 15 -19 29 -40 29 -4 0 -13 -6 -19 -14z"/>
<path d="M1874 3885 c-23 -35 -6 -75 30 -75 41 0 60 54 30 84 -22 23 -41 20
-60 -9z m54 -27 c-2 -25 -8 -33 -23 -33 -20 0 -31 25 -21 51 3 8 15 14 26 14
18 0 21 -5 18 -32z"/>
<path d="M2101 3896 c-7 -8 -11 -30 -9 -48 3 -29 6 -33 32 -33 16 0 31 6 34
13 3 11 1 11 -17 0 -18 -11 -23 -11 -31 2 -8 12 -3 16 22 20 37 6 45 21 23 44
-20 20 -39 20 -54 2z m49 -16 c0 -5 -12 -10 -26 -10 -14 0 -23 4 -19 10 3 6
15 10 26 10 10 0 19 -4 19 -10z"/>
<path d="M2311 3841 c1 -36 4 -56 6 -45 3 16 9 20 24 17 25 -7 49 13 49 41 0
33 -16 49 -49 51 l-31 2 1 -66z m57 17 c-3 -36 -24 -44 -41 -17 -14 23 -2 49
23 49 18 0 21 -5 18 -32z"/>
<path d="M2220 3825 c0 -8 7 -15 15 -15 8 0 15 7 15 15 0 8 -7 15 -15 15 -8 0
-15 -7 -15 -15z"/>
<path d="M1451 3670 c-1 -64 0 -66 25 -68 15 -1 33 3 40 9 32 27 2 96 -36 84
-14 -4 -20 0 -23 17 -2 13 -5 -6 -6 -42z m57 -22 c-3 -36 -24 -44 -41 -17 -14
23 -2 49 23 49 18 0 21 -5 18 -32z"/>
<path d="M1796 3708 c-13 -14 -15 -23 -8 -26 7 -2 12 -21 12 -43 0 -21 5 -39
10 -39 6 0 10 18 10 39 0 33 4 40 23 44 l22 4 -22 8 c-13 4 -23 11 -23 15 0 5
10 11 23 13 20 4 20 4 -3 6 -15 0 -33 -8 -44 -21z"/>
<path d="M1125 3684 c-33 -34 -7 -92 36 -81 13 3 19 1 16 -6 -2 -7 -16 -12
-30 -12 -30 1 -36 -10 -11 -19 39 -15 69 29 62 94 -2 28 -7 33 -30 36 -16 1
-35 -4 -43 -12z m53 -30 c3 -23 -21 -49 -38 -39 -5 3 -10 20 -10 36 0 26 3 30
23 27 13 -2 23 -11 25 -24z"/>
<path d="M1230 3690 c0 -5 5 -10 10 -10 15 0 12 -67 -2 -73 -7 -3 3 -5 22 -5
19 0 27 2 17 5 -26 7 -19 55 11 68 12 5 22 13 22 17 0 12 -25 9 -38 -4 -9 -9
-12 -9 -12 0 0 7 -7 12 -15 12 -8 0 -15 -4 -15 -10z"/>
<path d="M1344 3655 l1 -50 38 -2 37 -1 0 43 c0 58 -18 68 -22 13 -2 -35 -7
-43 -23 -43 -16 0 -21 9 -26 45 l-7 45 2 -50z"/>
<path d="M1681 3686 c-7 -8 -11 -30 -9 -48 3 -29 6 -33 32 -33 16 0 31 6 34
13 3 11 1 11 -17 0 -18 -11 -23 -11 -31 2 -15 23 -7 54 14 58 10 2 22 -2 27
-10 7 -10 9 -10 9 3 0 15 -19 29 -40 29 -4 0 -13 -6 -19 -14z"/>
<path d="M1895 3684 c-33 -34 -7 -92 36 -81 13 3 19 1 16 -6 -2 -7 -16 -12
-30 -12 -30 1 -36 -10 -11 -19 39 -15 69 29 62 94 -2 28 -7 33 -30 36 -16 1
-35 -4 -43 -12z m53 -30 c3 -23 -21 -49 -38 -39 -5 3 -10 20 -10 36 0 26 3 30
23 27 13 -2 23 -11 25 -24z"/>
<path d="M1580 3615 c0 -8 7 -15 15 -15 8 0 15 7 15 15 0 8 -7 15 -15 15 -8 0
-15 -7 -15 -15z"/>
<path d="M1451 3450 c-1 -64 0 -66 25 -68 15 -1 33 3 40 9 32 27 2 96 -36 84
-14 -4 -20 0 -23 17 -2 13 -5 -6 -6 -42z m57 -22 c-3 -36 -24 -44 -41 -17 -14
23 -2 49 23 49 18 0 21 -5 18 -32z"/>
<path d="M1125 3464 c-33 -34 -7 -92 36 -81 13 3 19 1 16 -6 -2 -7 -16 -12
-30 -12 -30 1 -36 -10 -11 -19 39 -15 69 29 62 94 -2 28 -7 33 -30 36 -16 1
-35 -4 -43 -12z m53 -30 c3 -23 -21 -49 -38 -39 -5 3 -10 20 -10 36 0 26 3 30
23 27 13 -2 23 -11 25 -24z"/>
<path d="M1230 3470 c0 -5 5 -10 10 -10 15 0 12 -67 -2 -73 -7 -3 3 -5 22 -5
19 0 27 2 17 5 -26 7 -19 55 11 68 12 5 22 13 22 17 0 12 -25 9 -38 -4 -9 -9
-12 -9 -12 0 0 7 -7 12 -15 12 -8 0 -15 -4 -15 -10z"/>
<path d="M1344 3435 l1 -50 38 -2 37 -1 0 43 c0 58 -18 68 -22 13 -2 -35 -7
-43 -23 -43 -16 0 -21 9 -26 45 l-7 45 2 -50z"/>
<path d="M1571 3466 c-7 -8 -11 -30 -9 -48 3 -29 6 -33 32 -33 16 0 31 6 34
13 3 11 1 11 -17 0 -18 -11 -23 -11 -31 2 -8 12 -3 16 22 20 37 6 45 21 23 44
-20 20 -39 20 -54 2z m49 -16 c0 -5 -12 -10 -26 -10 -14 0 -23 4 -19 10 3 6
15 10 26 10 10 0 19 -4 19 -10z"/>
<path d="M1672 3430 c1 -52 1 -53 7 -15 5 32 11 41 29 43 20 3 22 -1 22 -37 0
-23 5 -41 10 -41 16 0 12 67 -6 84 -18 19 -30 20 -40 5 -4 -8 -9 -7 -15 2 -5
9 -8 -7 -7 -41z"/>
<path d="M1780 3466 c0 -23 27 -86 37 -86 5 0 15 20 24 45 9 25 13 45 9 45 -5
0 -14 -17 -21 -37 l-12 -38 -14 39 c-15 46 -23 56 -23 32z"/>
<path d="M1287 3262 c4 -16 -1 -24 -18 -32 -17 -7 -19 -9 -5 -7 26 3 44 33 29
48 -9 9 -11 7 -6 -9z"/>
<path d="M1343 3264 c-8 -20 21 -49 41 -41 21 8 32 35 19 48 -6 6 -9 2 -9 -13
1 -17 -5 -23 -19 -23 -14 0 -20 6 -19 23 1 26 -4 28 -13 6z"/>
<path d="M1466 3249 c-10 -17 -16 -33 -13 -35 3 -3 12 9 21 27 21 42 15 47 -8
8z"/>
<path d="M1152 3213 c-2 -30 -7 -43 -19 -46 -10 -3 0 -5 22 -5 22 0 32 2 23 5
-12 3 -18 17 -21 46 l-4 42 -1 -42z"/>
<path d="M1673 3190 c0 -36 2 -50 4 -32 2 17 2 47 0 65 -2 17 -4 3 -4 -33z"/>
<path d="M1787 3243 c-11 -11 -8 -58 5 -71 7 -7 19 -12 28 -11 9 0 5 4 -9 10
-19 8 -23 15 -19 44 4 38 4 38 -5 28z"/>
<path d="M1573 3213 c15 -2 37 -2 50 0 12 2 0 4 -28 4 -27 0 -38 -2 -22 -4z"/>
<path d="M1407 3186 c-3 -8 -16 -16 -29 -19 -21 -4 -21 -4 -2 -6 21 -1 52 24
42 35 -3 3 -8 -2 -11 -10z"/>
<path d="M1462 3174 c9 -9 21 -15 27 -13 6 2 -2 10 -17 17 -25 11 -25 11 -10
-4z"/>
<path d="M1730 3182 c0 -6 -8 -13 -17 -15 -16 -4 -16 -5 -1 -6 18 -1 34 16 24
26 -3 4 -6 1 -6 -5z"/>
<path d="M1258 3163 c7 -3 16 -2 19 1 4 3 -2 6 -13 5 -11 0 -14 -3 -6 -6z"/>
<path d="M1012 2843 l-2 -283 145 0 c90 0 145 4 145 10 0 6 -53 10 -140 10
l-140 0 0 95 0 95 140 0 c87 0 140 4 140 10 0 6 -53 10 -140 10 l-140 0 0 100
0 100 140 0 c87 0 140 4 140 10 0 6 -53 10 -140 10 l-139 0 -4 58 c-2 31 -4
-70 -5 -225z"/>
<path d="M1780 3080 c0 -5 5 -10 10 -10 6 0 10 5 10 10 0 6 -4 10 -10 10 -5 0
-10 -4 -10 -10z"/>
<path d="M2260 3059 c0 -15 -5 -19 -19 -14 -38 12 -70 -57 -38 -83 7 -6 27
-10 45 -10 l32 1 0 64 c0 35 -4 63 -10 63 -5 0 -10 -9 -10 -21z m-5 -64 c0
-23 -4 -30 -20 -30 -21 0 -31 25 -21 51 11 28 41 12 41 -21z"/>
<path d="M1429 3034 c-11 -13 -9 -14 14 -9 17 5 27 3 27 -4 0 -6 -6 -11 -14
-11 -8 0 -22 -7 -31 -16 -22 -22 -2 -45 36 -42 26 2 29 6 29 38 0 54 -33 78
-61 44z m39 -56 c-3 -7 -11 -13 -18 -13 -7 0 -15 6 -17 13 -3 7 4 12 17 12 13
0 20 -5 18 -12z"/>
<path d="M1541 3036 c-7 -8 -11 -30 -9 -48 3 -29 6 -33 32 -33 16 0 31 6 34
13 3 11 1 11 -17 0 -18 -11 -23 -11 -31 2 -15 23 -7 54 14 58 10 2 22 -2 27
-10 7 -10 9 -10 9 3 0 15 -19 29 -40 29 -4 0 -13 -6 -19 -14z"/>
<path d="M1641 2981 c1 -36 4 -56 6 -45 3 16 9 20 24 17 25 -7 49 13 49 41 0
33 -16 49 -49 51 l-31 2 1 -66z m57 17 c-3 -36 -24 -44 -41 -17 -14 23 -2 49
23 49 18 0 21 -5 18 -32z"/>
<path d="M1750 3041 c0 -6 7 -11 15 -11 23 0 20 -67 -2 -73 -10 -3 2 -5 27 -5
25 0 37 2 28 5 -12 3 -18 17 -20 46 -2 35 -7 43 -25 45 -13 2 -23 -1 -23 -7z"/>
<path d="M1971 2996 c2 -50 2 -50 8 -12 9 56 31 59 32 4 l2 -43 6 39 c8 55 29
58 34 4 4 -40 4 -39 3 7 l-1 50 -42 1 -43 0 1 -50z"/>
<path d="M2094 3025 c-23 -35 -6 -75 30 -75 41 0 60 54 30 84 -22 23 -41 20
-60 -9z m54 -27 c-2 -25 -8 -33 -23 -33 -20 0 -31 25 -21 51 3 8 15 14 26 14
18 0 21 -5 18 -32z"/>
<path d="M1890 2965 c0 -8 7 -15 15 -15 8 0 15 7 15 15 0 8 -7 15 -15 15 -8 0
-15 -7 -15 -15z"/>
<path d="M1440 2745 c0 -8 7 -15 15 -15 8 0 15 7 15 15 0 8 -7 15 -15 15 -8 0
-15 -7 -15 -15z"/>
<path d="M1550 2745 c0 -8 7 -15 15 -15 8 0 15 7 15 15 0 8 -7 15 -15 15 -8 0
-15 -7 -15 -15z"/>
<path d="M1660 2745 c0 -8 7 -15 15 -15 8 0 15 7 15 15 0 8 -7 15 -15 15 -8 0
-15 -7 -15 -15z"/>
<path d="M1546 2628 c-13 -14 -15 -23 -8 -26 7 -2 12 -21 12 -43 0 -21 5 -39
10 -39 6 0 10 18 10 39 0 33 4 40 23 44 l22 4 -22 8 c-13 4 -23 11 -23 15 0 5
10 11 23 13 20 4 20 4 -3 6 -15 0 -33 -8 -44 -21z"/>
<path d="M2150 2629 c0 -15 -5 -19 -19 -14 -38 12 -70 -57 -38 -83 7 -6 27
-10 45 -10 l32 1 0 64 c0 35 -4 63 -10 63 -5 0 -10 -9 -10 -21z m-5 -64 c0
-23 -4 -30 -20 -30 -21 0 -31 25 -21 51 11 28 41 12 41 -21z"/>
<path d="M1420 2610 c0 -5 12 -10 26 -10 l26 0 -26 -34 c-14 -19 -26 -37 -26
-40 0 -3 17 -5 38 -5 35 1 35 2 8 8 l-29 6 27 31 c35 42 33 54 -9 54 -19 0
-35 -4 -35 -10z"/>
<path d="M1650 2605 c-15 -18 -6 -33 28 -46 19 -8 23 -12 13 -22 -9 -9 -16 -9
-32 2 -18 10 -20 10 -17 -1 3 -7 18 -13 34 -13 40 0 48 39 10 49 -34 8 -34 30
-1 24 28 -6 34 6 9 16 -23 9 -30 8 -44 -9z"/>
<path d="M1861 2566 c2 -50 2 -50 8 -12 9 56 31 59 32 4 l2 -43 6 39 c8 55 29
58 34 4 4 -40 4 -39 3 7 l-1 50 -42 1 -43 0 1 -50z"/>
<path d="M1984 2595 c-23 -35 -6 -75 30 -75 41 0 60 54 30 84 -22 23 -41 20
-60 -9z m54 -27 c-2 -25 -8 -33 -23 -33 -20 0 -31 25 -21 51 3 8 15 14 26 14
18 0 21 -5 18 -32z"/>
<path d="M1770 2535 c0 -8 7 -15 15 -15 8 0 15 7 15 15 0 8 -7 15 -15 15 -8 0
-15 -7 -15 -15z"/>
<path d="M1133 2423 c13 -4 17 -15 17 -58 0 -43 -4 -54 -17 -58 -10 -3 0 -5
22 -5 22 0 32 2 23 5 -15 4 -18 16 -18 64 0 55 -2 59 -22 58 -17 -1 -19 -2 -5
-6z"/>
<path d="M1573 2423 c13 -4 17 -15 17 -58 0 -43 -4 -54 -17 -58 -10 -3 0 -5
22 -5 22 0 32 2 23 5 -15 4 -18 16 -18 64 0 55 -2 59 -22 58 -17 -1 -19 -2 -5
-6z"/>
<path d="M1237 2383 c-11 -11 -8 -58 5 -71 7 -7 19 -12 28 -11 9 0 5 4 -9 10
-19 8 -23 15 -19 44 4 38 4 38 -5 28z"/>
<path d="M1286 2377 c3 -10 9 -15 12 -12 3 3 0 11 -7 18 -10 9 -11 8 -5 -6z"/>
<path d="M1347 2383 c-11 -11 -8 -58 5 -71 7 -7 19 -12 28 -11 9 0 5 4 -9 10
-19 8 -23 15 -19 44 4 38 4 38 -5 28z"/>
<path d="M1510 2342 l5 -47 3 39 c2 21 0 42 -5 47 -4 4 -6 -13 -3 -39z"/>
<path d="M1677 2383 c-11 -11 -8 -58 5 -71 7 -7 19 -12 28 -11 9 0 5 4 -9 10
-19 8 -23 15 -19 44 4 38 4 38 -5 28z"/>
<path d="M1727 2369 c4 -13 8 -18 11 -10 2 7 -1 18 -6 23 -8 8 -9 4 -5 -13z"/>
<path d="M1454 2335 c-8 -19 4 -35 24 -34 14 1 14 2 -1 6 -13 3 -17 11 -14 24
6 22 -1 26 -9 4z"/>
<path d="M1233 2145 c0 -38 2 -53 4 -32 2 20 2 52 0 70 -2 17 -4 1 -4 -38z"/>
<path d="M1142 2155 c-2 -52 10 -76 38 -74 10 0 9 3 -5 8 -15 6 -21 20 -26 62
l-6 54 -1 -50z"/>
<path d="M1290 2122 l5 -47 3 39 c2 21 0 42 -5 47 -4 4 -6 -13 -3 -39z"/>
<path d="M1347 2163 c-11 -11 -8 -58 5 -71 7 -7 19 -12 28 -11 9 0 5 4 -9 10
-19 8 -23 15 -19 44 4 38 4 38 -5 28z"/>
<path d="M1397 2149 c4 -13 8 -18 11 -10 2 7 -1 18 -6 23 -8 8 -9 4 -5 -13z"/>
<path d="M1443 2125 c0 -27 2 -38 4 -22 2 15 2 37 0 50 -2 12 -4 0 -4 -28z"/>
<path d="M1478 2133 c5 -59 10 -63 11 -10 1 26 -3 47 -7 47 -4 0 -6 -17 -4
-37z"/>
<path d="M1520 2122 l5 -47 3 39 c2 21 0 42 -5 47 -4 4 -6 -13 -3 -39z"/>
<path d="M1567 2163 c-11 -11 -8 -58 5 -71 7 -7 19 -12 28 -11 9 0 5 4 -9 10
-19 8 -23 15 -19 44 4 38 4 38 -5 28z"/>
<path d="M1617 2149 c4 -13 8 -18 11 -10 2 7 -1 18 -6 23 -8 8 -9 4 -5 -13z"/>
<path d="M1716 2123 c6 -4 14 -15 17 -23 5 -11 6 -9 4 4 -1 11 -9 21 -17 23
-10 3 -11 2 -4 -4z"/>
<path d="M1698 2083 c7 -3 16 -2 19 1 4 3 -2 6 -13 5 -11 0 -14 -3 -6 -6z"/>
<path d="M1152 1978 l-2 -68 145 0 c90 0 145 4 145 10 0 6 -53 10 -140 10
l-139 0 -4 58 -3 57 -2 -67z"/>
<path d="M2046 1991 c-4 -5 3 -7 14 -4 23 6 26 13 6 13 -8 0 -17 -4 -20 -9z"/>
<path d="M2353 1993 c13 -4 17 -15 17 -58 0 -43 -4 -54 -17 -58 -10 -3 0 -5
22 -5 22 0 32 2 23 5 -15 4 -18 16 -18 64 0 55 -2 59 -22 58 -17 -1 -19 -2 -5
-6z"/>
<path d="M2513 1935 c0 -38 2 -53 4 -32 2 20 2 52 0 70 -2 17 -4 1 -4 -38z"/>
<path d="M1692 1945 c-2 -52 10 -76 38 -74 10 0 9 3 -5 8 -15 6 -21 20 -26 62
l-6 54 -1 -50z"/>
<path d="M1840 1912 l5 -47 3 39 c2 21 0 42 -5 47 -4 4 -6 -13 -3 -39z"/>
<path d="M1912 1923 c-1 -23 -8 -44 -14 -46 -7 -3 3 -5 22 -5 19 0 27 2 18 5
-12 3 -18 17 -21 46 l-4 42 -1 -42z"/>
<path d="M2152 1923 c-2 -30 -7 -43 -19 -46 -10 -3 0 -5 22 -5 22 0 32 2 23 5
-12 3 -18 17 -21 46 l-4 42 -1 -42z"/>
<path d="M2237 1953 c-11 -11 -8 -58 5 -71 7 -7 19 -12 28 -11 9 0 5 4 -9 10
-19 8 -23 15 -19 44 4 38 4 38 -5 28z"/>
<path d="M2287 1939 c4 -13 8 -18 11 -10 2 7 -1 18 -6 23 -8 8 -9 4 -5 -13z"/>
<path d="M2455 1949 c-4 -6 -5 -12 -2 -15 2 -3 7 2 10 11 7 17 1 20 -8 4z"/>
<path d="M1606 1913 c6 -4 14 -15 17 -23 5 -11 6 -9 4 4 -1 11 -9 21 -17 23
-10 3 -11 2 -4 -4z"/>
<path d="M1784 1905 c-8 -19 4 -35 24 -34 14 1 14 2 -1 6 -13 3 -17 11 -14 24
6 22 -1 26 -9 4z"/>
<path d="M2450 1891 c0 -9 30 -24 36 -18 2 1 -6 8 -16 15 -11 7 -20 8 -20 3z"/>
<path d="M1588 1873 c7 -3 16 -2 19 1 4 3 -2 6 -13 5 -11 0 -14 -3 -6 -6z"/>
<path d="M1592 1328 l-2 -498 145 0 c90 0 145 4 145 10 0 6 -53 10 -140 10
l-140 0 0 95 0 95 140 0 c87 0 140 4 140 10 0 6 -53 10 -140 10 l-140 0 0 100
0 100 140 0 c87 0 140 4 140 10 0 6 -53 10 -140 10 l-140 0 0 100 0 100 140 0
c87 0 140 4 140 10 0 6 -53 10 -140 10 l-140 0 0 95 0 95 140 0 c87 0 140 4
140 10 0 6 -53 10 -140 10 l-139 0 -4 58 c-2 31 -4 -167 -5 -440z"/>
<path d="M2011 1720 c-1 -64 0 -66 25 -68 15 -1 33 3 40 9 32 27 2 96 -36 84
-14 -4 -20 0 -23 17 -2 13 -5 -6 -6 -42z m57 -22 c-3 -36 -24 -44 -41 -17 -14
23 -2 49 23 49 18 0 21 -5 18 -32z"/>
<path d="M2133 1773 c13 -4 17 -15 17 -58 0 -43 -4 -54 -17 -58 -10 -3 2 -5
27 -5 25 0 37 2 28 5 -15 4 -18 16 -18 64 0 58 0 59 -27 58 -17 -1 -21 -3 -10
-6z"/>
<path d="M2341 1720 c-1 -64 0 -66 25 -68 15 -1 33 3 40 9 32 27 2 96 -36 84
-14 -4 -20 0 -23 17 -2 13 -5 -6 -6 -42z m57 -22 c-3 -36 -24 -44 -41 -17 -14
23 -2 49 23 49 18 0 21 -5 18 -32z"/>
<path d="M2234 1725 c-23 -35 -6 -75 30 -75 41 0 60 54 30 84 -22 23 -41 20
-60 -9z m54 -27 c-2 -25 -8 -33 -23 -33 -20 0 -31 25 -21 51 3 8 15 14 26 14
18 0 21 -5 18 -32z"/>
<path d="M2551 1734 c-1 -32 10 -84 19 -84 4 0 11 15 17 33 l10 32 7 -32 c10
-45 21 -41 33 12 6 25 6 45 2 45 -5 0 -9 -9 -9 -19 0 -11 -4 -23 -10 -26 -6
-3 -10 5 -10 19 0 51 -28 36 -31 -17 -1 -15 -5 -9 -14 18 -9 25 -14 32 -14 19z"/>
<path d="M2781 1681 c1 -36 4 -56 6 -45 3 16 9 20 24 17 25 -7 49 13 49 41 0
33 -16 49 -49 51 l-31 2 1 -66z m57 17 c-3 -36 -24 -44 -41 -17 -14 23 -2 49
23 49 18 0 21 -5 18 -32z"/>
<path d="M2902 1700 c1 -52 1 -53 7 -15 5 32 11 41 29 43 20 3 22 -1 22 -37 0
-23 5 -41 10 -41 16 0 12 67 -6 84 -18 19 -30 20 -40 5 -4 -8 -9 -7 -15 2 -5
9 -8 -7 -7 -41z"/>
<path d="M3015 1734 c-33 -34 -7 -92 36 -81 13 3 19 1 16 -6 -2 -7 -16 -12
-30 -12 -30 1 -36 -10 -11 -19 39 -15 69 29 62 94 -2 28 -7 33 -30 36 -16 1
-35 -4 -43 -12z m53 -30 c3 -23 -21 -49 -38 -39 -5 3 -10 20 -10 36 0 26 3 30
23 27 13 -2 23 -11 25 -24z"/>
<path d="M2690 1665 c0 -8 7 -15 15 -15 8 0 15 7 15 15 0 8 -7 15 -15 15 -8 0
-15 -7 -15 -15z"/>
<path d="M2440 1630 c0 -5 20 -10 45 -10 25 0 45 5 45 10 0 6 -20 10 -45 10
-25 0 -45 -4 -45 -10z"/>
<path d="M2011 1510 c-1 -64 0 -66 25 -68 15 -1 33 3 40 9 32 27 2 96 -36 84
-14 -4 -20 0 -23 17 -2 13 -5 -6 -6 -42z m57 -22 c-3 -36 -24 -44 -41 -17 -14
23 -2 49 23 49 18 0 21 -5 18 -32z"/>
<path d="M2351 1544 c-9 -11 -10 -18 -3 -23 6 -3 12 -22 14 -41 2 -29 7 -35
28 -37 14 -1 18 0 8 3 -23 7 -26 74 -3 74 8 0 15 5 15 10 0 6 -7 10 -15 10 -8
0 -15 5 -15 10 0 14 -13 12 -29 -6z"/>
<path d="M2124 1515 c-23 -35 -6 -75 30 -75 41 0 60 54 30 84 -22 23 -41 20
-60 -9z m54 -27 c-2 -25 -8 -33 -23 -33 -20 0 -31 25 -21 51 3 8 15 14 26 14
18 0 21 -5 18 -32z"/>
<path d="M2234 1515 c-23 -35 -6 -75 30 -75 41 0 60 54 30 84 -22 23 -41 20
-60 -9z m54 -27 c-2 -25 -8 -33 -23 -33 -20 0 -31 25 -21 51 3 8 15 14 26 14
18 0 21 -5 18 -32z"/>
<path d="M2551 1486 c2 -50 2 -50 8 -12 9 56 31 59 32 4 l2 -43 6 39 c8 55 29
58 34 4 4 -40 4 -39 3 7 l-1 50 -42 1 -43 0 1 -50z"/>
<path d="M2681 1526 c-7 -8 -11 -30 -9 -48 3 -29 6 -33 32 -33 16 0 31 6 34
13 3 11 1 11 -17 0 -18 -11 -23 -11 -31 2 -8 12 -3 16 22 20 37 6 45 21 23 44
-20 20 -39 20 -54 2z m49 -16 c0 -5 -12 -10 -26 -10 -14 0 -23 4 -19 10 3 6
15 10 26 10 10 0 19 -4 19 -10z"/>
<path d="M2782 1490 c1 -52 1 -53 7 -15 5 32 11 41 29 43 20 3 22 -1 22 -37 0
-23 5 -41 10 -41 16 0 12 67 -6 84 -18 19 -30 20 -40 5 -4 -8 -9 -7 -15 2 -5
9 -8 -7 -7 -41z"/>
<path d="M2904 1495 l1 -50 38 -2 37 -1 0 43 c0 58 -18 68 -22 13 -2 -35 -7
-43 -23 -43 -16 0 -21 9 -26 45 l-7 45 2 -50z"/>
<path d="M3131 1526 c-7 -8 -11 -30 -9 -48 3 -29 6 -33 32 -33 16 0 31 6 34
13 3 11 1 11 -17 0 -18 -11 -23 -11 -31 2 -15 23 -7 54 14 58 10 2 22 -2 27
-10 7 -10 9 -10 9 3 0 15 -19 29 -40 29 -4 0 -13 -6 -19 -14z"/>
<path d="M3341 1471 c1 -36 4 -56 6 -45 3 16 9 20 24 17 25 -7 49 13 49 41 0
33 -16 49 -49 51 l-31 2 1 -66z m57 17 c-3 -36 -24 -44 -41 -17 -14 23 -2 49
23 49 18 0 21 -5 18 -32z"/>
<path d="M3452 1490 c1 -52 1 -53 7 -15 5 32 11 41 29 43 20 3 22 -1 22 -37 0
-23 5 -41 10 -41 16 0 12 67 -6 84 -18 19 -30 20 -40 5 -4 -8 -9 -7 -15 2 -5
9 -8 -7 -7 -41z"/>
<path d="M3565 1524 c-33 -34 -7 -92 36 -81 13 3 19 1 16 -6 -2 -7 -16 -12
-30 -12 -30 1 -36 -10 -11 -19 39 -15 69 29 62 94 -2 28 -7 33 -30 36 -16 1
-35 -4 -43 -12z m53 -30 c3 -23 -21 -49 -38 -39 -5 3 -10 20 -10 36 0 26 3 30
23 27 13 -2 23 -11 25 -24z"/>
<path d="M3250 1455 c0 -8 7 -15 15 -15 8 0 15 7 15 15 0 8 -7 15 -15 15 -8 0
-15 -7 -15 -15z"/>
<path d="M2440 1420 c0 -5 20 -10 45 -10 25 0 45 5 45 10 0 6 -20 10 -45 10
-25 0 -45 -4 -45 -10z"/>
<path d="M3000 1420 c0 -5 20 -10 45 -10 25 0 45 5 45 10 0 6 -20 10 -45 10
-25 0 -45 -4 -45 -10z"/>
<path d="M2030 1235 c0 -8 7 -15 15 -15 8 0 15 7 15 15 0 8 -7 15 -15 15 -8 0
-15 -7 -15 -15z"/>
<path d="M2140 1235 c0 -8 7 -15 15 -15 8 0 15 7 15 15 0 8 -7 15 -15 15 -8 0
-15 -7 -15 -15z"/>
<path d="M2250 1235 c0 -8 7 -15 15 -15 8 0 15 7 15 15 0 8 -7 15 -15 15 -8 0
-15 -7 -15 -15z"/>
<path d="M2480 1130 c0 -5 5 -10 10 -10 6 0 10 5 10 10 0 6 -4 10 -10 10 -5 0
-10 -4 -10 -10z"/>
<path d="M2793 1123 c13 -4 17 -15 17 -58 0 -43 -4 -54 -17 -58 -10 -3 2 -5
27 -5 25 0 37 2 28 5 -15 4 -18 16 -18 64 0 58 0 59 -27 58 -17 -1 -21 -3 -10
-6z"/>
<path d="M3011 1070 c-1 -64 0 -66 25 -68 15 -1 33 3 40 9 32 27 2 96 -36 84
-14 -4 -20 0 -23 17 -2 13 -5 -6 -6 -42z m57 -22 c-3 -36 -24 -44 -41 -17 -14
23 -2 49 23 49 18 0 21 -5 18 -32z"/>
<path d="M2021 1104 c-9 -11 -10 -18 -3 -23 6 -3 12 -22 14 -41 2 -29 7 -35
28 -37 14 -1 18 0 8 3 -23 7 -26 74 -3 74 8 0 15 5 15 10 0 6 -7 10 -15 10 -8
0 -15 5 -15 10 0 14 -13 12 -29 -6z"/>
<path d="M2131 1086 c-7 -8 -11 -30 -9 -48 3 -29 6 -33 32 -33 16 0 31 6 34
13 3 11 1 11 -17 0 -18 -11 -23 -11 -31 2 -8 12 -3 16 22 20 37 6 45 21 23 44
-20 20 -39 20 -54 2z m49 -16 c0 -5 -12 -10 -26 -10 -14 0 -23 4 -19 10 3 6
15 10 26 10 10 0 19 -4 19 -10z"/>
<path d="M2230 1090 c0 -5 5 -10 10 -10 15 0 12 -67 -2 -73 -7 -3 3 -5 22 -5
19 0 27 2 17 5 -26 7 -19 55 11 68 12 5 22 13 22 17 0 12 -25 9 -38 -4 -9 -9
-12 -9 -12 0 0 7 -7 12 -15 12 -8 0 -15 -4 -15 -10z"/>
<path d="M2331 1046 c2 -50 2 -50 8 -12 9 56 31 59 32 4 l2 -43 6 39 c8 55 29
58 34 4 4 -40 4 -39 3 7 l-1 50 -42 1 -43 0 1 -50z"/>
<path d="M2450 1091 c0 -6 7 -11 15 -11 23 0 20 -67 -2 -73 -10 -3 2 -5 27 -5
25 0 37 2 28 5 -12 3 -18 17 -20 46 -2 35 -7 43 -25 45 -13 2 -23 -1 -23 -7z"/>
<path d="M2562 1050 c1 -52 1 -53 7 -15 5 32 11 41 29 43 20 3 22 -1 22 -37 0
-23 5 -41 10 -41 16 0 12 67 -6 84 -18 19 -30 20 -40 5 -4 -8 -9 -7 -15 2 -5
9 -8 -7 -7 -41z"/>
<path d="M2679 1084 c-11 -13 -9 -14 14 -9 17 5 27 3 27 -4 0 -6 -6 -11 -14
-11 -8 0 -22 -7 -31 -16 -22 -22 -2 -45 36 -42 26 2 29 6 29 38 0 54 -33 78
-61 44z m39 -56 c-3 -7 -11 -13 -18 -13 -7 0 -15 6 -17 13 -3 7 4 12 17 12 13
0 20 -5 18 -12z"/>
<path d="M3124 1075 c-23 -35 -6 -75 30 -75 41 0 60 54 30 84 -22 23 -41 20
-60 -9z m54 -27 c-2 -25 -8 -33 -23 -33 -20 0 -31 25 -21 51 3 8 15 14 26 14
18 0 21 -5 18 -32z"/>
<path d="M3230 1098 c0 -4 5 -18 11 -32 9 -20 9 -29 -1 -41 -7 -8 -11 -18 -8
-20 3 -3 11 1 18 10 12 14 15 14 31 -1 20 -18 27 -6 7 14 -9 9 -9 18 1 38 14
32 7 44 -9 14 l-11 -21 -19 23 c-11 13 -19 20 -20 16z"/>
<path d="M3441 1084 c-1 -32 10 -84 19 -84 4 0 11 15 17 33 l10 32 7 -32 c10
-45 21 -41 33 12 6 25 6 45 2 45 -5 0 -9 -9 -9 -19 0 -11 -4 -23 -10 -26 -6
-3 -10 5 -10 19 0 51 -28 36 -31 -17 -1 -15 -5 -9 -14 18 -9 25 -14 32 -14 19z"/>
<path d="M3671 1031 c1 -36 4 -56 6 -45 3 16 9 20 24 17 25 -7 49 13 49 41 0
33 -16 49 -49 51 l-31 2 1 -66z m57 17 c-3 -36 -24 -44 -41 -17 -14 23 -2 49
23 49 18 0 21 -5 18 -32z"/>
<path d="M3792 1050 c1 -52 1 -53 7 -15 5 32 11 41 29 43 20 3 22 -1 22 -37 0
-23 5 -41 10 -41 16 0 12 67 -6 84 -18 19 -30 20 -40 5 -4 -8 -9 -7 -15 2 -5
9 -8 -7 -7 -41z"/>
<path d="M3905 1084 c-33 -34 -7 -92 36 -81 13 3 19 1 16 -6 -2 -7 -16 -12
-30 -12 -30 1 -36 -10 -11 -19 39 -15 69 29 62 94 -2 28 -7 33 -30 36 -16 1
-35 -4 -43 -12z m53 -30 c3 -23 -21 -49 -38 -39 -5 3 -10 20 -10 36 0 26 3 30
23 27 13 -2 23 -11 25 -24z"/>
<path d="M3580 1015 c0 -8 7 -15 15 -15 8 0 15 7 15 15 0 8 -7 15 -15 15 -8 0
-15 -7 -15 -15z"/>
<path d="M2890 980 c0 -5 20 -10 45 -10 25 0 45 5 45 10 0 6 -20 10 -45 10
-25 0 -45 -4 -45 -10z"/>
<path d="M3330 980 c0 -5 20 -10 45 -10 25 0 45 5 45 10 0 6 -20 10 -45 10
-25 0 -45 -4 -45 -10z"/>
<path d="M2123 855 c0 -54 1 -61 6 -30 5 32 11 41 29 43 20 3 22 -1 22 -37 0
-23 5 -41 10 -41 16 0 12 67 -6 84 -19 19 -30 20 -41 4 -5 -9 -10 -3 -14 17
-4 19 -7 5 -6 -40z"/>
<path d="M2021 894 c-9 -11 -10 -18 -3 -23 6 -3 12 -22 14 -41 2 -29 7 -35 28
-37 14 -1 18 0 8 3 -23 7 -26 74 -3 74 8 0 15 5 15 10 0 6 -7 10 -15 10 -8 0
-15 5 -15 10 0 14 -13 12 -29 -6z"/>
<path d="M2681 894 c-9 -11 -10 -18 -3 -23 6 -3 12 -22 14 -41 2 -29 7 -35 28
-37 14 -1 18 0 8 3 -23 7 -26 74 -3 74 8 0 15 5 15 10 0 6 -7 10 -15 10 -8 0
-15 5 -15 10 0 14 -13 12 -29 -6z"/>
<path d="M2911 894 c-9 -11 -10 -18 -3 -23 6 -3 12 -22 14 -41 2 -29 7 -35 28
-37 14 -1 18 0 8 3 -23 7 -26 74 -3 74 8 0 15 5 15 10 0 6 -7 10 -15 10 -8 0
-15 5 -15 10 0 14 -13 12 -29 -6z"/>
<path d="M2241 876 c-7 -8 -11 -30 -9 -48 3 -29 6 -33 32 -33 16 0 31 6 34 13
3 11 1 11 -17 0 -18 -11 -23 -11 -31 2 -8 12 -3 16 22 20 37 6 45 21 23 44
-20 20 -39 20 -54 2z m49 -16 c0 -5 -12 -10 -26 -10 -14 0 -23 4 -19 10 3 6
15 10 26 10 10 0 19 -4 19 -10z"/>
<path d="M2331 836 c2 -50 2 -50 8 -12 9 56 31 59 32 4 l2 -43 6 39 c8 55 29
58 34 4 4 -40 4 -39 3 7 l-1 50 -42 1 -43 0 1 -50z"/>
<path d="M2461 876 c-7 -8 -11 -30 -9 -48 3 -29 6 -33 32 -33 16 0 31 6 34 13
3 11 1 11 -17 0 -18 -11 -23 -11 -31 2 -8 12 -3 16 22 20 37 6 45 21 23 44
-20 20 -39 20 -54 2z m49 -16 c0 -5 -12 -10 -26 -10 -14 0 -23 4 -19 10 3 6
15 10 26 10 10 0 19 -4 19 -10z"/>
<path d="M2780 888 c0 -4 5 -18 11 -32 9 -20 9 -29 -1 -41 -7 -8 -11 -18 -8
-20 3 -3 11 1 18 10 12 14 15 14 31 -1 20 -18 27 -6 7 14 -9 9 -9 18 1 38 14
32 7 44 -9 14 l-11 -21 -19 23 c-11 13 -19 20 -20 16z"/>
<path d="M2580 805 c0 -8 7 -15 15 -15 8 0 15 7 15 15 0 8 -7 15 -15 15 -8 0
-15 -7 -15 -15z"/>
<path d="M840 700 c0 -5 5 -10 10 -10 6 0 10 5 10 10 0 6 -4 10 -10 10 -5 0
-10 -4 -10 -10z"/>
<path d="M1060 700 c0 -5 5 -10 10 -10 6 0 10 5 10 10 0 6 -4 10 -10 10 -5 0
-10 -4 -10 -10z"/>
<path d="M2060 700 c0 -5 5 -10 10 -10 6 0 10 5 10 10 0 6 -4 10 -10 10 -5 0
-10 -4 -10 -10z"/>
<path d="M3620 700 c0 -5 5 -10 10 -10 6 0 10 5 10 10 0 6 -4 10 -10 10 -5 0
-10 -4 -10 -10z"/>
<path d="M1606 678 c-13 -14 -15 -23 -8 -26 7 -2 12 -21 12 -43 0 -21 5 -39
10 -39 6 0 10 18 10 39 0 33 4 40 23 44 l22 4 -22 8 c-13 4 -23 11 -23 15 0 5
10 11 23 13 20 4 20 4 -3 6 -15 0 -33 -8 -44 -21z"/>
<path d="M1933 693 c25 -7 25 -109 0 -116 -10 -3 2 -5 27 -5 25 0 37 2 28 5
-15 4 -18 16 -18 64 0 58 0 59 -27 58 -17 -1 -21 -3 -10 -6z"/>
<path d="M2606 678 c-13 -14 -15 -23 -8 -26 7 -2 12 -21 12 -43 0 -21 5 -39
10 -39 6 0 10 18 10 39 0 33 4 40 23 44 l22 4 -22 8 c-13 4 -23 11 -23 15 0 5
10 11 23 13 20 4 20 4 -3 6 -15 0 -33 -8 -44 -21z"/>
<path d="M2823 693 c13 -4 17 -15 17 -58 0 -43 -4 -54 -17 -58 -10 -3 2 -5 27
-5 25 0 37 2 28 5 -15 4 -18 16 -18 64 0 58 0 59 -27 58 -17 -1 -21 -3 -10 -6z"/>
<path d="M2933 693 c13 -4 17 -15 17 -58 0 -43 -4 -54 -17 -58 -10 -3 2 -5 27
-5 25 0 37 2 28 5 -15 4 -18 16 -18 64 0 58 0 59 -27 58 -17 -1 -21 -3 -10 -6z"/>
<path d="M3041 640 c-1 -64 0 -66 25 -68 15 -1 33 3 40 9 32 27 2 96 -36 84
-14 -4 -20 0 -23 17 -2 13 -5 -6 -6 -42z m57 -22 c-3 -36 -24 -44 -41 -17 -14
23 -2 49 23 49 18 0 21 -5 18 -32z"/>
<path d="M3370 635 c0 -37 4 -65 10 -65 6 0 10 9 10 20 0 26 14 25 33 -2 8
-13 18 -20 21 -17 3 3 -3 17 -14 31 -17 23 -18 27 -5 38 8 7 15 17 15 23 0 6
-11 0 -25 -13 l-25 -23 0 36 c0 20 -4 37 -10 37 -6 0 -10 -28 -10 -65z"/>
<path d="M1151 674 c-9 -11 -10 -18 -3 -23 6 -3 12 -22 14 -41 2 -29 7 -35 28
-37 14 -1 18 0 8 3 -23 7 -26 74 -3 74 8 0 15 5 15 10 0 6 -7 10 -15 10 -8 0
-15 5 -15 10 0 14 -13 12 -29 -6z"/>
<path d="M810 661 c0 -6 7 -11 15 -11 23 0 20 -67 -2 -73 -10 -3 2 -5 27 -5
25 0 37 2 28 5 -12 3 -18 17 -20 46 -2 35 -7 43 -25 45 -13 2 -23 -1 -23 -7z"/>
<path d="M922 620 c1 -52 1 -53 7 -15 5 32 11 41 29 43 20 3 22 -1 22 -37 0
-23 5 -41 10 -41 16 0 12 67 -6 84 -18 19 -30 20 -40 5 -4 -8 -9 -7 -15 2 -5
9 -8 -7 -7 -41z"/>
<path d="M1030 661 c0 -6 7 -11 15 -11 23 0 20 -67 -2 -73 -10 -3 2 -5 27 -5
25 0 37 2 28 5 -12 3 -18 17 -20 46 -2 35 -7 43 -25 45 -13 2 -23 -1 -23 -7z"/>
<path d="M1260 660 c0 -5 5 -10 10 -10 15 0 12 -67 -2 -73 -7 -3 3 -5 22 -5
19 0 27 2 17 5 -26 7 -19 55 11 68 12 5 22 13 22 17 0 12 -25 9 -38 -4 -9 -9
-12 -9 -12 0 0 7 -7 12 -15 12 -8 0 -15 -4 -15 -10z"/>
<path d="M1379 654 c-11 -13 -9 -14 14 -9 17 5 27 3 27 -4 0 -6 -6 -11 -14
-11 -8 0 -22 -7 -31 -16 -22 -22 -2 -45 36 -42 26 2 29 6 29 38 0 54 -33 78
-61 44z m39 -56 c-3 -7 -11 -13 -18 -13 -7 0 -15 6 -17 13 -3 7 4 12 17 12 13
0 20 -5 18 -12z"/>
<path d="M1471 616 c2 -50 2 -50 8 -12 9 56 31 59 32 4 l2 -43 6 39 c8 55 29
58 34 4 4 -40 4 -39 3 7 l-1 50 -42 1 -43 0 1 -50z"/>
<path d="M1710 655 c-15 -18 -6 -33 28 -46 19 -8 23 -12 13 -22 -9 -9 -16 -9
-32 2 -18 10 -20 10 -17 -1 3 -7 18 -13 34 -13 40 0 48 39 10 49 -34 8 -34 30
-1 24 28 -6 34 6 9 16 -23 9 -30 8 -44 -9z"/>
<path d="M2030 661 c0 -6 7 -11 15 -11 23 0 20 -67 -2 -73 -10 -3 2 -5 27 -5
25 0 37 2 28 5 -12 3 -18 17 -20 46 -2 35 -7 43 -25 45 -13 2 -23 -1 -23 -7z"/>
<path d="M2152 620 c1 -52 1 -53 7 -15 5 32 11 41 29 43 20 3 22 -1 22 -37 0
-23 5 -41 10 -41 16 0 12 67 -6 84 -18 19 -30 20 -40 5 -4 -8 -9 -7 -15 2 -5
9 -8 -7 -7 -41z"/>
<path d="M2264 625 l1 -50 38 -2 37 -1 0 43 c0 58 -18 68 -22 13 -2 -35 -7
-43 -23 -43 -16 0 -21 9 -26 45 l-7 45 2 -50z"/>
<path d="M2370 668 c0 -4 5 -18 11 -32 9 -20 9 -29 -1 -41 -7 -8 -11 -18 -8
-20 3 -3 11 1 18 10 12 14 15 14 31 -1 20 -18 27 -6 7 14 -9 9 -9 18 1 38 14
32 7 44 -9 14 l-11 -21 -19 23 c-11 13 -19 20 -20 16z"/>
<path d="M2709 654 c-11 -13 -9 -14 14 -9 17 5 27 3 27 -4 0 -6 -6 -11 -14
-11 -8 0 -22 -7 -31 -16 -22 -22 -2 -45 36 -42 26 2 29 6 29 38 0 54 -33 78
-61 44z m39 -56 c-3 -7 -11 -13 -18 -13 -7 0 -15 6 -17 13 -3 7 4 12 17 12 13
0 20 -5 18 -12z"/>
<path d="M3159 654 c-11 -13 -9 -14 14 -9 17 5 27 3 27 -4 0 -6 -6 -11 -14
-11 -8 0 -22 -7 -31 -16 -22 -22 -2 -45 36 -42 26 2 29 6 29 38 0 54 -33 78
-61 44z m39 -56 c-3 -7 -11 -13 -18 -13 -7 0 -15 6 -17 13 -3 7 4 12 17 12 13
0 20 -5 18 -12z"/>
<path d="M3271 656 c-7 -8 -11 -30 -9 -48 3 -29 6 -33 32 -33 16 0 31 6 34 13
3 11 1 11 -17 0 -18 -11 -23 -11 -31 2 -15 23 -7 54 14 58 10 2 22 -2 27 -10
7 -10 9 -10 9 3 0 15 -19 29 -40 29 -4 0 -13 -6 -19 -14z"/>
<path d="M3590 661 c0 -6 7 -11 15 -11 23 0 20 -67 -2 -73 -10 -3 2 -5 27 -5
25 0 37 2 28 5 -12 3 -18 17 -20 46 -2 35 -7 43 -25 45 -13 2 -23 -1 -23 -7z"/>
<path d="M3691 616 c2 -50 2 -50 8 -12 9 56 31 59 32 4 l2 -43 6 39 c8 55 29
58 34 4 4 -40 4 -39 3 7 l-1 50 -42 1 -43 0 1 -50z"/>
<path d="M3815 654 c-33 -34 -7 -92 36 -81 13 3 19 1 16 -6 -2 -7 -16 -12 -30
-12 -30 1 -36 -10 -11 -19 39 -15 69 29 62 94 -2 28 -7 33 -30 36 -16 1 -35
-4 -43 -12z m53 -30 c3 -23 -21 -49 -38 -39 -5 3 -10 20 -10 36 0 26 3 30 23
27 13 -2 23 -11 25 -24z"/>
<path d="M1823 623 c15 -2 37 -2 50 0 12 2 0 4 -28 4 -27 0 -38 -2 -22 -4z"/>
<path d="M2493 623 c15 -2 37 -2 50 0 12 2 0 4 -28 4 -27 0 -38 -2 -22 -4z"/>
<path d="M3500 585 c0 -8 7 -15 15 -15 8 0 15 7 15 15 0 8 -7 15 -15 15 -8 0
-15 -7 -15 -15z"/>
<path d="M840 480 c0 -5 5 -10 10 -10 6 0 10 5 10 10 0 6 -4 10 -10 10 -5 0
-10 -4 -10 -10z"/>
<path d="M1060 480 c0 -5 5 -10 10 -10 6 0 10 5 10 10 0 6 -4 10 -10 10 -5 0
-10 -4 -10 -10z"/>
<path d="M2060 480 c0 -5 5 -10 10 -10 6 0 10 5 10 10 0 6 -4 10 -10 10 -5 0
-10 -4 -10 -10z"/>
<path d="M2620 480 c0 -5 5 -10 10 -10 6 0 10 5 10 10 0 6 -4 10 -10 10 -5 0
-10 -4 -10 -10z"/>
<path d="M1606 458 c-13 -14 -15 -23 -8 -26 7 -2 12 -21 12 -43 0 -21 5 -39
10 -39 6 0 10 18 10 39 0 33 4 40 23 44 l22 4 -22 8 c-13 4 -23 11 -23 15 0 5
10 11 23 13 20 4 20 4 -3 6 -15 0 -33 -8 -44 -21z"/>
<path d="M1933 473 c13 -4 17 -15 17 -58 0 -43 -4 -54 -17 -58 -10 -3 2 -5 27
-5 25 0 37 2 28 5 -15 4 -18 16 -18 64 0 58 0 59 -27 58 -17 -1 -21 -3 -10 -6z"/>
<path d="M1151 454 c-9 -11 -10 -18 -3 -23 6 -3 12 -22 14 -41 2 -29 7 -35 28
-37 14 -1 18 0 8 3 -23 7 -26 74 -3 74 8 0 15 5 15 10 0 6 -7 10 -15 10 -8 0
-15 5 -15 10 0 14 -13 12 -29 -6z"/>
<path d="M810 441 c0 -6 7 -11 15 -11 23 0 20 -67 -2 -73 -10 -3 2 -5 27 -5
25 0 37 2 28 5 -12 3 -18 17 -20 46 -2 35 -7 43 -25 45 -13 2 -23 -1 -23 -7z"/>
<path d="M922 400 c1 -52 1 -53 7 -15 5 32 11 41 29 43 20 3 22 -1 22 -37 0
-23 5 -41 10 -41 16 0 12 67 -6 84 -18 19 -30 20 -40 5 -4 -8 -9 -7 -15 2 -5
9 -8 -7 -7 -41z"/>
<path d="M1030 441 c0 -6 7 -11 15 -11 23 0 20 -67 -2 -73 -10 -3 2 -5 27 -5
25 0 37 2 28 5 -12 3 -18 17 -20 46 -2 35 -7 43 -25 45 -13 2 -23 -1 -23 -7z"/>
<path d="M1260 440 c0 -5 5 -10 10 -10 15 0 12 -67 -2 -73 -7 -3 3 -5 22 -5
19 0 27 2 17 5 -26 7 -19 55 11 68 12 5 22 13 22 17 0 12 -25 9 -38 -4 -9 -9
-12 -9 -12 0 0 7 -7 12 -15 12 -8 0 -15 -4 -15 -10z"/>
<path d="M1379 434 c-11 -13 -9 -14 14 -9 17 5 27 3 27 -4 0 -6 -6 -11 -14
-11 -8 0 -22 -7 -31 -16 -22 -22 -2 -45 36 -42 26 2 29 6 29 38 0 54 -33 78
-61 44z m39 -56 c-3 -7 -11 -13 -18 -13 -7 0 -15 6 -17 13 -3 7 4 12 17 12 13
0 20 -5 18 -12z"/>
<path d="M1471 396 c2 -50 2 -50 8 -12 9 56 31 59 32 4 l2 -43 6 39 c8 55 29
58 34 4 4 -40 4 -39 3 7 l-1 50 -42 1 -43 0 1 -50z"/>
<path d="M1710 435 c-15 -18 -6 -33 28 -46 19 -8 23 -12 13 -22 -9 -9 -16 -9
-32 2 -18 10 -20 10 -17 -1 3 -7 18 -13 34 -13 40 0 48 39 10 49 -34 8 -34 30
-1 24 28 -6 34 6 9 16 -23 9 -30 8 -44 -9z"/>
<path d="M2030 441 c0 -6 7 -11 15 -11 23 0 20 -67 -2 -73 -10 -3 2 -5 27 -5
25 0 37 2 28 5 -12 3 -18 17 -20 46 -2 35 -7 43 -25 45 -13 2 -23 -1 -23 -7z"/>
<path d="M2152 400 c1 -52 1 -53 7 -15 5 32 11 41 29 43 20 3 22 -1 22 -37 0
-23 5 -41 10 -41 16 0 12 67 -6 84 -18 19 -30 20 -40 5 -4 -8 -9 -7 -15 2 -5
9 -8 -7 -7 -41z"/>
<path d="M2264 405 l1 -50 38 -2 37 -1 0 43 c0 58 -18 68 -22 13 -2 -35 -7
-43 -23 -43 -16 0 -21 9 -26 45 l-7 45 2 -50z"/>
<path d="M2370 448 c0 -4 5 -18 11 -32 9 -20 9 -29 -1 -41 -7 -8 -11 -18 -8
-20 3 -3 11 1 18 10 12 14 15 14 31 -1 20 -18 27 -6 7 14 -9 9 -9 18 1 38 14
32 7 44 -9 14 l-11 -21 -19 23 c-11 13 -19 20 -20 16z"/>
<path d="M2590 441 c0 -6 7 -11 15 -11 23 0 20 -67 -2 -73 -10 -3 2 -5 27 -5
25 0 37 2 28 5 -12 3 -18 17 -20 46 -2 35 -7 43 -25 45 -13 2 -23 -1 -23 -7z"/>
<path d="M2691 396 c2 -50 2 -50 8 -12 9 56 31 59 32 4 l2 -43 6 39 c8 55 29
58 34 4 4 -40 4 -39 3 7 l-1 50 -42 1 -43 0 1 -50z"/>
<path d="M2815 434 c-33 -34 -7 -92 36 -81 13 3 19 1 16 -6 -2 -7 -16 -12 -30
-12 -30 1 -36 -10 -11 -19 39 -15 69 29 62 94 -2 28 -7 33 -30 36 -16 1 -35
-4 -43 -12z m53 -30 c3 -23 -21 -49 -38 -39 -5 3 -10 20 -10 36 0 26 3 30 23
27 13 -2 23 -11 25 -24z"/>
<path d="M1823 403 c15 -2 37 -2 50 0 12 2 0 4 -28 4 -27 0 -38 -2 -22 -4z"/>
<path d="M2500 365 c0 -8 7 -15 15 -15 8 0 15 7 15 15 0 8 -7 15 -15 15 -8 0
-15 -7 -15 -15z"/>
<path d="M1170 270 c0 -5 5 -10 10 -10 6 0 10 5 10 10 0 6 -4 10 -10 10 -5 0
-10 -4 -10 -10z"/>
<path d="M1840 270 c0 -5 5 -10 10 -10 6 0 10 5 10 10 0 6 -4 10 -10 10 -5 0
-10 -4 -10 -10z"/>
<path d="M1043 263 c25 -7 25 -109 0 -116 -10 -3 0 -5 22 -5 22 0 32 2 23 5
-15 4 -18 16 -18 64 0 55 -2 59 -22 58 -17 -1 -19 -2 -5 -6z"/>
<path d="M1713 263 c13 -4 17 -15 17 -58 0 -43 -4 -54 -17 -58 -10 -3 0 -5 22
-5 22 0 32 2 23 5 -15 4 -18 16 -18 64 0 55 -2 59 -22 58 -17 -1 -19 -2 -5 -6z"/>
<path d="M816 210 c13 -49 24 -71 34 -65 5 3 10 11 10 17 0 6 -3 8 -7 4 -4 -4
-16 10 -25 31 -10 21 -15 27 -12 13z"/>
<path d="M871 223 c-1 -6 -4 -20 -7 -30 -5 -17 -5 -17 6 0 6 10 9 23 6 30 -3
9 -5 9 -5 0z"/>
<path d="M913 185 c0 -27 2 -38 4 -22 2 15 2 37 0 50 -2 12 -4 0 -4 -28z"/>
<path d="M948 193 c5 -59 10 -63 11 -10 1 26 -3 47 -7 47 -4 0 -6 -17 -4 -37z"/>
<path d="M988 193 c5 -59 10 -63 11 -10 1 26 -3 47 -7 47 -4 0 -6 -17 -4 -37z"/>
<path d="M1172 193 c-2 -30 -7 -43 -19 -46 -10 -3 0 -5 22 -5 22 0 32 2 23 5
-12 3 -18 17 -21 46 l-4 42 -1 -42z"/>
<path d="M1263 185 c0 -27 2 -38 4 -22 2 15 2 37 0 50 -2 12 -4 0 -4 -28z"/>
<path d="M1318 193 c5 -59 10 -63 11 -10 1 26 -3 47 -7 47 -4 0 -6 -17 -4 -37z"/>
<path d="M1374 190 c1 -40 4 -45 26 -47 22 -2 23 -2 5 6 -13 5 -22 21 -26 47
l-7 39 2 -45z"/>
<path d="M1433 185 c0 -27 2 -38 4 -22 2 15 2 37 0 50 -2 12 -4 0 -4 -28z"/>
<path d="M1525 211 c-3 -10 -14 -26 -25 -36 -29 -26 -25 -35 18 -34 30 2 32 3
10 6 -16 2 -28 7 -28 9 0 3 12 21 26 40 15 19 22 34 16 34 -6 0 -13 -8 -17
-19z"/>
<path d="M1842 193 c-2 -30 -7 -43 -19 -46 -10 -3 0 -5 22 -5 22 0 32 2 23 5
-12 3 -18 17 -21 46 l-4 42 -1 -42z"/>
<path d="M1923 185 c0 -27 2 -38 4 -22 2 15 2 37 0 50 -2 12 -4 0 -4 -28z"/>
<path d="M1978 193 c5 -59 10 -63 11 -10 1 26 -3 47 -7 47 -4 0 -6 -17 -4 -37z"/>
<path d="M2034 190 c1 -40 4 -45 26 -47 22 -2 23 -2 5 6 -13 5 -22 21 -26 47
l-7 39 2 -45z"/>
<path d="M2093 185 c0 -27 2 -38 4 -22 2 15 2 37 0 50 -2 12 -4 0 -4 -28z"/>
<path d="M2164 209 c13 -19 13 -25 0 -48 l-16 -26 18 23 18 24 19 -24 19 -23
-15 26 c-14 24 -14 29 0 50 l17 24 -22 -19 c-20 -17 -22 -17 -28 -2 -3 9 -10
16 -16 16 -5 0 -2 -10 6 -21z"/>
<path d="M1603 193 c15 -2 37 -2 50 0 12 2 0 4 -28 4 -27 0 -38 -2 -22 -4z"/>
</g>
</svg>
