<?xml version="1.0" encoding="UTF-8" standalone="no"?>
<!-- Created with Inkscape (http://www.inkscape.org/) -->

<svg
   version="1.1"
   id="svg1"
   width="189.33333"
   height="378.66666"
   viewBox="0 0 189.33333 378.66666"
   sodipodi:docname="hs_hannover_logo.svg"
   inkscape:version="1.4 (e7c3feb100, 2024-10-09)"
   xmlns:inkscape="http://www.inkscape.org/namespaces/inkscape"
   xmlns:sodipodi="http://sodipodi.sourceforge.net/DTD/sodipodi-0.dtd"
   xmlns="http://www.w3.org/2000/svg"
   xmlns:svg="http://www.w3.org/2000/svg">
  <defs
     id="defs1">
    <clipPath
       clipPathUnits="userSpaceOnUse"
       id="clipPath2">
      <path
         d="M 0,2834.64 V 0 h 1417.32 v 2834.64 z"
         transform="translate(0,2.5000001e-5)"
         id="path2" />
    </clipPath>
    <clipPath
       clipPathUnits="userSpaceOnUse"
       id="clipPath4">
      <path
         d="M 0,2834.64 V 0 h 1417.32 v 2834.64 z"
         transform="translate(0,2.5000001e-5)"
         id="path4" />
    </clipPath>
  </defs>
  <sodipodi:namedview
     id="namedview1"
     pagecolor="#ffffff"
     bordercolor="#666666"
     borderopacity="1.0"
     inkscape:showpageshadow="2"
     inkscape:pageopacity="0.0"
     inkscape:pagecheckerboard="0"
     inkscape:deskcolor="#d1d1d1"
     inkscape:zoom="3.0396128"
     inkscape:cx="94.584416"
     inkscape:cy="189.33333"
     inkscape:window-width="2560"
     inkscape:window-height="1360"
     inkscape:window-x="0"
     inkscape:window-y="0"
     inkscape:window-maximized="1"
     inkscape:current-layer="g1">
    <inkscape:page
       x="0"
       y="0"
       inkscape:label="1"
       id="page1"
       width="189.33333"
       height="378.66666"
       margin="0"
       bleed="0" />
  </sodipodi:namedview>
  <g
     id="g1"
     inkscape:groupmode="layer"
     inkscape:label="1">
    <path
       id="path1"
       d="m 241.797,654.141 c 44.34,0 82.344,37.988 82.344,82.289 v 894.88 H 1093.18 V 736.43 c 0,-44.301 38.01,-82.289 82.37,-82.289 h 159.43 c 44.34,0 82.34,37.988 82.34,82.289 v 2015.93 c 0,44.31 -38,82.28 -82.34,82.28 h -159.43 c -44.36,0 -82.37,-37.97 -82.37,-82.28 V 1936.73 H 324.141 v 815.63 c 0,44.31 -38.004,82.28 -82.344,82.28 H 82.3477 C 38.0078,2834.64 0,2796.67 0,2752.36 V 736.43 C 0,692.129 38.0078,654.141 82.3477,654.141 H 241.797"
       style="fill:#f36018;fill-opacity:1;fill-rule:nonzero;stroke:none"
       transform="matrix(0.13333333,0,0,-0.13333333,0,378.66667)"
       clip-path="url(#clipPath2)" />
    <path
       id="path3"
       d="m 1335.41,0 c 44.1,0 81.91,38.3398 81.91,83.0781 V 243.98 c 0,44.75 -37.81,83.09 -81.91,83.09 H 81.9219 C 37.8164,327.07 0.00390625,288.73 0.00390625,243.98 V 83.0781 C 0.00390625,38.3398 37.8164,0 81.9219,0 H 1335.41"
       style="fill:#f36018;fill-opacity:1;fill-rule:nonzero;stroke:none"
       transform="matrix(0.13333333,0,0,-0.13333333,0,378.66667)"
       clip-path="url(#clipPath4)" />
  </g>
</svg>
