<?xml version="1.0" encoding="UTF-8" standalone="no"?>
<!-- Created with Inkscape (http://www.inkscape.org/) -->

<svg
   version="1.1"
   id="svg1"
   width="108"
   height="146.66667"
   viewBox="0 0 108 146.66667"
   sodipodi:docname="wordmark_hs_hannover.svg"
   inkscape:version="1.4 (e7c3feb100, 2024-10-09)"
   xmlns:inkscape="http://www.inkscape.org/namespaces/inkscape"
   xmlns:sodipodi="http://sodipodi.sourceforge.net/DTD/sodipodi-0.dtd"
   xmlns="http://www.w3.org/2000/svg"
   xmlns:svg="http://www.w3.org/2000/svg">
  <defs
     id="defs1">
    <clipPath
       clipPathUnits="userSpaceOnUse"
       id="clipPath2">
      <path
         d="M 0,1091.5 V 0 h 802.289 v 1091.5 z"
         transform="translate(0,2.5000001e-5)"
         id="path2" />
    </clipPath>
    <clipPath
       clipPathUnits="userSpaceOnUse"
       id="clipPath4">
      <path
         d="M 0,1091.5 V 0 h 802.289 v 1091.5 z"
         transform="translate(0,2.5000001e-5)"
         id="path4" />
    </clipPath>
    <clipPath
       clipPathUnits="userSpaceOnUse"
       id="clipPath6">
      <path
         d="M 0,1091.5 V 0 h 802.289 v 1091.5 z"
         transform="translate(0,2.5000001e-5)"
         id="path6" />
    </clipPath>
    <clipPath
       clipPathUnits="userSpaceOnUse"
       id="clipPath8">
      <path
         d="M 0,1091.5 V 0 h 802.289 v 1091.5 z"
         transform="translate(0,2.5000001e-5)"
         id="path8" />
    </clipPath>
    <clipPath
       clipPathUnits="userSpaceOnUse"
       id="clipPath10">
      <path
         d="M 0,1091.5 V 0 h 802.289 v 1091.5 z"
         transform="translate(0,2.5000001e-5)"
         id="path10" />
    </clipPath>
    <clipPath
       clipPathUnits="userSpaceOnUse"
       id="clipPath12">
      <path
         d="M 0,1091.5 V 0 h 802.289 v 1091.5 z"
         transform="translate(0,2.5000001e-5)"
         id="path12" />
    </clipPath>
    <clipPath
       clipPathUnits="userSpaceOnUse"
       id="clipPath14">
      <path
         d="M 0,1091.5 V 0 h 802.289 v 1091.5 z"
         transform="translate(0,2.5000001e-5)"
         id="path14" />
    </clipPath>
    <clipPath
       clipPathUnits="userSpaceOnUse"
       id="clipPath16">
      <path
         d="M 0,1091.5 V 0 h 802.289 v 1091.5 z"
         transform="translate(0,2.5000001e-5)"
         id="path16" />
    </clipPath>
    <clipPath
       clipPathUnits="userSpaceOnUse"
       id="clipPath18">
      <path
         d="M 0,1091.5 V 0 h 802.289 v 1091.5 z"
         transform="translate(0,2.5000001e-5)"
         id="path18" />
    </clipPath>
    <clipPath
       clipPathUnits="userSpaceOnUse"
       id="clipPath20">
      <path
         d="M 0,1091.5 V 0 h 802.289 v 1091.5 z"
         transform="translate(0,2.5000001e-5)"
         id="path20" />
    </clipPath>
    <clipPath
       clipPathUnits="userSpaceOnUse"
       id="clipPath22">
      <path
         d="M 0,1091.5 V 0 h 802.289 v 1091.5 z"
         transform="translate(0,2.5000001e-5)"
         id="path22" />
    </clipPath>
    <clipPath
       clipPathUnits="userSpaceOnUse"
       id="clipPath24">
      <path
         d="M 0,1091.5 V 0 h 802.289 v 1091.5 z"
         transform="translate(0,2.5000001e-5)"
         id="path24" />
    </clipPath>
    <clipPath
       clipPathUnits="userSpaceOnUse"
       id="clipPath26">
      <path
         d="M 0,1091.5 V 0 h 802.289 v 1091.5 z"
         transform="translate(0,2.5000001e-5)"
         id="path26" />
    </clipPath>
    <clipPath
       clipPathUnits="userSpaceOnUse"
       id="clipPath28">
      <path
         d="M 0,1091.5 V 0 h 802.289 v 1091.5 z"
         transform="translate(0,2.5000001e-5)"
         id="path28" />
    </clipPath>
    <clipPath
       clipPathUnits="userSpaceOnUse"
       id="clipPath30">
      <path
         d="M 0,1091.5 V 0 h 802.289 v 1091.5 z"
         transform="translate(0,2.5000001e-5)"
         id="path30" />
    </clipPath>
    <clipPath
       clipPathUnits="userSpaceOnUse"
       id="clipPath32">
      <path
         d="M 0,1091.5 V 0 h 802.289 v 1091.5 z"
         transform="translate(0,2.5000001e-5)"
         id="path32" />
    </clipPath>
    <clipPath
       clipPathUnits="userSpaceOnUse"
       id="clipPath34">
      <path
         d="M 0,1091.5 V 0 h 802.289 v 1091.5 z"
         transform="translate(0,2.5000001e-5)"
         id="path34" />
    </clipPath>
    <clipPath
       clipPathUnits="userSpaceOnUse"
       id="clipPath36">
      <path
         d="M 0,1091.5 V 0 h 802.289 v 1091.5 z"
         transform="translate(0,2.5000001e-5)"
         id="path36" />
    </clipPath>
    <clipPath
       clipPathUnits="userSpaceOnUse"
       id="clipPath38">
      <path
         d="M 0,1091.5 V 0 h 802.289 v 1091.5 z"
         transform="translate(0,2.5000001e-5)"
         id="path38" />
    </clipPath>
    <clipPath
       clipPathUnits="userSpaceOnUse"
       id="clipPath40">
      <path
         d="M 0,1091.5 V 0 h 802.289 v 1091.5 z"
         transform="translate(0,2.5000001e-5)"
         id="path40" />
    </clipPath>
    <clipPath
       clipPathUnits="userSpaceOnUse"
       id="clipPath42">
      <path
         d="M 0,1091.5 V 0 h 802.289 v 1091.5 z"
         transform="translate(0,2.5000001e-5)"
         id="path42" />
    </clipPath>
    <clipPath
       clipPathUnits="userSpaceOnUse"
       id="clipPath44">
      <path
         d="M 0,1091.5 V 0 h 802.289 v 1091.5 z"
         transform="translate(0,2.5000001e-5)"
         id="path44" />
    </clipPath>
    <clipPath
       clipPathUnits="userSpaceOnUse"
       id="clipPath46">
      <path
         d="M 0,1091.5 V 0 h 802.289 v 1091.5 z"
         transform="translate(0,2.5000001e-5)"
         id="path46" />
    </clipPath>
    <clipPath
       clipPathUnits="userSpaceOnUse"
       id="clipPath48">
      <path
         d="M 0,1091.5 V 0 h 802.289 v 1091.5 z"
         transform="translate(0,2.5000001e-5)"
         id="path48" />
    </clipPath>
    <clipPath
       clipPathUnits="userSpaceOnUse"
       id="clipPath50">
      <path
         d="M 0,1091.5 V 0 h 802.289 v 1091.5 z"
         transform="translate(0,2.5000001e-5)"
         id="path50" />
    </clipPath>
    <clipPath
       clipPathUnits="userSpaceOnUse"
       id="clipPath52">
      <path
         d="M 0,1091.5 V 0 h 802.289 v 1091.5 z"
         transform="translate(0,2.5000001e-5)"
         id="path52" />
    </clipPath>
    <clipPath
       clipPathUnits="userSpaceOnUse"
       id="clipPath54">
      <path
         d="M 0,1091.5 V 0 h 802.289 v 1091.5 z"
         transform="translate(0,2.5000001e-5)"
         id="path54" />
    </clipPath>
    <clipPath
       clipPathUnits="userSpaceOnUse"
       id="clipPath56">
      <path
         d="M 0,1091.5 V 0 h 802.289 v 1091.5 z"
         transform="translate(0,2.5000001e-5)"
         id="path56" />
    </clipPath>
    <clipPath
       clipPathUnits="userSpaceOnUse"
       id="clipPath58">
      <path
         d="M 0,1091.5 V 0 h 802.289 v 1091.5 z"
         transform="translate(0,2.5000001e-5)"
         id="path58" />
    </clipPath>
    <clipPath
       clipPathUnits="userSpaceOnUse"
       id="clipPath60">
      <path
         d="M 0,1091.5 V 0 h 802.289 v 1091.5 z"
         transform="translate(0,2.5000001e-5)"
         id="path60" />
    </clipPath>
    <clipPath
       clipPathUnits="userSpaceOnUse"
       id="clipPath62">
      <path
         d="M 0,1091.5 V 0 h 802.289 v 1091.5 z"
         transform="translate(0,2.5000001e-5)"
         id="path62" />
    </clipPath>
    <clipPath
       clipPathUnits="userSpaceOnUse"
       id="clipPath64">
      <path
         d="M 0,1091.5 V 0 h 802.289 v 1091.5 z"
         transform="translate(0,2.5000001e-5)"
         id="path64" />
    </clipPath>
    <clipPath
       clipPathUnits="userSpaceOnUse"
       id="clipPath66">
      <path
         d="M 0,1091.5 V 0 h 802.289 v 1091.5 z"
         transform="translate(0,2.5000001e-5)"
         id="path66" />
    </clipPath>
    <clipPath
       clipPathUnits="userSpaceOnUse"
       id="clipPath68">
      <path
         d="M 0,1091.5 V 0 h 802.289 v 1091.5 z"
         transform="translate(0,2.5000001e-5)"
         id="path68" />
    </clipPath>
    <clipPath
       clipPathUnits="userSpaceOnUse"
       id="clipPath70">
      <path
         d="M 0,1091.5 V 0 h 802.289 v 1091.5 z"
         transform="translate(0,2.5000001e-5)"
         id="path70" />
    </clipPath>
    <clipPath
       clipPathUnits="userSpaceOnUse"
       id="clipPath72">
      <path
         d="M 0,1091.5 V 0 h 802.289 v 1091.5 z"
         transform="translate(0,2.5000001e-5)"
         id="path72" />
    </clipPath>
    <clipPath
       clipPathUnits="userSpaceOnUse"
       id="clipPath74">
      <path
         d="M 0,1091.5 V 0 h 802.289 v 1091.5 z"
         transform="translate(0,2.5000001e-5)"
         id="path74" />
    </clipPath>
    <clipPath
       clipPathUnits="userSpaceOnUse"
       id="clipPath76">
      <path
         d="M 0,1091.5 V 0 h 802.289 v 1091.5 z"
         transform="translate(0,2.5000001e-5)"
         id="path76" />
    </clipPath>
    <clipPath
       clipPathUnits="userSpaceOnUse"
       id="clipPath78">
      <path
         d="M 0,1091.5 V 0 h 802.289 v 1091.5 z"
         transform="translate(0,2.5000001e-5)"
         id="path78" />
    </clipPath>
    <clipPath
       clipPathUnits="userSpaceOnUse"
       id="clipPath80">
      <path
         d="M 0,1091.5 V 0 h 802.289 v 1091.5 z"
         transform="translate(0,2.5000001e-5)"
         id="path80" />
    </clipPath>
    <clipPath
       clipPathUnits="userSpaceOnUse"
       id="clipPath82">
      <path
         d="M 0,1091.5 V 0 h 802.289 v 1091.5 z"
         transform="translate(0,2.5000001e-5)"
         id="path82" />
    </clipPath>
    <clipPath
       clipPathUnits="userSpaceOnUse"
       id="clipPath84">
      <path
         d="M 0,1091.5 V 0 h 802.289 v 1091.5 z"
         transform="translate(0,2.5000001e-5)"
         id="path84" />
    </clipPath>
    <clipPath
       clipPathUnits="userSpaceOnUse"
       id="clipPath86">
      <path
         d="M 0,1091.5 V 0 h 802.289 v 1091.5 z"
         transform="translate(0,2.5000001e-5)"
         id="path86" />
    </clipPath>
    <clipPath
       clipPathUnits="userSpaceOnUse"
       id="clipPath88">
      <path
         d="M 0,1091.5 V 0 h 802.289 v 1091.5 z"
         transform="translate(0,2.5000001e-5)"
         id="path88" />
    </clipPath>
    <clipPath
       clipPathUnits="userSpaceOnUse"
       id="clipPath90">
      <path
         d="M 0,1091.5 V 0 h 802.289 v 1091.5 z"
         transform="translate(0,2.5000001e-5)"
         id="path90" />
    </clipPath>
    <clipPath
       clipPathUnits="userSpaceOnUse"
       id="clipPath92">
      <path
         d="M 0,1091.5 V 0 h 802.289 v 1091.5 z"
         transform="translate(0,2.5000001e-5)"
         id="path92" />
    </clipPath>
    <clipPath
       clipPathUnits="userSpaceOnUse"
       id="clipPath94">
      <path
         d="M 0,1091.5 V 0 h 802.289 v 1091.5 z"
         transform="translate(0,2.5000001e-5)"
         id="path94" />
    </clipPath>
    <clipPath
       clipPathUnits="userSpaceOnUse"
       id="clipPath96">
      <path
         d="M 0,1091.5 V 0 h 802.289 v 1091.5 z"
         transform="translate(0,2.5000001e-5)"
         id="path96" />
    </clipPath>
    <clipPath
       clipPathUnits="userSpaceOnUse"
       id="clipPath98">
      <path
         d="M 0,1091.5 V 0 h 802.289 v 1091.5 z"
         transform="translate(0,2.5000001e-5)"
         id="path98" />
    </clipPath>
    <clipPath
       clipPathUnits="userSpaceOnUse"
       id="clipPath100">
      <path
         d="M 0,1091.5 V 0 h 802.289 v 1091.5 z"
         transform="translate(0,2.5000001e-5)"
         id="path100" />
    </clipPath>
    <clipPath
       clipPathUnits="userSpaceOnUse"
       id="clipPath102">
      <path
         d="M 0,1091.5 V 0 h 802.289 v 1091.5 z"
         transform="translate(0,2.5000001e-5)"
         id="path102" />
    </clipPath>
    <clipPath
       clipPathUnits="userSpaceOnUse"
       id="clipPath104">
      <path
         d="M 0,1091.5 V 0 h 802.289 v 1091.5 z"
         transform="translate(0,2.5000001e-5)"
         id="path104" />
    </clipPath>
    <clipPath
       clipPathUnits="userSpaceOnUse"
       id="clipPath106">
      <path
         d="M 0,1091.5 V 0 h 802.289 v 1091.5 z"
         transform="translate(0,2.5000001e-5)"
         id="path106" />
    </clipPath>
    <clipPath
       clipPathUnits="userSpaceOnUse"
       id="clipPath108">
      <path
         d="M 0,1091.5 V 0 h 802.289 v 1091.5 z"
         transform="translate(0,2.5000001e-5)"
         id="path108" />
    </clipPath>
    <clipPath
       clipPathUnits="userSpaceOnUse"
       id="clipPath110">
      <path
         d="M 0,1091.5 V 0 h 802.289 v 1091.5 z"
         transform="translate(0,2.5000001e-5)"
         id="path110" />
    </clipPath>
    <clipPath
       clipPathUnits="userSpaceOnUse"
       id="clipPath112">
      <path
         d="M 0,1091.5 V 0 h 802.289 v 1091.5 z"
         transform="translate(0,2.5000001e-5)"
         id="path112" />
    </clipPath>
    <clipPath
       clipPathUnits="userSpaceOnUse"
       id="clipPath114">
      <path
         d="M 0,1091.5 V 0 h 802.289 v 1091.5 z"
         transform="translate(0,2.5000001e-5)"
         id="path114" />
    </clipPath>
    <clipPath
       clipPathUnits="userSpaceOnUse"
       id="clipPath116">
      <path
         d="M 0,1091.5 V 0 h 802.289 v 1091.5 z"
         transform="translate(0,2.5000001e-5)"
         id="path116" />
    </clipPath>
    <clipPath
       clipPathUnits="userSpaceOnUse"
       id="clipPath118">
      <path
         d="M 0,1091.5 V 0 h 802.289 v 1091.5 z"
         transform="translate(0,2.5000001e-5)"
         id="path118" />
    </clipPath>
    <clipPath
       clipPathUnits="userSpaceOnUse"
       id="clipPath120">
      <path
         d="M 0,1091.5 V 0 h 802.289 v 1091.5 z"
         transform="translate(0,2.5000001e-5)"
         id="path120" />
    </clipPath>
    <clipPath
       clipPathUnits="userSpaceOnUse"
       id="clipPath122">
      <path
         d="M 0,1091.5 V 0 h 802.289 v 1091.5 z"
         transform="translate(0,2.5000001e-5)"
         id="path122" />
    </clipPath>
    <clipPath
       clipPathUnits="userSpaceOnUse"
       id="clipPath124">
      <path
         d="M 0,1091.5 V 0 h 802.289 v 1091.5 z"
         transform="translate(0,2.5000001e-5)"
         id="path124" />
    </clipPath>
    <clipPath
       clipPathUnits="userSpaceOnUse"
       id="clipPath126">
      <path
         d="M 0,1091.5 V 0 h 802.289 v 1091.5 z"
         transform="translate(0,2.5000001e-5)"
         id="path126" />
    </clipPath>
    <clipPath
       clipPathUnits="userSpaceOnUse"
       id="clipPath128">
      <path
         d="M 0,1091.5 V 0 h 802.289 v 1091.5 z"
         transform="translate(0,2.5000001e-5)"
         id="path128" />
    </clipPath>
    <clipPath
       clipPathUnits="userSpaceOnUse"
       id="clipPath130">
      <path
         d="M 0,1091.5 V 0 h 802.289 v 1091.5 z"
         transform="translate(0,2.5000001e-5)"
         id="path130" />
    </clipPath>
    <clipPath
       clipPathUnits="userSpaceOnUse"
       id="clipPath132">
      <path
         d="M 0,1091.5 V 0 h 802.289 v 1091.5 z"
         transform="translate(0,2.5000001e-5)"
         id="path132" />
    </clipPath>
    <clipPath
       clipPathUnits="userSpaceOnUse"
       id="clipPath134">
      <path
         d="M 0,1091.5 V 0 h 802.289 v 1091.5 z"
         transform="translate(0,2.5000001e-5)"
         id="path134" />
    </clipPath>
    <clipPath
       clipPathUnits="userSpaceOnUse"
       id="clipPath136">
      <path
         d="M 0,1091.5 V 0 h 802.289 v 1091.5 z"
         transform="translate(0,2.5000001e-5)"
         id="path136" />
    </clipPath>
    <clipPath
       clipPathUnits="userSpaceOnUse"
       id="clipPath138">
      <path
         d="M 0,1091.5 V 0 h 802.289 v 1091.5 z"
         transform="translate(0,2.5000001e-5)"
         id="path138" />
    </clipPath>
    <clipPath
       clipPathUnits="userSpaceOnUse"
       id="clipPath140">
      <path
         d="M 0,1091.5 V 0 h 802.289 v 1091.5 z"
         transform="translate(0,2.5000001e-5)"
         id="path140" />
    </clipPath>
    <clipPath
       clipPathUnits="userSpaceOnUse"
       id="clipPath142">
      <path
         d="M 0,1091.5 V 0 h 802.289 v 1091.5 z"
         transform="translate(0,2.5000001e-5)"
         id="path142" />
    </clipPath>
    <clipPath
       clipPathUnits="userSpaceOnUse"
       id="clipPath144">
      <path
         d="M 0,1091.5 V 0 h 802.289 v 1091.5 z"
         transform="translate(0,2.5000001e-5)"
         id="path144" />
    </clipPath>
    <clipPath
       clipPathUnits="userSpaceOnUse"
       id="clipPath146">
      <path
         d="M 0,1091.5 V 0 h 802.289 v 1091.5 z"
         transform="translate(0,2.5000001e-5)"
         id="path146" />
    </clipPath>
    <clipPath
       clipPathUnits="userSpaceOnUse"
       id="clipPath148">
      <path
         d="M 0,1091.5 V 0 h 802.289 v 1091.5 z"
         transform="translate(0,2.5000001e-5)"
         id="path148" />
    </clipPath>
    <clipPath
       clipPathUnits="userSpaceOnUse"
       id="clipPath150">
      <path
         d="M 0,1091.5 V 0 h 802.289 v 1091.5 z"
         transform="translate(0,2.5000001e-5)"
         id="path150" />
    </clipPath>
    <clipPath
       clipPathUnits="userSpaceOnUse"
       id="clipPath152">
      <path
         d="M 0,1091.5 V 0 h 802.289 v 1091.5 z"
         transform="translate(0,2.5000001e-5)"
         id="path152" />
    </clipPath>
    <clipPath
       clipPathUnits="userSpaceOnUse"
       id="clipPath154">
      <path
         d="M 0,1091.5 V 0 h 802.289 v 1091.5 z"
         transform="translate(0,2.5000001e-5)"
         id="path154" />
    </clipPath>
    <clipPath
       clipPathUnits="userSpaceOnUse"
       id="clipPath156">
      <path
         d="M 0,1091.5 V 0 h 802.289 v 1091.5 z"
         transform="translate(0,2.5000001e-5)"
         id="path156" />
    </clipPath>
    <clipPath
       clipPathUnits="userSpaceOnUse"
       id="clipPath158">
      <path
         d="M 0,1091.5 V 0 h 802.289 v 1091.5 z"
         transform="translate(0,2.5000001e-5)"
         id="path158" />
    </clipPath>
    <clipPath
       clipPathUnits="userSpaceOnUse"
       id="clipPath160">
      <path
         d="M 0,1091.5 V 0 h 802.289 v 1091.5 z"
         transform="translate(0,2.5000001e-5)"
         id="path160" />
    </clipPath>
    <clipPath
       clipPathUnits="userSpaceOnUse"
       id="clipPath162">
      <path
         d="M 0,1091.5 V 0 h 802.289 v 1091.5 z"
         transform="translate(0,2.5000001e-5)"
         id="path162" />
    </clipPath>
    <clipPath
       clipPathUnits="userSpaceOnUse"
       id="clipPath164">
      <path
         d="M 0,1091.5 V 0 h 802.289 v 1091.5 z"
         transform="translate(0,2.5000001e-5)"
         id="path164" />
    </clipPath>
    <clipPath
       clipPathUnits="userSpaceOnUse"
       id="clipPath166">
      <path
         d="M 0,1091.5 V 0 h 802.289 v 1091.5 z"
         transform="translate(0,2.5000001e-5)"
         id="path166" />
    </clipPath>
    <clipPath
       clipPathUnits="userSpaceOnUse"
       id="clipPath168">
      <path
         d="M 0,1091.5 V 0 h 802.289 v 1091.5 z"
         transform="translate(0,2.5000001e-5)"
         id="path168" />
    </clipPath>
    <clipPath
       clipPathUnits="userSpaceOnUse"
       id="clipPath170">
      <path
         d="M 0,1091.5 V 0 h 802.289 v 1091.5 z"
         transform="translate(0,2.5000001e-5)"
         id="path170" />
    </clipPath>
    <clipPath
       clipPathUnits="userSpaceOnUse"
       id="clipPath172">
      <path
         d="M 0,1091.5 V 0 h 802.289 v 1091.5 z"
         transform="translate(0,2.5000001e-5)"
         id="path172" />
    </clipPath>
  </defs>
  <sodipodi:namedview
     id="namedview1"
     pagecolor="#ffffff"
     bordercolor="#666666"
     borderopacity="1.0"
     inkscape:showpageshadow="2"
     inkscape:pageopacity="0.0"
     inkscape:pagecheckerboard="0"
     inkscape:deskcolor="#d1d1d1"
     inkscape:zoom="7.8477269"
     inkscape:cx="53.964671"
     inkscape:cy="73.333337"
     inkscape:window-width="2560"
     inkscape:window-height="1360"
     inkscape:window-x="0"
     inkscape:window-y="0"
     inkscape:window-maximized="1"
     inkscape:current-layer="g1">
    <inkscape:page
       x="0"
       y="0"
       inkscape:label="1"
       id="page1"
       width="108"
       height="146.66667"
       margin="0"
       bleed="0" />
  </sodipodi:namedview>
  <g
     id="g1"
     inkscape:groupmode="layer"
     inkscape:label="1">
    <path
       id="path1"
       d="m 9.5,1090.2 h 12.1016 v -27.3 h 20.6015 v 27.3 H 54.3008 V 1021 H 42.2031 v 31.4 H 21.6016 V 1021 H 9.5 v 69.2"
       style="fill:#808080;fill-opacity:1;fill-rule:nonzero;stroke:none"
       transform="matrix(0.13333333,0,0,-0.13333333,0,146.66667)"
       clip-path="url(#clipPath2)" />
    <path
       id="path3"
       d="m 97.0078,1029.4 c 2.4649,0 4.5622,0.48 6.2972,1.45 1.734,0.97 3.117,2.5 4.152,4.6 1.027,2.1 1.781,4.8 2.25,8.1 0.465,3.3 0.699,7.29 0.699,11.95 0,4.67 -0.234,8.67 -0.699,12 -0.469,3.34 -1.223,6.05 -2.25,8.15 -1.035,2.1 -2.418,3.64 -4.152,4.6 -1.735,0.97 -3.8323,1.45 -6.2972,1.45 -2.5351,0 -4.6562,-0.48 -6.3516,-1.45 -1.6992,-0.96 -3.0859,-2.48 -4.1523,-4.55 -1.0625,-2.07 -1.8359,-4.75 -2.3008,-8.05 -0.4687,-3.3 -0.6953,-7.25 -0.6953,-11.85 0,-4.73 0.2266,-8.76 0.6953,-12.1 0.4649,-3.33 1.2383,-6.05 2.3008,-8.15 1.0664,-2.1 2.4531,-3.65 4.1523,-4.64 1.6954,-1.01 3.8165,-1.51 6.3516,-1.51 z m 0.0977,-9.7 c -8.8672,0 -15.5313,2.87 -20,8.6 -4.4688,5.74 -6.6993,14.77 -6.6993,27.1 0,12.21 2.25,21.27 6.7461,27.21 4.5039,5.93 11.1211,8.89 19.8555,8.89 8.6602,0 15.2502,-2.95 19.7462,-8.85 4.5,-5.9 6.754,-14.88 6.754,-26.95 0,-12.33 -2.192,-21.41 -6.555,-27.25 -4.363,-5.83 -10.98,-8.75 -19.8475,-8.75"
       style="fill:#808080;fill-opacity:1;fill-rule:nonzero;stroke:none"
       transform="matrix(0.13333333,0,0,-0.13333333,0,146.66667)"
       clip-path="url(#clipPath4)" />
    <path
       id="path5"
       d="m 164.199,1019.7 c -9.465,0 -16.394,2.93 -20.797,8.8 -4.402,5.87 -6.601,14.84 -6.601,26.9 0,12.27 2.23,21.35 6.699,27.25 4.469,5.9 11.301,8.85 20.5,8.85 3.664,0 6.969,-0.46 9.902,-1.39 2.934,-0.94 5.368,-2.28 7.297,-4.01 L 176,1077 c -1.602,1.34 -3.348,2.39 -5.246,3.15 -1.902,0.77 -4.02,1.15 -6.356,1.15 -2.867,0 -5.234,-0.43 -7.097,-1.3 -1.867,-0.86 -3.336,-2.3 -4.403,-4.3 -1.062,-2 -1.793,-4.6 -2.195,-7.8 -0.398,-3.2 -0.601,-7.13 -0.601,-11.8 0,-4.86 0.23,-8.96 0.699,-12.3 0.465,-3.33 1.265,-6.03 2.402,-8.1 1.133,-2.07 2.613,-3.54 4.449,-4.45 1.828,-0.9 4.149,-1.35 6.95,-1.35 2.601,0 4.878,0.49 6.847,1.46 1.969,0.96 3.785,2.14 5.449,3.54 l 5.403,-8.8 c -2.199,-1.8 -4.75,-3.31 -7.649,-4.55 -2.898,-1.23 -6.386,-1.85 -10.453,-1.85"
       style="fill:#808080;fill-opacity:1;fill-rule:nonzero;stroke:none"
       transform="matrix(0.13333333,0,0,-0.13333333,0,146.66667)"
       clip-path="url(#clipPath6)" />
    <path
       id="path7"
       d="M 196.402,1090.2 H 208.5 v -27.3 h 20.602 v 27.3 h 12.097 V 1021 h -12.097 v 31.4 H 208.5 V 1021 h -12.098 v 69.2"
       style="fill:#808080;fill-opacity:1;fill-rule:nonzero;stroke:none"
       transform="matrix(0.13333333,0,0,-0.13333333,0,146.66667)"
       clip-path="url(#clipPath8)" />
    <path
       id="path9"
       d="m 277.102,1019.7 c -4.403,0 -8.489,0.64 -12.254,1.9 -3.762,1.27 -6.852,2.87 -9.246,4.8 l 4.496,9.1 c 2.535,-1.87 5.035,-3.25 7.5,-4.14 2.464,-0.91 5.3,-1.36 8.5,-1.36 4,0 6.886,0.87 8.652,2.61 1.766,1.73 2.648,4.09 2.648,7.09 0,1.74 -0.234,3.2 -0.699,4.4 -0.469,1.2 -1.187,2.22 -2.148,3.06 -0.965,0.82 -2.153,1.56 -3.551,2.19 -1.398,0.64 -3.004,1.29 -4.801,1.95 -2.871,1 -5.398,2.07 -7.601,3.2 -2.196,1.14 -4.047,2.5 -5.551,4.1 -1.5,1.6 -2.633,3.52 -3.399,5.75 -0.765,2.23 -1.148,4.92 -1.148,8.05 0,6.47 1.883,11.27 5.648,14.4 3.766,3.13 8.75,4.7 14.954,4.7 4,0 7.347,-0.41 10.046,-1.25 2.704,-0.83 5.25,-2.02 7.649,-3.55 l -4.496,-9.2 c -2.067,1.34 -4.02,2.3 -5.852,2.9 -1.836,0.6 -3.984,0.9 -6.449,0.9 -3.004,0 -5.316,-0.66 -6.953,-2 -1.633,-1.33 -2.445,-3.39 -2.445,-6.2 0,-1.46 0.144,-2.7 0.449,-3.7 0.297,-0.99 0.812,-1.88 1.547,-2.65 0.73,-0.77 1.718,-1.46 2.949,-2.09 1.234,-0.64 2.754,-1.25 4.551,-1.86 2.734,-0.93 5.3,-1.93 7.699,-3 2.402,-1.06 4.504,-2.42 6.305,-4.05 1.796,-1.63 3.21,-3.65 4.25,-6.05 1.027,-2.4 1.546,-5.43 1.546,-9.1 0,-2.93 -0.382,-5.67 -1.148,-8.2 -0.766,-2.53 -2.035,-4.75 -3.801,-6.65 -1.765,-1.89 -4.121,-3.38 -7.051,-4.45 -2.933,-1.07 -6.531,-1.6 -10.796,-1.6"
       style="fill:#808080;fill-opacity:1;fill-rule:nonzero;stroke:none"
       transform="matrix(0.13333333,0,0,-0.13333333,0,146.66667)"
       clip-path="url(#clipPath10)" />
    <path
       id="path11"
       d="m 340.395,1019.7 c -9.461,0 -16.395,2.93 -20.793,8.8 -4.407,5.87 -6.606,14.84 -6.606,26.9 0,12.27 2.234,21.35 6.699,27.25 4.469,5.9 11.301,8.85 20.5,8.85 3.668,0 6.969,-0.46 9.903,-1.39 2.933,-0.94 5.367,-2.28 7.3,-4.01 l -5.203,-9.1 c -1.597,1.34 -3.347,2.39 -5.246,3.15 -1.898,0.77 -4.019,1.15 -6.351,1.15 -2.868,0 -5.239,-0.43 -7.102,-1.3 -1.863,-0.86 -3.336,-2.3 -4.398,-4.3 -1.067,-2 -1.797,-4.6 -2.2,-7.8 -0.398,-3.2 -0.597,-7.13 -0.597,-11.8 0,-4.86 0.226,-8.96 0.695,-12.3 0.465,-3.33 1.266,-6.03 2.402,-8.1 1.133,-2.07 2.614,-3.54 4.45,-4.45 1.832,-0.9 4.148,-1.35 6.949,-1.35 2.601,0 4.883,0.49 6.848,1.46 1.968,0.96 3.785,2.14 5.453,3.54 l 5.398,-8.8 c -2.195,-1.8 -4.75,-3.31 -7.644,-4.55 -2.903,-1.23 -6.387,-1.85 -10.457,-1.85"
       style="fill:#808080;fill-opacity:1;fill-rule:nonzero;stroke:none"
       transform="matrix(0.13333333,0,0,-0.13333333,0,146.66667)"
       clip-path="url(#clipPath12)" />
    <path
       id="path13"
       d="m 372.598,1090.2 h 12.097 v -27.3 h 20.602 v 27.3 h 12.101 V 1021 h -12.101 v 31.4 H 384.695 V 1021 h -12.097 v 69.2"
       style="fill:#808080;fill-opacity:1;fill-rule:nonzero;stroke:none"
       transform="matrix(0.13333333,0,0,-0.13333333,0,146.66667)"
       clip-path="url(#clipPath14)" />
    <path
       id="path15"
       d="m 455.199,1019.7 c -2.734,0 -5.281,0.41 -7.656,1.21 -2.363,0.79 -4.414,2.07 -6.141,3.84 -1.738,1.77 -3.105,4.11 -4.105,7 -1.004,2.91 -1.5,6.45 -1.5,10.65 v 47.8 h 12.098 v -47.9 c 0,-4.2 0.585,-7.28 1.75,-9.25 1.171,-1.96 3.652,-2.94 7.449,-2.94 3.008,0 5.508,0.51 7.5,1.54 2.004,1.04 3.633,2.12 4.902,3.25 v 55.3 h 12.102 V 1021 h -8.801 l -1.797,5.6 c -1.738,-1.87 -3.867,-3.48 -6.406,-4.85 -2.528,-1.36 -5.664,-2.05 -9.395,-2.05"
       style="fill:#808080;fill-opacity:1;fill-rule:nonzero;stroke:none"
       transform="matrix(0.13333333,0,0,-0.13333333,0,146.66667)"
       clip-path="url(#clipPath16)" />
    <path
       id="path17"
       d="m 500.602,1090.2 h 11.992 v -58.8 h 22.304 V 1021 h -34.296 v 69.2"
       style="fill:#808080;fill-opacity:1;fill-rule:nonzero;stroke:none"
       transform="matrix(0.13333333,0,0,-0.13333333,0,146.66667)"
       clip-path="url(#clipPath18)" />
    <path
       id="path19"
       d="m 549.898,1090.2 h 36.2 v -10.3 h -24.102 v -17.7 h 19.297 v -10.1 h -19.297 v -20.7 h 25.598 V 1021 h -37.696 v 69.2"
       style="fill:#808080;fill-opacity:1;fill-rule:nonzero;stroke:none"
       transform="matrix(0.13333333,0,0,-0.13333333,0,146.66667)"
       clip-path="url(#clipPath20)" />
    <path
       id="path21"
       d="m 9.5,965.199 h 12.1016 v -27.297 h 20.6015 v 27.297 H 54.3008 V 896.004 H 42.2031 v 31.398 H 21.6016 V 896.004 H 9.5 v 69.195"
       style="fill:#808080;fill-opacity:1;fill-rule:nonzero;stroke:none"
       transform="matrix(0.13333333,0,0,-0.13333333,0,146.66667)"
       clip-path="url(#clipPath22)" />
    <path
       id="path23"
       d="m 86.5039,922.605 h 13.8011 l -3.0003,11.793 c -0.5313,2.137 -1,4.02 -1.4024,5.653 -0.3984,1.637 -0.7304,3.133 -1,4.5 -0.2617,1.367 -0.4843,2.601 -0.6484,3.703 -0.168,1.098 -0.3477,2.215 -0.5469,3.348 h -0.1992 c -0.2031,-1.133 -0.4023,-2.286 -0.6016,-3.454 -0.1992,-1.164 -0.4335,-2.414 -0.6992,-3.75 -0.2695,-1.332 -0.6015,-2.816 -1,-4.445 -0.4023,-1.637 -0.9062,-3.488 -1.5,-5.555 z m 1.0977,42.594 h 12.8044 l 19.696,-69.195 h -12.997 l -4.402,17.098 H 83.9062 L 79.3047,896.004 H 67.0078 l 20.5938,69.195"
       style="fill:#808080;fill-opacity:1;fill-rule:nonzero;stroke:none"
       transform="matrix(0.13333333,0,0,-0.13333333,0,146.66667)"
       clip-path="url(#clipPath24)" />
    <path
       id="path25"
       d="m 132.898,965.199 h 11.704 l 16.8,-35 c 1.332,-2.797 2.547,-5.664 3.649,-8.597 1.097,-2.934 2.015,-5.567 2.746,-7.899 h 0.101 c -0.265,2.199 -0.55,5.047 -0.847,8.551 -0.305,3.5 -0.449,6.98 -0.449,10.445 v 32.5 h 11.097 V 896.004 H 165.398 L 149.801,929 c -1.934,3.938 -3.387,7.266 -4.352,10 -0.969,2.734 -1.851,5.336 -2.652,7.805 h -0.199 c 0.269,-2.075 0.55,-4.938 0.847,-8.602 0.305,-3.668 0.457,-7.601 0.457,-11.801 v -30.398 h -11.004 v 69.195"
       style="fill:#808080;fill-opacity:1;fill-rule:nonzero;stroke:none"
       transform="matrix(0.13333333,0,0,-0.13333333,0,146.66667)"
       clip-path="url(#clipPath26)" />
    <path
       id="path27"
       d="m 196.602,965.199 h 11.699 l 16.801,-35 c 1.336,-2.797 2.55,-5.664 3.648,-8.597 1.098,-2.934 2.016,-5.567 2.75,-7.899 h 0.102 c -0.27,2.199 -0.551,5.047 -0.848,8.551 -0.305,3.5 -0.449,6.98 -0.449,10.445 v 32.5 h 11.097 v -69.195 h -12.3 L 213.5,929 c -1.934,3.938 -3.383,7.266 -4.352,10 -0.964,2.734 -1.847,5.336 -2.648,7.805 h -0.199 c 0.265,-2.075 0.551,-4.938 0.847,-8.602 0.301,-3.668 0.454,-7.601 0.454,-11.801 v -30.398 h -11 v 69.195"
       style="fill:#808080;fill-opacity:1;fill-rule:nonzero;stroke:none"
       transform="matrix(0.13333333,0,0,-0.13333333,0,146.66667)"
       clip-path="url(#clipPath28)" />
    <path
       id="path29"
       d="m 284,904.398 c 2.465,0 4.562,0.485 6.297,1.454 1.734,0.964 3.117,2.5 4.152,4.597 1.031,2.102 1.781,4.801 2.25,8.102 0.465,3.301 0.699,7.285 0.699,11.953 0,4.664 -0.234,8.664 -0.699,11.996 -0.469,3.336 -1.219,6.051 -2.25,8.148 -1.035,2.102 -2.418,3.633 -4.152,4.602 -1.735,0.969 -3.832,1.449 -6.297,1.449 -2.535,0 -4.652,-0.48 -6.355,-1.449 -1.7,-0.969 -3.083,-2.48 -4.149,-4.547 -1.062,-2.07 -1.836,-4.75 -2.301,-8.051 -0.468,-3.3 -0.699,-7.25 -0.699,-11.851 0,-4.735 0.231,-8.766 0.699,-12.098 0.465,-3.336 1.239,-6.051 2.301,-8.148 1.066,-2.102 2.449,-3.657 4.149,-4.653 1.703,-1 3.82,-1.504 6.355,-1.504 z m 0.098,-9.695 c -8.868,0 -15.536,2.867 -20,8.598 -4.469,5.734 -6.7,14.765 -6.7,27.101 0,12.203 2.25,21.266 6.747,27.203 4.503,5.93 11.121,8.895 19.855,8.895 8.66,0 15.246,-2.949 19.746,-8.848 4.5,-5.898 6.75,-14.882 6.75,-26.949 0,-12.34 -2.184,-21.422 -6.551,-27.25 -4.367,-5.836 -10.98,-8.75 -19.847,-8.75"
       style="fill:#808080;fill-opacity:1;fill-rule:nonzero;stroke:none"
       transform="matrix(0.13333333,0,0,-0.13333333,0,146.66667)"
       clip-path="url(#clipPath30)" />
    <path
       id="path31"
       d="m 319.102,965.199 h 13.093 l 10,-37.297 c 0.801,-3 1.438,-5.586 1.907,-7.75 0.464,-2.168 0.898,-4.515 1.296,-7.05 h 0.204 c 0.261,1.265 0.531,2.464 0.8,3.597 l 0.793,3.406 c 0.27,1.129 0.571,2.313 0.907,3.547 0.332,1.231 0.699,2.649 1.097,4.25 l 10.199,37.297 h 12.399 L 351,896.004 h -11.398 l -20.5,69.195"
       style="fill:#808080;fill-opacity:1;fill-rule:nonzero;stroke:none"
       transform="matrix(0.13333333,0,0,-0.13333333,0,146.66667)"
       clip-path="url(#clipPath32)" />
    <path
       id="path33"
       d="m 384.703,965.199 h 36.199 v -10.297 h -24.101 v -17.699 h 19.304 v -10.101 h -19.304 v -20.7 h 25.601 v -10.398 h -37.699 v 69.195"
       style="fill:#808080;fill-opacity:1;fill-rule:nonzero;stroke:none"
       transform="matrix(0.13333333,0,0,-0.13333333,0,146.66667)"
       clip-path="url(#clipPath34)" />
    <path
       id="path35"
       d="m 458.199,934.199 c 3.797,0 6.414,0.887 7.852,2.653 1.433,1.765 2.148,4.55 2.148,8.347 0,3.535 -0.754,6.051 -2.246,7.551 -1.504,1.504 -4.121,2.25 -7.851,2.25 h -8.399 v -20.801 z m -20.601,31 h 20.406 c 7.793,0 13.562,-1.633 17.293,-4.894 3.73,-3.27 5.605,-8.137 5.605,-14.602 0,-2.734 -0.273,-5.117 -0.8,-7.152 -0.536,-2.031 -1.336,-3.766 -2.403,-5.199 -1.062,-1.43 -2.402,-2.618 -4.004,-3.551 -1.601,-0.934 -3.425,-1.699 -5.496,-2.301 2,-0.73 3.699,-2.062 5.098,-3.996 1.406,-1.938 2.664,-4.668 3.797,-8.199 l 6.308,-19.301 h -13.105 l -6.102,19.598 c -0.597,1.933 -1.211,3.5 -1.847,4.703 -0.633,1.195 -1.317,2.148 -2.051,2.843 -0.731,0.707 -1.582,1.168 -2.547,1.403 -0.969,0.234 -2.051,0.351 -3.254,0.351 h -4.793 v -28.898 h -12.105 v 69.195"
       style="fill:#808080;fill-opacity:1;fill-rule:nonzero;stroke:none"
       transform="matrix(0.13333333,0,0,-0.13333333,0,146.66667)"
       clip-path="url(#clipPath36)" />
    <path
       id="path37"
       d="m 45.6016,839.703 h 6.4023 V 771.004 H 47.5 L 46,777.699 C 44,775.77 41.5508,774 38.6523,772.402 35.7539,770.801 32.3359,770 28.4023,770 c -2.539,0 -4.9023,0.367 -7.1054,1.102 -2.1953,0.734 -4.0938,1.902 -5.6953,3.5 -1.6016,1.601 -2.8672,3.699 -3.8008,6.3 -0.9375,2.602 -1.3985,5.766 -1.3985,9.5 v 49.301 h 6.2969 V 791.5 c 0,-5.797 0.9336,-9.918 2.8047,-12.348 1.8633,-2.433 4.9649,-3.648 9.293,-3.648 2.0039,0 3.8554,0.23 5.5547,0.699 1.6992,0.465 3.25,1.051 4.6484,1.746 1.4023,0.703 2.6523,1.473 3.75,2.301 1.1016,0.836 2.0508,1.617 2.8516,2.355 v 57.098"
       style="fill:#808080;fill-opacity:1;fill-rule:nonzero;stroke:none"
       transform="matrix(0.13333333,0,0,-0.13333333,0,146.66667)"
       clip-path="url(#clipPath38)" />
    <path
       id="path39"
       d="m 73.6016,839.703 h 7.1015 l 22.6019,-46.301 c 1.465,-3 2.668,-5.668 3.597,-8 0.934,-2.336 1.766,-4.601 2.5,-6.8 h 0.203 c -0.269,2.332 -0.468,4.832 -0.601,7.5 -0.137,2.664 -0.199,5.734 -0.199,9.203 v 44.398 h 5.898 v -68.699 h -7 l -21.8007,44.301 c -1.9335,3.797 -3.3828,6.996 -4.3515,9.597 -0.9649,2.598 -1.8164,4.965 -2.5469,7.102 h -0.1992 c 0.2617,-2.336 0.4492,-5.02 0.5508,-8.055 0.0976,-3.031 0.1484,-6.547 0.1484,-10.547 v -42.398 h -5.9023 v 68.699"
       style="fill:#808080;fill-opacity:1;fill-rule:nonzero;stroke:none"
       transform="matrix(0.13333333,0,0,-0.13333333,0,146.66667)"
       clip-path="url(#clipPath40)" />
    <path
       id="path41"
       d="m 132.699,836.102 v 3.601 h 20.5 v -3.601 l -7.101,-0.598 v -60.305 l 7.101,-0.597 v -3.598 h -20.5 v 3.598 l 7.102,0.597 v 60.305 l -7.102,0.598"
       style="fill:#808080;fill-opacity:1;fill-rule:nonzero;stroke:none"
       transform="matrix(0.13333333,0,0,-0.13333333,0,146.66667)"
       clip-path="url(#clipPath42)" />
    <path
       id="path43"
       d="m 164.602,839.703 h 6.8 l 13.797,-47.004 c 0.801,-2.797 1.465,-5.398 2.004,-7.797 0.531,-2.402 0.965,-4.464 1.297,-6.199 h 0.199 c 0.332,1.735 0.781,3.766 1.356,6.098 0.558,2.336 1.277,4.965 2.148,7.898 l 13.996,47.004 h 6.403 l -20.903,-68.699 h -6.5 l -20.597,68.699"
       style="fill:#808080;fill-opacity:1;fill-rule:nonzero;stroke:none"
       transform="matrix(0.13333333,0,0,-0.13333333,0,146.66667)"
       clip-path="url(#clipPath44)" />
    <path
       id="path45"
       d="m 227.598,839.703 h 34 v -5.398 h -27.703 v -24.504 h 22.5 v -5.403 h -22.5 v -27.996 h 28.902 v -5.398 h -35.199 v 68.699"
       style="fill:#808080;fill-opacity:1;fill-rule:nonzero;stroke:none"
       transform="matrix(0.13333333,0,0,-0.13333333,0,146.66667)"
       clip-path="url(#clipPath46)" />
    <path
       id="path47"
       d="m 297.402,806.602 c 5.133,0 8.696,1.214 10.7,3.648 2,2.438 2.996,6.016 2.996,10.754 0,4.398 -1.047,7.715 -3.149,9.949 -2.097,2.231 -5.746,3.352 -10.945,3.352 H 286.301 V 806.602 Z M 280,839.703 h 17.5 c 2.934,0 5.637,-0.367 8.102,-1.101 2.464,-0.735 4.578,-1.848 6.347,-3.352 1.766,-1.5 3.153,-3.414 4.149,-5.746 1.004,-2.336 1.504,-5.137 1.504,-8.402 0,-10.133 -4.266,-16.235 -12.801,-18.297 1.664,-0.668 3.183,-1.754 4.551,-3.254 1.367,-1.496 2.679,-3.949 3.949,-7.348 l 7.898,-21.199 h -6.801 l -7.597,20.297 c -0.801,2.062 -1.602,3.75 -2.403,5.054 -0.8,1.297 -1.683,2.313 -2.652,3.043 -0.965,0.735 -2.043,1.25 -3.246,1.555 -1.199,0.297 -2.602,0.449 -4.199,0.449 h -8 V 771.004 H 280 v 68.699"
       style="fill:#808080;fill-opacity:1;fill-rule:nonzero;stroke:none"
       transform="matrix(0.13333333,0,0,-0.13333333,0,146.66667)"
       clip-path="url(#clipPath48)" />
    <path
       id="path49"
       d="m 352.402,770 c -4.336,0 -8.246,0.754 -11.75,2.254 -3.5,1.496 -6.414,3.418 -8.75,5.75 l 3.2,4.496 c 2.336,-2.195 4.836,-3.934 7.5,-5.199 2.668,-1.266 5.8,-1.899 9.402,-1.899 5.066,0 8.699,1.153 10.902,3.453 2.196,2.297 3.293,5.512 3.293,9.649 0,2.332 -0.297,4.281 -0.894,5.848 -0.602,1.566 -1.5,2.933 -2.703,4.101 -1.2,1.16 -2.684,2.195 -4.45,3.102 -1.765,0.898 -3.781,1.808 -6.047,2.75 -2.535,1.062 -4.82,2.144 -6.851,3.246 -2.035,1.101 -3.75,2.383 -5.152,3.851 -1.403,1.465 -2.485,3.2 -3.247,5.2 -0.769,2 -1.152,4.402 -1.152,7.199 0,5.469 1.664,9.633 5,12.5 3.336,2.867 7.699,4.301 13.102,4.301 3.73,0 6.816,-0.403 9.246,-1.204 2.437,-0.796 4.683,-1.929 6.754,-3.394 l -2.7,-4.902 c -1.933,1.332 -3.921,2.367 -5.953,3.097 -2.031,0.735 -4.382,1.106 -7.05,1.106 -3.536,0 -6.45,-0.907 -8.75,-2.7 -2.301,-1.804 -3.45,-4.667 -3.45,-8.605 0,-1.996 0.25,-3.684 0.75,-5.051 0.5,-1.363 1.25,-2.547 2.25,-3.547 1,-1.004 2.286,-1.922 3.852,-2.75 1.562,-0.836 3.449,-1.683 5.648,-2.547 2.801,-1.14 5.317,-2.3 7.551,-3.503 2.231,-1.2 4.152,-2.602 5.75,-4.2 1.598,-1.601 2.832,-3.484 3.699,-5.648 0.868,-2.168 1.301,-4.856 1.301,-8.051 0,-2.535 -0.367,-4.937 -1.101,-7.203 -0.735,-2.266 -1.899,-4.246 -3.497,-5.945 -1.601,-1.7 -3.703,-3.055 -6.304,-4.055 -2.598,-0.996 -5.731,-1.5 -9.399,-1.5"
       style="fill:#808080;fill-opacity:1;fill-rule:nonzero;stroke:none"
       transform="matrix(0.13333333,0,0,-0.13333333,0,146.66667)"
       clip-path="url(#clipPath50)" />
    <path
       id="path51"
       d="m 387.203,836.102 v 3.601 h 20.496 v -3.601 l -7.097,-0.598 v -60.305 l 7.097,-0.597 v -3.598 h -20.496 v 3.598 l 7.098,0.597 v 60.305 l -7.098,0.598"
       style="fill:#808080;fill-opacity:1;fill-rule:nonzero;stroke:none"
       transform="matrix(0.13333333,0,0,-0.13333333,0,146.66667)"
       clip-path="url(#clipPath52)" />
    <path
       id="path53"
       d="m 437.504,834.305 h -16.899 v 5.398 h 40.102 v -5.398 h -16.902 v -63.301 h -6.301 v 63.301"
       style="fill:#808080;fill-opacity:1;fill-rule:nonzero;stroke:none"
       transform="matrix(0.13333333,0,0,-0.13333333,0,146.66667)"
       clip-path="url(#clipPath54)" />
    <path
       id="path55"
       d="m 491.898,798.102 -19.793,41.601 h 7.196 l 12.304,-26.801 c 0.93,-2 1.661,-3.714 2.2,-5.152 0.535,-1.43 1.035,-2.883 1.504,-4.348 0.527,1.465 1.023,2.899 1.492,4.297 0.469,1.403 1.172,3.137 2.101,5.203 l 12.305,26.801 h 6.699 l -19.601,-41.801 v -26.898 h -6.407 v 27.098"
       style="fill:#808080;fill-opacity:1;fill-rule:nonzero;stroke:none"
       transform="matrix(0.13333333,0,0,-0.13333333,0,146.66667)"
       clip-path="url(#clipPath56)" />
    <path
       id="path57"
       d="m 579.703,775.105 c 6.395,0 10.938,2.481 13.602,7.446 2.668,4.965 3.996,12.418 3.996,22.351 0,10.203 -1.367,17.848 -4.094,22.95 -2.734,5.097 -7.234,7.652 -13.504,7.652 -6.269,0 -10.781,-2.5 -13.547,-7.5 -2.773,-5 -4.148,-12.566 -4.148,-22.699 0,-10.137 1.347,-17.7 4.043,-22.7 2.703,-5 7.254,-7.5 13.652,-7.5 z M 579.801,770 c -8.469,0 -14.668,2.938 -18.594,8.801 -3.937,5.867 -5.898,14.601 -5.898,26.199 0,11.535 2.039,20.352 6.14,26.449 4.102,6.102 10.156,9.153 18.156,9.153 8.067,0 14.149,-3.016 18.25,-9.047 4.102,-6.035 6.145,-14.75 6.145,-26.153 0,-11.668 -1.934,-20.484 -5.793,-26.453 -3.867,-5.965 -10,-8.949 -18.406,-8.949"
       style="fill:#808080;fill-opacity:1;fill-rule:nonzero;stroke:none"
       transform="matrix(0.13333333,0,0,-0.13333333,0,146.66667)"
       clip-path="url(#clipPath58)" />
    <path
       id="path59"
       d="m 622.594,839.703 h 33.398 v -5.398 h -27.101 v -24.504 h 22.402 v -5.297 h -22.402 v -33.5 h -6.297 v 68.699"
       style="fill:#808080;fill-opacity:1;fill-rule:nonzero;stroke:none"
       transform="matrix(0.13333333,0,0,-0.13333333,0,146.66667)"
       clip-path="url(#clipPath60)" />
    <path
       id="path61"
       d="m 32.6992,693.004 c -1.1328,3.801 -1.9453,6.863 -2.4492,9.199 -0.5,2.332 -0.9141,4.465 -1.25,6.399 h -0.2031 c -0.3281,-1.934 -0.7774,-4.098 -1.3438,-6.5 -0.5664,-2.399 -1.4179,-5.434 -2.5508,-9.098 l -6,-19.5 H 38.5 Z m -22.2969,-47 H 4 l 21.5039,68.699 h 6.8984 l 21,-68.699 h -6.8007 l -6.5,22.098 H 17.2031 l -6.8008,-22.098"
       style="fill:#808080;fill-opacity:1;fill-rule:nonzero;stroke:none"
       transform="matrix(0.13333333,0,0,-0.13333333,0,146.66667)"
       clip-path="url(#clipPath62)" />
    <path
       id="path63"
       d="m 85.9023,679.602 c 4.5313,0 7.8946,1.152 10.0977,3.453 2.2031,2.297 3.3008,6.144 3.3008,11.547 0,5.265 -1.0977,9.031 -3.3008,11.3 -2.2031,2.27 -5.8359,3.403 -10.8984,3.403 H 74.5977 v -29.703 z m -17.6015,35.101 h 17.2031 c 6.9258,0 12.0781,-1.699 15.4491,-5.101 3.363,-3.399 5.047,-8.301 5.047,-14.7 0,-6.73 -1.637,-11.847 -4.902,-15.351 -3.266,-3.5 -8.0941,-5.246 -14.4964,-5.246 H 74.5977 v -28.301 h -6.2969 v 68.699"
       style="fill:#808080;fill-opacity:1;fill-rule:nonzero;stroke:none"
       transform="matrix(0.13333333,0,0,-0.13333333,0,146.66667)"
       clip-path="url(#clipPath64)" />
    <path
       id="path65"
       d="m 140.898,679.602 c 4.532,0 7.895,1.152 10.098,3.453 2.203,2.297 3.301,6.144 3.301,11.547 0,5.265 -1.098,9.031 -3.301,11.3 -2.203,2.27 -5.836,3.403 -10.898,3.403 h -10.504 v -29.703 z m -17.601,35.101 h 17.199 c 6.93,0 12.082,-1.699 15.449,-5.101 3.367,-3.399 5.051,-8.301 5.051,-14.7 0,-6.73 -1.637,-11.847 -4.902,-15.351 -3.266,-3.5 -8.098,-5.246 -14.496,-5.246 h -12.004 v -28.301 h -6.297 v 68.699"
       style="fill:#808080;fill-opacity:1;fill-rule:nonzero;stroke:none"
       transform="matrix(0.13333333,0,0,-0.13333333,0,146.66667)"
       clip-path="url(#clipPath66)" />
    <path
       id="path67"
       d="m 178.297,714.703 h 6.297 v -63.301 h 25.504 v -5.398 h -31.801 v 68.699"
       style="fill:#808080;fill-opacity:1;fill-rule:nonzero;stroke:none"
       transform="matrix(0.13333333,0,0,-0.13333333,0,146.66667)"
       clip-path="url(#clipPath68)" />
    <path
       id="path69"
       d="m 223.289,711.102 v 3.601 h 20.5 v -3.601 l -7.101,-0.598 v -60.305 l 7.101,-0.597 v -3.598 h -20.5 v 3.598 l 7.102,0.597 v 60.305 l -7.102,0.598"
       style="fill:#808080;fill-opacity:1;fill-rule:nonzero;stroke:none"
       transform="matrix(0.13333333,0,0,-0.13333333,0,146.66667)"
       clip-path="url(#clipPath70)" />
    <path
       id="path71"
       d="m 261.793,714.703 h 33.996 v -5.398 H 268.09 v -24.504 h 22.5 v -5.403 h -22.5 v -27.996 h 28.902 v -5.398 h -35.199 v 68.699"
       style="fill:#808080;fill-opacity:1;fill-rule:nonzero;stroke:none"
       transform="matrix(0.13333333,0,0,-0.13333333,0,146.66667)"
       clip-path="url(#clipPath72)" />
    <path
       id="path73"
       d="m 329.895,651.402 c 3.867,0 7.062,0.52 9.597,1.547 2.535,1.035 4.551,2.688 6.055,4.953 1.5,2.266 2.551,5.184 3.148,8.75 0.602,3.563 0.899,7.914 0.899,13.051 0,5.332 -0.282,9.883 -0.848,13.649 -0.566,3.761 -1.59,6.836 -3.055,9.199 -1.461,2.367 -3.48,4.101 -6.046,5.199 -2.571,1.105 -5.817,1.648 -9.75,1.648 h -9.899 v -57.996 z m -16.2,63.301 h 15.5 c 4.867,0 9.012,-0.637 12.45,-1.898 3.433,-1.27 6.23,-3.301 8.398,-6.106 2.168,-2.797 3.75,-6.449 4.754,-10.945 1,-4.504 1.496,-9.953 1.496,-16.356 0,-6.195 -0.516,-11.429 -1.547,-15.695 -1.035,-4.269 -2.637,-7.723 -4.801,-10.351 -2.168,-2.633 -4.933,-4.516 -8.3,-5.653 -3.368,-1.133 -7.415,-1.695 -12.153,-1.695 h -15.797 v 68.699"
       style="fill:#808080;fill-opacity:1;fill-rule:nonzero;stroke:none"
       transform="matrix(0.13333333,0,0,-0.13333333,0,146.66667)"
       clip-path="url(#clipPath74)" />
    <path
       id="path75"
       d="m 414.293,645 c -4.336,0 -8.246,0.754 -11.75,2.254 -3.5,1.496 -6.414,3.418 -8.75,5.75 l 3.199,4.496 c 2.332,-2.195 4.832,-3.934 7.5,-5.199 2.664,-1.266 5.801,-1.899 9.399,-1.899 5.07,0 8.703,1.153 10.906,3.453 2.195,2.297 3.293,5.512 3.293,9.649 0,2.332 -0.297,4.281 -0.899,5.848 -0.597,1.566 -1.5,2.933 -2.699,4.101 -1.199,1.16 -2.683,2.195 -4.449,3.102 -1.766,0.898 -3.781,1.808 -6.051,2.75 -2.531,1.062 -4.816,2.144 -6.847,3.246 -2.04,1.101 -3.75,2.383 -5.153,3.851 -1.402,1.465 -2.484,3.2 -3.246,5.2 -0.773,2 -1.152,4.402 -1.152,7.199 0,5.469 1.664,9.633 5,12.5 3.336,2.867 7.699,4.301 13.097,4.301 3.735,0 6.821,-0.403 9.25,-1.204 2.438,-0.796 4.684,-1.929 6.754,-3.394 l -2.703,-4.902 c -1.93,1.332 -3.918,2.367 -5.949,3.097 -2.031,0.735 -4.387,1.106 -7.051,1.106 -3.535,0 -6.449,-0.907 -8.75,-2.7 -2.301,-1.804 -3.449,-4.667 -3.449,-8.605 0,-1.996 0.25,-3.684 0.75,-5.051 0.5,-1.363 1.25,-2.547 2.25,-3.547 1,-1.004 2.285,-1.922 3.852,-2.75 1.562,-0.836 3.449,-1.683 5.648,-2.547 2.801,-1.14 5.312,-2.3 7.551,-3.503 2.23,-1.2 4.148,-2.602 5.75,-4.2 1.597,-1.601 2.832,-3.484 3.699,-5.648 0.867,-2.168 1.301,-4.856 1.301,-8.051 0,-2.535 -0.371,-4.937 -1.102,-7.203 -0.734,-2.266 -1.898,-4.246 -3.496,-5.945 -1.601,-1.7 -3.703,-3.055 -6.305,-4.055 -2.597,-0.996 -5.73,-1.5 -9.398,-1.5"
       style="fill:#808080;fill-opacity:1;fill-rule:nonzero;stroke:none"
       transform="matrix(0.13333333,0,0,-0.13333333,0,146.66667)"
       clip-path="url(#clipPath76)" />
    <path
       id="path77"
       d="m 475.797,645 c -4.609,0 -8.527,0.77 -11.758,2.301 -3.234,1.535 -5.859,3.765 -7.902,6.699 -2.032,2.934 -3.535,6.586 -4.492,10.953 -0.965,4.363 -1.454,9.383 -1.454,15.047 0,5.602 0.489,10.617 1.454,15.051 0.957,4.433 2.46,8.168 4.492,11.199 2.043,3.031 4.64,5.352 7.804,6.953 3.164,1.598 6.981,2.399 11.454,2.399 3.398,0 6.425,-0.469 9.093,-1.403 2.664,-0.929 5.039,-2.23 7.098,-3.894 l -3.094,-4.504 c -1.738,1.336 -3.672,2.418 -5.801,3.254 -2.129,0.828 -4.57,1.25 -7.296,1.25 -3.536,0 -6.485,-0.637 -8.856,-1.903 -2.363,-1.265 -4.25,-3.152 -5.644,-5.652 -1.407,-2.5 -2.403,-5.613 -3,-9.348 -0.606,-3.734 -0.907,-8.097 -0.907,-13.097 0,-5.071 0.282,-9.469 0.848,-13.203 0.566,-3.739 1.594,-6.832 3.059,-9.297 1.464,-2.473 3.398,-4.325 5.8,-5.551 2.391,-1.238 5.457,-1.852 9.2,-1.852 2.996,0 5.613,0.532 7.851,1.602 2.227,1.062 4.207,2.266 5.945,3.598 l 3.098,-4.598 c -2.129,-1.734 -4.609,-3.172 -7.453,-4.305 C 482.504,645.566 479.32,645 475.797,645"
       style="fill:#808080;fill-opacity:1;fill-rule:nonzero;stroke:none"
       transform="matrix(0.13333333,0,0,-0.13333333,0,146.66667)"
       clip-path="url(#clipPath78)" />
    <path
       id="path79"
       d="m 505.59,711.102 v 3.601 h 20.5 v -3.601 l -7.102,-0.598 v -60.305 l 7.102,-0.597 v -3.598 h -20.5 v 3.598 l 7.101,0.597 v 60.305 l -7.101,0.598"
       style="fill:#808080;fill-opacity:1;fill-rule:nonzero;stroke:none"
       transform="matrix(0.13333333,0,0,-0.13333333,0,146.66667)"
       clip-path="url(#clipPath80)" />
    <path
       id="path81"
       d="m 544.098,714.703 h 33.992 v -5.398 h -27.695 v -24.504 h 22.5 v -5.403 h -22.5 v -27.996 h 28.898 v -5.398 h -35.195 v 68.699"
       style="fill:#808080;fill-opacity:1;fill-rule:nonzero;stroke:none"
       transform="matrix(0.13333333,0,0,-0.13333333,0,146.66667)"
       clip-path="url(#clipPath82)" />
    <path
       id="path83"
       d="m 596.488,714.703 h 7.102 l 22.605,-46.301 c 1.465,-3 2.668,-5.668 3.594,-8 0.938,-2.336 1.77,-4.601 2.5,-6.8 h 0.207 c -0.273,2.332 -0.469,4.832 -0.605,7.5 -0.137,2.664 -0.196,5.734 -0.196,9.203 v 44.398 h 5.899 v -68.699 h -7.004 l -21.797,44.301 c -1.934,3.797 -3.387,6.996 -4.355,9.597 -0.965,2.598 -1.817,4.965 -2.547,7.102 h -0.196 c 0.262,-2.336 0.45,-5.02 0.547,-8.055 0.098,-3.031 0.145,-6.547 0.145,-10.547 v -42.398 h -5.899 v 68.699"
       style="fill:#808080;fill-opacity:1;fill-rule:nonzero;stroke:none"
       transform="matrix(0.13333333,0,0,-0.13333333,0,146.66667)"
       clip-path="url(#clipPath84)" />
    <path
       id="path85"
       d="m 681.793,645 c -4.602,0 -8.516,0.77 -11.75,2.301 -3.231,1.535 -5.867,3.765 -7.898,6.699 -2.032,2.934 -3.536,6.586 -4.504,10.953 -0.965,4.363 -1.446,9.383 -1.446,15.047 0,5.602 0.481,10.617 1.446,15.051 0.968,4.433 2.472,8.168 4.504,11.199 2.031,3.031 4.628,5.352 7.8,6.953 3.164,1.598 6.985,2.399 11.446,2.399 3.398,0 6.437,-0.469 9.101,-1.403 2.668,-0.929 5.031,-2.23 7.102,-3.894 l -3.106,-4.504 c -1.73,1.336 -3.664,2.418 -5.793,3.254 -2.136,0.828 -4.57,1.25 -7.304,1.25 -3.536,0 -6.485,-0.637 -8.848,-1.903 -2.371,-1.265 -4.246,-3.152 -5.652,-5.652 -1.399,-2.5 -2.403,-5.613 -3,-9.348 -0.594,-3.734 -0.899,-8.097 -0.899,-13.097 0,-5.071 0.285,-9.469 0.852,-13.203 0.566,-3.739 1.582,-6.832 3.047,-9.297 1.464,-2.473 3.398,-4.325 5.8,-5.551 2.403,-1.238 5.469,-1.852 9.2,-1.852 2.996,0 5.613,0.532 7.851,1.602 2.235,1.062 4.219,2.266 5.946,3.598 l 3.105,-4.598 c -2.137,-1.734 -4.617,-3.172 -7.449,-4.305 -2.832,-1.133 -6.016,-1.699 -9.551,-1.699"
       style="fill:#808080;fill-opacity:1;fill-rule:nonzero;stroke:none"
       transform="matrix(0.13333333,0,0,-0.13333333,0,146.66667)"
       clip-path="url(#clipPath86)" />
    <path
       id="path87"
       d="m 715.191,714.703 h 33.993 v -5.398 h -27.696 v -24.504 h 22.5 v -5.403 h -22.5 v -27.996 h 28.899 v -5.398 h -35.196 v 68.699"
       style="fill:#808080;fill-opacity:1;fill-rule:nonzero;stroke:none"
       transform="matrix(0.13333333,0,0,-0.13333333,0,146.66667)"
       clip-path="url(#clipPath88)" />
    <path
       id="path89"
       d="m 781.988,645 c -4.336,0 -8.242,0.754 -11.75,2.254 -3.496,1.496 -6.414,3.418 -8.75,5.75 l 3.203,4.496 c 2.336,-2.195 4.836,-3.934 7.5,-5.199 2.668,-1.266 5.801,-1.899 9.395,-1.899 5.07,0 8.703,1.153 10.91,3.453 2.195,2.297 3.289,5.512 3.289,9.649 0,2.332 -0.293,4.281 -0.898,5.848 -0.594,1.566 -1.492,2.933 -2.696,4.101 -1.199,1.16 -2.683,2.195 -4.453,3.102 -1.765,0.898 -3.777,1.808 -6.043,2.75 -2.539,1.062 -4.824,2.144 -6.855,3.246 -2.031,1.101 -3.75,2.383 -5.149,3.851 -1.406,1.465 -2.488,3.2 -3.25,5.2 -0.773,2 -1.152,4.402 -1.152,7.199 0,5.469 1.668,9.633 5,12.5 3.34,2.867 7.703,4.301 13.106,4.301 3.73,0 6.816,-0.403 9.246,-1.204 2.433,-0.796 4.679,-1.929 6.75,-3.394 l -2.696,-4.902 c -1.933,1.332 -3.925,2.367 -5.957,3.097 -2.031,0.735 -4.386,1.106 -7.05,1.106 -3.536,0 -6.446,-0.907 -8.75,-2.7 -2.297,-1.804 -3.45,-4.667 -3.45,-8.605 0,-1.996 0.254,-3.684 0.754,-5.051 0.496,-1.363 1.25,-2.547 2.246,-3.547 1.004,-1.004 2.285,-1.922 3.856,-2.75 1.562,-0.836 3.449,-1.683 5.644,-2.547 2.805,-1.14 5.313,-2.3 7.551,-3.503 2.234,-1.2 4.149,-2.602 5.75,-4.2 1.602,-1.601 2.832,-3.484 3.703,-5.648 0.867,-2.168 1.297,-4.856 1.297,-8.051 0,-2.535 -0.371,-4.937 -1.101,-7.203 -0.735,-2.266 -1.895,-4.246 -3.497,-5.945 -1.601,-1.7 -3.703,-3.055 -6.3,-4.055 -2.598,-0.996 -5.731,-1.5 -9.403,-1.5"
       style="fill:#808080;fill-opacity:1;fill-rule:nonzero;stroke:none"
       transform="matrix(0.13333333,0,0,-0.13333333,0,146.66667)"
       clip-path="url(#clipPath90)" />
    <path
       id="path91"
       d="m 32.6992,568 c -1.1328,3.797 -1.9453,6.863 -2.4492,9.199 -0.5,2.332 -0.9141,4.461 -1.25,6.395 h -0.2031 c -0.3281,-1.934 -0.7774,-4.09 -1.3438,-6.492 -0.5664,-2.403 -1.4179,-5.442 -2.5508,-9.102 l -6,-19.504 H 38.5 Z M 10.4023,520.996 H 4 l 21.5039,68.707 h 6.8984 l 21,-68.707 h -6.8007 l -6.5,22.102 H 17.2031 l -6.8008,-22.102"
       style="fill:#808080;fill-opacity:1;fill-rule:nonzero;stroke:none"
       transform="matrix(0.13333333,0,0,-0.13333333,0,146.66667)"
       clip-path="url(#clipPath92)" />
    <path
       id="path93"
       d="m 68.3008,589.703 h 7.1015 l 22.6016,-46.305 c 1.4649,-2.996 2.6641,-5.664 3.5981,-7.996 0.933,-2.336 1.761,-4.601 2.5,-6.808 h 0.199 c -0.27,2.336 -0.469,4.836 -0.602,7.5 -0.137,2.668 -0.199,5.742 -0.199,9.211 v 44.398 h 5.898 v -68.707 h -6.996 l -21.8004,44.309 c -1.9336,3.797 -3.3828,6.992 -4.3516,9.597 -0.9688,2.598 -1.8164,4.961 -2.5469,7.102 H 73.5 c 0.2656,-2.336 0.4492,-5.02 0.5508,-8.059 0.1015,-3.027 0.1484,-6.543 0.1484,-10.547 v -42.402 h -5.8984 v 68.707"
       style="fill:#808080;fill-opacity:1;fill-rule:nonzero;stroke:none"
       transform="matrix(0.13333333,0,0,-0.13333333,0,146.66667)"
       clip-path="url(#clipPath94)" />
    <path
       id="path95"
       d="m 146.695,526.398 c 3.867,0 7.067,0.516 9.598,1.551 2.535,1.035 4.551,2.688 6.055,4.953 1.5,2.266 2.55,5.184 3.148,8.75 0.602,3.563 0.899,7.91 0.899,13.047 0,5.332 -0.282,9.883 -0.848,13.653 -0.567,3.757 -1.586,6.836 -3.051,9.199 -1.465,2.363 -3.48,4.101 -6.051,5.195 -2.566,1.109 -5.816,1.652 -9.75,1.652 h -9.898 v -58 z m -16.199,63.305 h 15.5 c 4.867,0 9.016,-0.637 12.449,-1.898 3.434,-1.27 6.235,-3.301 8.403,-6.106 2.168,-2.801 3.75,-6.453 4.75,-10.945 1,-4.504 1.5,-9.953 1.5,-16.359 0,-6.192 -0.52,-11.426 -1.551,-15.692 -1.035,-4.269 -2.637,-7.726 -4.801,-10.351 -2.168,-2.637 -4.934,-4.524 -8.301,-5.657 -3.367,-1.133 -7.414,-1.699 -12.152,-1.699 h -15.797 v 68.707"
       style="fill:#808080;fill-opacity:1;fill-rule:nonzero;stroke:none"
       transform="matrix(0.13333333,0,0,-0.13333333,0,146.66667)"
       clip-path="url(#clipPath96)" />
    <path
       id="path97"
       d="m 238.594,568 c -1.133,3.797 -1.949,6.863 -2.449,9.199 -0.5,2.332 -0.915,4.461 -1.25,6.395 h -0.204 c -0.332,-1.934 -0.781,-4.09 -1.347,-6.492 -0.567,-2.403 -1.414,-5.442 -2.547,-9.102 l -6,-19.504 h 19.598 z m -22.301,-47.004 h -6.398 l 21.5,68.707 h 6.902 l 21,-68.707 h -6.801 l -6.5,22.102 h -22.898 l -6.805,-22.102"
       style="fill:#808080;fill-opacity:1;fill-rule:nonzero;stroke:none"
       transform="matrix(0.13333333,0,0,-0.13333333,0,146.66667)"
       clip-path="url(#clipPath98)" />
    <path
       id="path99"
       d="m 291.598,556.602 c 5.132,0 8.695,1.21 10.699,3.644 2,2.442 2.996,6.016 2.996,10.75 0,4.406 -1.051,7.715 -3.148,9.953 -2.102,2.235 -5.75,3.356 -10.95,3.356 h -10.703 v -27.703 z m -17.403,33.101 h 17.5 c 2.934,0 5.633,-0.367 8.102,-1.101 2.465,-0.735 4.578,-1.848 6.348,-3.352 1.765,-1.5 3.152,-3.414 4.148,-5.746 1,-2.336 1.504,-5.137 1.504,-8.41 0,-10.125 -4.27,-16.231 -12.805,-18.289 1.668,-0.676 3.188,-1.758 4.555,-3.254 1.363,-1.504 2.68,-3.953 3.949,-7.352 l 7.899,-21.203 h -6.801 l -7.598,20.305 c -0.801,2.058 -1.601,3.75 -2.402,5.047 -0.801,1.3 -1.684,2.316 -2.653,3.047 -0.964,0.734 -2.046,1.25 -3.246,1.554 -1.203,0.301 -2.601,0.449 -4.199,0.449 h -8.004 v -30.402 h -6.297 v 68.707"
       style="fill:#808080;fill-opacity:1;fill-rule:nonzero;stroke:none"
       transform="matrix(0.13333333,0,0,-0.13333333,0,146.66667)"
       clip-path="url(#clipPath100)" />
    <path
       id="path101"
       d="m 342.004,584.305 h -16.902 v 5.398 h 40.097 v -5.398 h -16.898 v -63.309 h -6.297 v 63.309"
       style="fill:#808080;fill-opacity:1;fill-rule:nonzero;stroke:none"
       transform="matrix(0.13333333,0,0,-0.13333333,0,146.66667)"
       clip-path="url(#clipPath102)" />
    <path
       id="path103"
       d="m 395.691,520 c -4.336,0 -8.246,0.754 -11.746,2.246 -3.5,1.504 -6.418,3.418 -8.75,5.754 l 3.2,4.5 c 2.332,-2.195 4.832,-3.934 7.5,-5.203 2.664,-1.262 5.8,-1.895 9.398,-1.895 5.066,0 8.699,1.153 10.902,3.446 2.2,2.304 3.297,5.519 3.297,9.648 0,2.336 -0.297,4.289 -0.898,5.852 -0.602,1.57 -1.5,2.937 -2.699,4.101 -1.204,1.16 -2.688,2.196 -4.45,3.106 -1.765,0.898 -3.785,1.804 -6.05,2.742 -2.536,1.066 -4.821,2.148 -6.848,3.254 -2.039,1.101 -3.75,2.383 -5.152,3.847 -1.403,1.465 -2.489,3.204 -3.25,5.204 -0.77,1.992 -1.153,4.394 -1.153,7.199 0,5.469 1.668,9.629 5,12.5 3.336,2.867 7.703,4.301 13.102,4.301 3.73,0 6.816,-0.403 9.25,-1.204 2.433,-0.796 4.679,-1.929 6.754,-3.394 l -2.703,-4.91 c -1.934,1.34 -3.918,2.375 -5.954,3.105 -2.031,0.735 -4.382,1.106 -7.046,1.106 -3.54,0 -6.454,-0.907 -8.75,-2.707 -2.301,-1.797 -3.45,-4.668 -3.45,-8.602 0,-1.992 0.25,-3.684 0.746,-5.051 0.504,-1.367 1.25,-2.547 2.25,-3.543 1.004,-1.007 2.289,-1.925 3.856,-2.754 1.562,-0.832 3.445,-1.679 5.648,-2.55 2.797,-1.133 5.313,-2.293 7.547,-3.496 2.235,-1.2 4.153,-2.606 5.754,-4.2 1.598,-1.601 2.832,-3.484 3.695,-5.652 0.871,-2.168 1.305,-4.855 1.305,-8.047 0,-2.539 -0.371,-4.941 -1.101,-7.207 -0.735,-2.266 -1.903,-4.25 -3.5,-5.949 -1.598,-1.699 -3.7,-3.047 -6.301,-4.051 C 402.496,520.5 399.359,520 395.691,520"
       style="fill:#808080;fill-opacity:1;fill-rule:nonzero;stroke:none"
       transform="matrix(0.13333333,0,0,-0.13333333,0,146.66667)"
       clip-path="url(#clipPath104)" />
    <path
       id="path105"
       d="m 6.60156,421.301 h 39.1992 v 5.19531 H 6.60156 Z"
       style="fill:#808080;fill-opacity:1;fill-rule:nonzero;stroke:none"
       transform="matrix(0.13333333,0,0,-0.13333333,0,146.66667)"
       clip-path="url(#clipPath106)" />
    <path
       id="path107"
       d="m 24.1992,274.902 -0.7969,-3.906 H 0 l 0.800781,3.906 7.300779,0.598 12.60154,59.598 -6.9062,0.703 0.8008,3.898 h 41.0039 l -2.5,-13.801 H 49 l 0.1992,9.297 H 27.3008 l -5.4024,-25.898 h 15.7032 l 2.8007,7.004 H 44 l -4.0977,-18.399 h -3.5 l 0.1993,6.895 H 20.9023 l -6.1992,-29.199 9.4961,-0.696"
       style="fill:#808080;fill-opacity:1;fill-rule:nonzero;stroke:none"
       transform="matrix(0.13333333,0,0,-0.13333333,0,146.66667)"
       clip-path="url(#clipPath108)" />
    <path
       id="path109"
       d="m 67.0078,274.699 c 1.2656,0 2.5469,0.254 3.8477,0.75 1.3007,0.5 2.5507,1.113 3.75,1.848 1.1992,0.73 2.3515,1.531 3.4492,2.402 1.1015,0.867 2.082,1.668 2.9531,2.403 l 5.7969,27.695 c -1.4688,1.738 -3.0664,3.172 -4.7969,4.305 -1.7344,1.132 -3.8359,1.699 -6.3008,1.699 -4.3984,0 -7.8711,-2.5 -10.3984,-7.5 -0.8008,-1.531 -1.5391,-3.27 -2.2031,-5.203 -0.6641,-1.934 -1.25,-3.946 -1.75,-6.047 -0.5,-2.098 -0.9024,-4.188 -1.1993,-6.25 -0.2968,-2.071 -0.4492,-4.004 -0.4492,-5.801 0,-3.465 0.6289,-6.055 1.8985,-7.754 1.2656,-1.699 3.0664,-2.547 5.4023,-2.547 z m 13.3008,3.106 C 79.3047,276.867 78.2734,275.93 77.207,275 c -1.0703,-0.938 -2.2382,-1.766 -3.5,-2.5 -1.2656,-0.73 -2.5976,-1.336 -4,-1.797 C 68.3047,270.234 66.7734,270 65.1055,270 c -3.3321,0 -6.1485,1.203 -8.4493,3.594 -2.3007,2.402 -3.4492,6.242 -3.4492,11.504 0,2.402 0.1992,4.972 0.6016,7.707 0.3945,2.722 0.9961,5.41 1.7969,8.047 0.8007,2.625 1.8007,5.117 3.0039,7.449 1.1953,2.336 2.5976,4.328 4.1992,5.996 1.7305,2.07 3.6328,3.566 5.6992,4.504 2.0625,0.926 4.3281,1.394 6.8008,1.394 2.7969,0 5.2266,-0.644 7.2969,-1.941 2.0664,-1.301 3.7656,-2.754 5.1015,-4.356 l 2.8008,5.301 h 4.8008 l -8.4024,-39.004 c -0.2031,-0.859 -0.3671,-1.648 -0.5,-2.343 -0.1367,-0.704 -0.1992,-1.219 -0.1992,-1.551 0,-0.801 0.461,-1.203 1.3985,-1.203 h 5.8047 V 272.5 c -3.4688,-1.668 -6.3399,-2.5 -8.6055,-2.5 -1.332,0 -2.3477,0.234 -3.0469,0.703 -0.7031,0.461 -1.1875,1.074 -1.4492,1.848 -0.2695,0.761 -0.3672,1.601 -0.3047,2.5 0.0703,0.898 0.168,1.816 0.3047,2.754"
       style="fill:#808080;fill-opacity:1;fill-rule:nonzero;stroke:none"
       transform="matrix(0.13333333,0,0,-0.13333333,0,146.66667)"
       clip-path="url(#clipPath110)" />
    <path
       id="path111"
       d="m 146.605,319.199 -21.8,-21.394 9.597,-20.703 c 0.332,-0.735 0.703,-1.25 1.102,-1.555 0.398,-0.301 1.101,-0.449 2.101,-0.449 h 4.297 V 272.5 c -1.332,-0.73 -2.617,-1.336 -3.843,-1.797 -1.239,-0.469 -2.418,-0.703 -3.551,-0.703 -1.473,0 -2.57,0.43 -3.301,1.301 -0.738,0.867 -1.402,1.961 -2.004,3.301 l -10.801,23.203 21.305,21.394 z m -36.101,-48.203 h -6.195 l 14.199,66.602 -6.301,1.3 0.797,3.797 h 12.699 l -15.199,-71.699"
       style="fill:#808080;fill-opacity:1;fill-rule:nonzero;stroke:none"
       transform="matrix(0.13333333,0,0,-0.13333333,0,146.66667)"
       clip-path="url(#clipPath112)" />
    <path
       id="path113"
       d="m 178.301,277.805 c -2.598,-2.278 -5.215,-4.141 -7.848,-5.606 -2.637,-1.465 -5.418,-2.199 -8.351,-2.199 -3,0 -5.383,0.762 -7.153,2.297 -1.765,1.531 -2.648,3.797 -2.648,6.805 0,0.664 0.035,1.378 0.101,2.148 0.063,0.762 0.2,1.68 0.403,2.746 l 6.398,30.203 -6.101,1.106 0.8,3.894 h 12.801 l -7.301,-34.5 c -0.199,-0.996 -0.347,-1.836 -0.453,-2.5 -0.097,-0.664 -0.144,-1.269 -0.144,-1.797 0,-3.672 1.761,-5.5 5.297,-5.5 2.535,0 5,0.664 7.402,1.993 2.398,1.339 4.863,2.968 7.398,4.902 l 7.899,37.402 h 6.402 L 185,280.195 c -0.199,-0.859 -0.367,-1.648 -0.496,-2.343 -0.141,-0.704 -0.203,-1.219 -0.203,-1.551 0,-0.801 0.433,-1.203 1.301,-1.203 h 5.902 V 272.5 c -3.535,-1.668 -6.438,-2.5 -8.699,-2.5 -1.336,0 -2.336,0.195 -3.004,0.598 -0.664,0.398 -1.133,0.957 -1.399,1.648 -0.265,0.703 -0.382,1.516 -0.351,2.453 0.035,0.938 0.117,1.961 0.25,3.106"
       style="fill:#808080;fill-opacity:1;fill-rule:nonzero;stroke:none"
       transform="matrix(0.13333333,0,0,-0.13333333,0,146.66667)"
       clip-path="url(#clipPath114)" />
    <path
       id="path115"
       d="m 216.195,337.598 -6.297,1.3 0.801,3.797 h 12.797 L 210,280.195 c -0.199,-0.859 -0.371,-1.648 -0.504,-2.343 -0.133,-0.704 -0.199,-1.219 -0.199,-1.551 0,-0.801 0.433,-1.203 1.305,-1.203 H 216.5 V 272.5 c -3.469,-1.668 -6.336,-2.5 -8.602,-2.5 -3.402,0 -5.101,1.496 -5.101,4.504 0,0.398 0.035,0.828 0.101,1.297 0.067,0.461 0.164,0.969 0.301,1.496 l 12.996,60.301"
       style="fill:#808080;fill-opacity:1;fill-rule:nonzero;stroke:none"
       transform="matrix(0.13333333,0,0,-0.13333333,0,146.66667)"
       clip-path="url(#clipPath116)" />
    <path
       id="path117"
       d="m 232.797,319.199 h 5.699 l 2.805,12.696 6.297,1.503 -3.004,-14.199 h 10 l -0.899,-4.402 h -9.894 l -7.406,-34.699 c -0.129,-0.536 -0.235,-1.016 -0.297,-1.446 -0.067,-0.437 -0.102,-0.847 -0.102,-1.25 0,-1.875 1.332,-2.8 4,-2.8 0.731,0 1.566,0.078 2.5,0.242 0.934,0.168 1.899,0.422 2.899,0.754 l 0.304,-3.098 c -1.203,-0.664 -2.57,-1.25 -4.101,-1.746 -1.536,-0.508 -3.168,-0.754 -4.903,-0.754 -1.797,0 -3.433,0.449 -4.898,1.348 -1.469,0.898 -2.203,2.414 -2.203,4.55 0,0.598 0.035,1.184 0.101,1.75 0.067,0.567 0.203,1.25 0.403,2.051 l 7.5,35.098 h -5.801 l 1,4.402"
       style="fill:#808080;fill-opacity:1;fill-rule:nonzero;stroke:none"
       transform="matrix(0.13333333,0,0,-0.13333333,0,146.66667)"
       clip-path="url(#clipPath118)" />
    <path
       id="path119"
       d="m 295.496,326.496 c -1.332,0 -2.449,0.457 -3.348,1.356 -0.902,0.898 -1.351,2.05 -1.351,3.449 0,1.328 0.449,2.449 1.351,3.347 0.899,0.899 2.016,1.348 3.348,1.348 1.336,0 2.453,-0.449 3.352,-1.348 0.898,-0.898 1.347,-2.019 1.347,-3.347 0,-1.399 -0.449,-2.551 -1.347,-3.449 -0.899,-0.899 -2.016,-1.356 -3.352,-1.356 z m -17.601,0 c -1.333,0 -2.446,0.457 -3.348,1.356 -0.899,0.898 -1.348,2.05 -1.348,3.449 0,1.328 0.449,2.449 1.348,3.347 0.902,0.899 2.015,1.348 3.348,1.348 1.335,0 2.453,-0.449 3.351,-1.348 0.902,-0.898 1.352,-2.019 1.352,-3.347 0,-1.399 -0.45,-2.551 -1.352,-3.449 -0.898,-0.899 -2.016,-1.356 -3.351,-1.356 z m -5.297,-51.797 c 1.265,0 2.547,0.254 3.847,0.75 1.305,0.5 2.555,1.113 3.75,1.848 1.2,0.73 2.356,1.531 3.453,2.402 1.098,0.867 2.079,1.668 2.95,2.403 l 5.8,27.695 c -1.468,1.738 -3.066,3.172 -4.8,4.305 -1.735,1.132 -3.832,1.699 -6.297,1.699 -4.403,0 -7.871,-2.5 -10.403,-7.5 -0.8,-1.531 -1.539,-3.27 -2.203,-5.203 -0.664,-1.934 -1.25,-3.946 -1.746,-6.047 -0.504,-2.098 -0.902,-4.188 -1.203,-6.25 -0.297,-2.071 -0.449,-4.004 -0.449,-5.801 0,-3.465 0.633,-6.055 1.898,-7.754 1.266,-1.699 3.071,-2.547 5.403,-2.547 z m 13.3,3.106 c -1,-0.938 -2.035,-1.875 -3.101,-2.805 -1.067,-0.938 -2.235,-1.766 -3.5,-2.5 -1.266,-0.73 -2.598,-1.336 -4,-1.797 -1.402,-0.469 -2.934,-0.703 -4.598,-0.703 -3.336,0 -6.152,1.203 -8.453,3.594 -2.301,2.402 -3.445,6.242 -3.445,11.504 0,2.402 0.199,4.972 0.597,7.707 0.399,2.722 0.997,5.41 1.797,8.047 0.801,2.625 1.801,5.117 3.004,7.449 1.196,2.336 2.598,4.328 4.199,5.996 1.735,2.07 3.633,3.566 5.7,4.504 2.062,0.926 4.332,1.394 6.8,1.394 2.797,0 5.231,-0.644 7.301,-1.941 2.067,-1.301 3.766,-2.754 5.098,-4.356 l 2.801,5.301 h 4.8 l -8.402,-39.004 c -0.199,-0.859 -0.367,-1.648 -0.5,-2.343 -0.137,-0.704 -0.199,-1.219 -0.199,-1.551 0,-0.801 0.465,-1.203 1.402,-1.203 H 299 V 272.5 c -3.469,-1.668 -6.34,-2.5 -8.605,-2.5 -1.333,0 -2.348,0.234 -3.047,0.703 -0.703,0.461 -1.188,1.074 -1.45,1.848 -0.269,0.761 -0.367,1.601 -0.3,2.5 0.066,0.898 0.164,1.816 0.3,2.754"
       style="fill:#808080;fill-opacity:1;fill-rule:nonzero;stroke:none"
       transform="matrix(0.13333333,0,0,-0.13333333,0,146.66667)"
       clip-path="url(#clipPath120)" />
    <path
       id="path121"
       d="m 314.496,319.199 h 5.699 l 2.801,12.696 6.301,1.503 -3.004,-14.199 h 10 l -0.898,-4.402 h -9.899 l -7.398,-34.699 c -0.133,-0.536 -0.239,-1.016 -0.301,-1.446 -0.067,-0.437 -0.102,-0.847 -0.102,-1.25 0,-1.875 1.332,-2.8 4,-2.8 0.731,0 1.567,0.078 2.5,0.242 0.934,0.168 1.899,0.422 2.899,0.754 l 0.304,-3.098 c -1.203,-0.664 -2.57,-1.25 -4.101,-1.746 -1.535,-0.508 -3.168,-0.754 -4.902,-0.754 -1.797,0 -3.434,0.449 -4.899,1.348 -1.469,0.898 -2.203,2.414 -2.203,4.55 0,0.598 0.035,1.184 0.102,1.75 0.066,0.567 0.203,1.25 0.402,2.051 l 7.5,35.098 h -5.801 l 1,4.402"
       style="fill:#808080;fill-opacity:1;fill-rule:nonzero;stroke:none"
       transform="matrix(0.13333333,0,0,-0.13333333,0,146.66667)"
       clip-path="url(#clipPath122)" />
    <path
       id="path123"
       d="m 357.191,274.902 7.301,0.598 12.602,59.598 -6.903,0.703 0.801,3.898 h 20.801 l -0.801,-3.898 -7.301,-0.703 -12.597,-59.598 6.898,-0.598 -0.695,-3.906 h -20.906 l 0.8,3.906"
       style="fill:#808080;fill-opacity:1;fill-rule:nonzero;stroke:none"
       transform="matrix(0.13333333,0,0,-0.13333333,0,146.66667)"
       clip-path="url(#clipPath124)" />
    <path
       id="path125"
       d="m 433.395,335.801 0.8,3.898 h 19.5 l -0.8,-3.898 -6.297,-0.703 -33.004,-64.102 h -5.801 l -5.699,64.102 -5.699,0.703 0.796,3.898 h 19.606 l -0.801,-3.898 -7.203,-0.703 3.398,-43.301 c 0.204,-2.859 0.321,-5.613 0.352,-8.25 0.035,-2.629 -0.047,-4.844 -0.246,-6.652 h 0.199 c 0.664,1.738 1.43,3.839 2.301,6.308 0.863,2.461 2.062,5.227 3.598,8.293 l 22,43.504 -7,0.801"
       style="fill:#808080;fill-opacity:1;fill-rule:nonzero;stroke:none"
       transform="matrix(0.13333333,0,0,-0.13333333,0,146.66667)"
       clip-path="url(#clipPath126)" />
    <path
       id="path127"
       d="m 49.5977,191.797 c -0.0625,3.605 -0.0625,6.601 0,9.004 0.0703,2.402 0.2031,4.629 0.4023,6.699 h -0.0977 c -0.6015,-2.07 -1.2851,-4.363 -2.0507,-6.902 -0.7657,-2.532 -1.918,-5.43 -3.4532,-8.703 L 23.5,145.996 h -7.2969 v 64.102 l -5.6992,0.703 0.793,3.898 H 30.9023 L 30.1016,210.801 22.9023,210.098 22.5,166.602 c -0.0703,-2.872 -0.1836,-5.555 -0.3477,-8.055 -0.1718,-2.5 -0.3828,-4.953 -0.6523,-7.344 h 0.1016 c 0.4023,1.199 0.7812,2.363 1.1484,3.496 0.3633,1.133 0.7656,2.285 1.1992,3.446 0.4375,1.171 0.918,2.421 1.4531,3.75 0.5313,1.339 1.1641,2.832 1.8985,4.503 l 21.6015,48.301 h 6.5 l 0.8008,-47.902 c 0.0625,-3.133 0.0313,-5.985 -0.1054,-8.543 -0.1289,-2.57 -0.2618,-4.922 -0.3946,-7.051 h 0.1992 c 0.5313,2.059 1.1836,4.297 1.9493,6.699 0.7656,2.403 1.7812,5.125 3.0507,8.192 L 79.1016,210 l -7.0977,0.801 0.7969,3.898 h 19.5 l -0.8008,-3.898 -6.3008,-0.703 -27.5,-64.102 h -7.2969 l -0.8046,45.801"
       style="fill:#808080;fill-opacity:1;fill-rule:nonzero;stroke:none"
       transform="matrix(0.13333333,0,0,-0.13333333,0,146.66667)"
       clip-path="url(#clipPath128)" />
    <path
       id="path129"
       d="m 103.805,204.902 c -1.403,0 -2.555,0.461 -3.453,1.399 -0.8989,0.926 -1.3481,2.097 -1.3481,3.496 0,1.406 0.4492,2.566 1.3481,3.504 0.898,0.929 2.05,1.398 3.453,1.398 1.394,0 2.562,-0.449 3.496,-1.347 0.929,-0.899 1.398,-2.09 1.398,-3.555 0,-1.399 -0.445,-2.57 -1.344,-3.496 -0.906,-0.938 -2.085,-1.399 -3.55,-1.399 z m -6.305,-15.8 -6.3984,1.3 0.9023,3.797 h 12.7971 l -8.2971,-39.004 c -0.1992,-0.859 -0.3711,-1.648 -0.5039,-2.343 -0.1328,-0.704 -0.1992,-1.219 -0.1992,-1.551 0,-0.801 0.4336,-1.203 1.2969,-1.203 h 5.9063 V 147.5 c -3.5352,-1.668 -6.4376,-2.5 -8.7032,-2.5 -3.2656,0 -4.9649,1.496 -5.1016,4.504 0,0.398 0.0352,0.828 0.1016,1.297 0.0625,0.461 0.168,0.969 0.2969,1.496 L 97.5,189.102"
       style="fill:#808080;fill-opacity:1;fill-rule:nonzero;stroke:none"
       transform="matrix(0.13333333,0,0,-0.13333333,0,146.66667)"
       clip-path="url(#clipPath130)" />
    <path
       id="path131"
       d="m 128.902,185.402 c 2.664,3.133 5.246,5.547 7.746,7.246 2.5,1.7 5.418,2.547 8.75,2.547 l -0.597,-6.601 c -3.399,0.136 -6.367,-0.457 -8.903,-1.797 -2.535,-1.328 -4.964,-2.996 -7.3,-5 l -7.7,-35.801 h -6.195 l 9.297,43.106 -6.301,1.3 0.801,3.797 h 10.898 l -0.496,-8.797"
       style="fill:#808080;fill-opacity:1;fill-rule:nonzero;stroke:none"
       transform="matrix(0.13333333,0,0,-0.13333333,0,146.66667)"
       clip-path="url(#clipPath132)" />
    <path
       id="path133"
       d="m 153.398,194.199 h 5.7 l 2.8,12.696 6.301,1.503 -3.004,-14.199 h 10 l -0.898,-4.402 h -9.899 l -7.402,-34.699 c -0.133,-0.536 -0.234,-1.016 -0.297,-1.446 -0.066,-0.437 -0.101,-0.847 -0.101,-1.25 0,-1.875 1.332,-2.8 4,-2.8 0.73,0 1.566,0.078 2.5,0.242 0.929,0.168 1.898,0.422 2.898,0.754 l 0.305,-3.098 c -1.203,-0.664 -2.571,-1.25 -4.106,-1.746 -1.531,-0.508 -3.168,-0.754 -4.898,-0.754 -1.801,0 -3.434,0.449 -4.899,1.348 -1.468,0.898 -2.203,2.414 -2.203,4.55 0,0.598 0.035,1.184 0.102,1.75 0.062,0.567 0.199,1.25 0.402,2.051 l 7.5,35.098 h -5.801 l 1,4.402"
       style="fill:#808080;fill-opacity:1;fill-rule:nonzero;stroke:none"
       transform="matrix(0.13333333,0,0,-0.13333333,0,146.66667)"
       clip-path="url(#clipPath134)" />
    <path
       id="path135"
       d="m 190.598,145 c -3.2,0 -5.996,0.469 -8.403,1.398 -2.394,0.938 -4.336,2.098 -5.8,3.504 l 1.703,9.2 h 4.203 v -7.704 c 1.133,-0.734 2.383,-1.3 3.75,-1.699 1.359,-0.402 3.011,-0.597 4.945,-0.597 3.535,0 6.199,0.851 8.004,2.55 1.797,1.7 2.699,3.985 2.699,6.844 0,1.203 -0.152,2.266 -0.449,3.203 -0.305,0.93 -0.785,1.797 -1.449,2.598 -0.668,0.801 -1.571,1.582 -2.699,2.355 -1.141,0.762 -2.5,1.551 -4.106,2.344 -1.398,0.672 -2.684,1.387 -3.851,2.156 -1.165,0.762 -2.18,1.653 -3.047,2.649 -0.868,0.996 -1.551,2.117 -2.051,3.347 -0.496,1.231 -0.75,2.688 -0.75,4.348 0,4.207 1.367,7.539 4.101,10 2.735,2.469 6.567,3.699 11.497,3.699 2.406,0 4.636,-0.312 6.703,-0.945 2.062,-0.637 3.898,-1.516 5.5,-2.648 l -1.801,-9.5 H 205 v 7.5 c -0.801,0.468 -1.738,0.828 -2.805,1.101 -1.062,0.266 -2.332,0.391 -3.797,0.391 -2.8,0 -5.035,-0.692 -6.699,-2.098 -1.672,-1.398 -2.5,-3.469 -2.5,-6.191 0,-2.071 0.512,-3.723 1.547,-4.953 1.035,-1.239 2.949,-2.52 5.754,-3.856 3.93,-1.934 6.797,-3.945 8.598,-6.047 1.8,-2.097 2.699,-4.785 2.699,-8.047 0,-2.539 -0.434,-4.734 -1.297,-6.601 -0.871,-1.863 -2.07,-3.418 -3.605,-4.649 -1.532,-1.238 -3.348,-2.156 -5.45,-2.754 -2.097,-0.593 -4.383,-0.898 -6.847,-0.898"
       style="fill:#808080;fill-opacity:1;fill-rule:nonzero;stroke:none"
       transform="matrix(0.13333333,0,0,-0.13333333,0,146.66667)"
       clip-path="url(#clipPath136)" />
    <path
       id="path137"
       d="m 234.898,145 c -4.668,0 -8.382,1.398 -11.148,4.199 -2.77,2.805 -4.148,7.239 -4.148,13.301 0,1.867 0.144,3.82 0.449,5.852 0.297,2.031 0.695,4.011 1.199,5.945 0.496,1.933 1.098,3.769 1.797,5.5 0.703,1.738 1.449,3.301 2.25,4.707 2.265,3.926 5.015,6.699 8.254,8.301 3.23,1.59 6.679,2.39 10.344,2.39 5.203,0 9.367,-1.199 12.5,-3.593 l -1.7,-9.403 h -4.3 v 7.5 c -1.864,0.938 -4.032,1.395 -6.5,1.395 -2.864,0 -5.481,-0.828 -7.844,-2.5 -2.367,-1.66 -4.321,-4.199 -5.852,-7.598 -0.597,-1.269 -1.137,-2.715 -1.601,-4.344 -0.469,-1.64 -0.883,-3.32 -1.25,-5.05 -0.368,-1.739 -0.649,-3.457 -0.848,-5.157 -0.199,-1.699 -0.305,-3.281 -0.305,-4.746 0,-8.133 3.571,-12.195 10.703,-12.195 2.266,0 4.317,0.293 6.149,0.898 1.836,0.594 3.918,1.727 6.25,3.399 l 1.699,-3 c -2.195,-2.207 -4.766,-3.719 -7.699,-4.551 -2.938,-0.828 -5.735,-1.25 -8.399,-1.25"
       style="fill:#808080;fill-opacity:1;fill-rule:nonzero;stroke:none"
       transform="matrix(0.13333333,0,0,-0.13333333,0,146.66667)"
       clip-path="url(#clipPath138)" />
    <path
       id="path139"
       d="m 295.098,180.5 c 0.332,1.668 0.5,2.93 0.5,3.797 0,1.867 -0.438,3.234 -1.301,4.101 -0.863,0.872 -2.266,1.301 -4.199,1.301 -2.203,0 -4.551,-0.664 -7.051,-2.004 -2.5,-1.328 -5.016,-3.027 -7.551,-5.097 l -7.801,-36.602 H 261.5 l 14.199,66.602 -6.301,1.3 0.797,3.797 h 12.801 l -6.601,-30.8 c 2.265,2.335 4.816,4.308 7.652,5.91 2.832,1.59 5.648,2.39 8.449,2.39 3,0 5.336,-0.828 7,-2.5 1.664,-1.66 2.5,-4.129 2.5,-7.39 0,-0.606 -0.047,-1.27 -0.148,-2.004 -0.102,-0.731 -0.215,-1.504 -0.348,-2.305 l -5.504,-25.691 c -0.465,-1.946 -0.699,-3.243 -0.699,-3.907 0,-0.871 0.5,-1.3 1.5,-1.3 h 5.601 V 147.5 c -1.336,-0.73 -2.769,-1.316 -4.3,-1.746 -1.536,-0.442 -2.868,-0.656 -4,-0.656 -3.536,0 -5.297,1.504 -5.297,4.504 0,0.527 0.047,1.062 0.144,1.601 0.102,0.527 0.219,1.199 0.352,2 l 5.801,27.297"
       style="fill:#808080;fill-opacity:1;fill-rule:nonzero;stroke:none"
       transform="matrix(0.13333333,0,0,-0.13333333,0,146.66667)"
       clip-path="url(#clipPath140)" />
    <path
       id="path141"
       d="m 326.996,149.699 c 1.266,0 2.551,0.254 3.848,0.75 1.304,0.5 2.554,1.113 3.75,1.848 1.203,0.73 2.355,1.531 3.453,2.402 1.098,0.867 2.082,1.668 2.949,2.403 l 5.801,27.695 c -1.469,1.738 -3.067,3.172 -4.801,4.305 -1.73,1.132 -3.832,1.699 -6.297,1.699 -4.398,0 -7.871,-2.5 -10.402,-7.5 -0.801,-1.531 -1.535,-3.27 -2.199,-5.203 -0.664,-1.934 -1.25,-3.946 -1.75,-6.047 -0.504,-2.098 -0.903,-4.188 -1.203,-6.25 -0.297,-2.071 -0.45,-4.004 -0.45,-5.801 0,-3.465 0.633,-6.055 1.903,-7.754 1.261,-1.699 3.066,-2.547 5.398,-2.547 z m 13.301,3.106 c -1,-0.938 -2.035,-1.875 -3.102,-2.805 -1.066,-0.938 -2.234,-1.766 -3.5,-2.5 -1.261,-0.73 -2.597,-1.336 -4,-1.797 -1.398,-0.469 -2.933,-0.703 -4.597,-0.703 -3.336,0 -6.153,1.203 -8.453,3.594 -2.297,2.402 -3.446,6.242 -3.446,11.504 0,2.402 0.199,4.972 0.602,7.707 0.394,2.722 0.996,5.41 1.797,8.047 0.797,2.625 1.8,5.117 3,7.449 1.199,2.336 2.597,4.328 4.199,5.996 1.734,2.07 3.633,3.566 5.699,4.504 2.066,0.926 4.332,1.394 6.801,1.394 2.801,0 5.23,-0.644 7.301,-1.941 2.066,-1.301 3.765,-2.754 5.097,-4.356 l 2.801,5.301 h 4.801 l -8.402,-39.004 c -0.2,-0.859 -0.368,-1.648 -0.5,-2.343 -0.133,-0.704 -0.2,-1.219 -0.2,-1.551 0,-0.801 0.465,-1.203 1.403,-1.203 h 5.8 V 147.5 c -3.464,-1.668 -6.336,-2.5 -8.601,-2.5 -1.336,0 -2.352,0.234 -3.051,0.703 -0.699,0.461 -1.184,1.074 -1.449,1.848 -0.27,0.761 -0.363,1.601 -0.301,2.5 0.066,0.898 0.164,1.816 0.301,2.754"
       style="fill:#808080;fill-opacity:1;fill-rule:nonzero;stroke:none"
       transform="matrix(0.13333333,0,0,-0.13333333,0,146.66667)"
       clip-path="url(#clipPath142)" />
    <path
       id="path143"
       d="m 396.289,212.402 c -0.801,0.403 -1.664,0.735 -2.598,0.996 -0.937,0.266 -2.097,0.403 -3.5,0.403 -2.336,0 -4.199,-0.664 -5.601,-2.004 -1.402,-1.328 -2.399,-3.535 -2.996,-6.602 l -2.203,-10.996 h 9.398 l -1,-4.402 h -9.398 l -8.899,-45.996 c -0.469,-2.403 -1.07,-4.531 -1.801,-6.399 -0.734,-1.863 -1.617,-3.554 -2.652,-5.058 -1.035,-1.492 -2.266,-2.832 -3.695,-3.992 -1.438,-1.164 -3.121,-2.286 -5.055,-3.352 l -1.797,2.902 c 0.996,0.664 1.949,1.434 2.848,2.293 0.902,0.871 1.738,1.953 2.5,3.254 0.765,1.297 1.465,2.879 2.098,4.754 0.636,1.867 1.214,4.16 1.753,6.895 l 8.5,44.699 h -5.703 l 1,4.402 h 5.805 l 2.195,11.301 c 0.469,2.402 1.188,4.414 2.153,6.055 0.968,1.629 2.082,2.949 3.351,3.945 1.266,0.996 2.653,1.727 4.149,2.195 1.5,0.469 3.047,0.703 4.648,0.703 1.602,0 3.02,-0.164 4.25,-0.496 1.234,-0.332 2.414,-0.871 3.555,-1.601 l -1.305,-3.899"
       style="fill:#808080;fill-opacity:1;fill-rule:nonzero;stroke:none"
       transform="matrix(0.13333333,0,0,-0.13333333,0,146.66667)"
       clip-path="url(#clipPath144)" />
    <path
       id="path145"
       d="m 395.492,194.199 h 5.699 l 2.801,12.696 6.301,1.503 -3.004,-14.199 h 10 l -0.898,-4.402 h -9.899 l -7.398,-34.699 c -0.133,-0.536 -0.239,-1.016 -0.301,-1.446 -0.066,-0.437 -0.102,-0.847 -0.102,-1.25 0,-1.875 1.332,-2.8 4,-2.8 0.731,0 1.567,0.078 2.5,0.242 0.93,0.168 1.899,0.422 2.899,0.754 l 0.305,-3.098 c -1.204,-0.664 -2.571,-1.25 -4.102,-1.746 -1.535,-0.508 -3.172,-0.754 -4.902,-0.754 -1.797,0 -3.434,0.449 -4.899,1.348 -1.469,0.898 -2.203,2.414 -2.203,4.55 0,0.598 0.035,1.184 0.106,1.75 0.062,0.567 0.199,1.25 0.398,2.051 l 7.5,35.098 h -5.801 l 1,4.402"
       style="fill:#808080;fill-opacity:1;fill-rule:nonzero;stroke:none"
       transform="matrix(0.13333333,0,0,-0.13333333,0,146.66667)"
       clip-path="url(#clipPath146)" />
    <path
       id="path147"
       d="m 469.691,152.805 c -2.597,-2.278 -5.214,-4.141 -7.839,-5.606 -2.637,-1.465 -5.422,-2.199 -8.36,-2.199 -3,0 -5.383,0.762 -7.148,2.297 -1.77,1.531 -2.649,3.797 -2.649,6.805 0,0.664 0.032,1.378 0.098,2.148 0.07,0.762 0.207,1.68 0.402,2.746 l 6.407,30.203 -6.106,1.106 0.801,3.894 h 12.805 l -7.305,-34.5 c -0.195,-0.996 -0.352,-1.836 -0.449,-2.5 -0.098,-0.664 -0.149,-1.269 -0.149,-1.797 0,-3.672 1.758,-5.5 5.293,-5.5 2.539,0 5,0.664 7.403,1.993 2.402,1.339 4.863,2.968 7.402,4.902 l 7.902,37.402 h 6.395 l -8.203,-39.004 c -0.196,-0.859 -0.36,-1.648 -0.496,-2.343 -0.137,-0.704 -0.196,-1.219 -0.196,-1.551 0,-0.801 0.43,-1.203 1.297,-1.203 h 5.899 V 147.5 c -3.536,-1.668 -6.434,-2.5 -8.7,-2.5 -1.328,0 -2.336,0.195 -3,0.598 -0.664,0.398 -1.133,0.957 -1.394,1.648 -0.274,0.703 -0.391,1.516 -0.352,2.453 0.028,0.938 0.117,1.961 0.242,3.106"
       style="fill:#808080;fill-opacity:1;fill-rule:nonzero;stroke:none"
       transform="matrix(0.13333333,0,0,-0.13333333,0,146.66667)"
       clip-path="url(#clipPath148)" />
    <path
       id="path149"
       d="m 529.098,155.305 c -0.469,-1.946 -0.703,-3.243 -0.703,-3.907 0,-0.871 0.535,-1.3 1.601,-1.3 h 5.594 V 147.5 c -1.395,-0.73 -2.86,-1.316 -4.395,-1.746 -1.531,-0.442 -2.871,-0.656 -4.004,-0.656 -3.535,0 -5.293,1.504 -5.293,4.504 0,0.527 0.059,1.062 0.196,1.601 0.136,0.527 0.265,1.199 0.402,2 l 5.703,27.297 c 0.332,1.668 0.496,2.93 0.496,3.797 0,1.867 -0.437,3.234 -1.297,4.101 -0.871,0.872 -2.265,1.301 -4.199,1.301 -2.207,0 -4.551,-0.664 -7.051,-2.004 -2.5,-1.328 -5.019,-3.027 -7.55,-5.097 l -7.801,-36.602 h -6.203 l 9.199,43.106 -6.297,1.3 0.801,3.797 h 10.898 l -0.402,-7.801 c 2.336,2.54 5,4.637 8,6.297 3.008,1.672 5.937,2.5 8.797,2.5 3.008,0 5.344,-0.828 7.004,-2.5 1.668,-1.66 2.5,-4.129 2.5,-7.39 0,-0.606 -0.051,-1.27 -0.149,-2.004 -0.097,-0.731 -0.215,-1.504 -0.351,-2.305 l -5.496,-25.691"
       style="fill:#808080;fill-opacity:1;fill-rule:nonzero;stroke:none"
       transform="matrix(0.13333333,0,0,-0.13333333,0,146.66667)"
       clip-path="url(#clipPath150)" />
    <path
       id="path151"
       d="m 560.289,149.797 c 1.406,0 2.754,0.254 4.051,0.75 1.301,0.5 2.57,1.113 3.801,1.855 1.238,0.735 2.382,1.516 3.457,2.344 1.062,0.84 2.031,1.621 2.898,2.356 l 5.793,27.695 c -1.465,1.738 -3.098,3.172 -4.894,4.305 -1.805,1.132 -3.934,1.699 -6.407,1.699 -4.265,0 -7.734,-2.5 -10.398,-7.5 -0.801,-1.531 -1.543,-3.289 -2.246,-5.254 -0.703,-1.961 -1.301,-3.992 -1.797,-6.094 -0.508,-2.109 -0.91,-4.207 -1.203,-6.308 -0.301,-2.098 -0.449,-4.012 -0.449,-5.743 0,-6.738 2.46,-10.105 7.394,-10.105 z m 25.906,62.898 -6.199,1.008 0.801,3.992 h 12.898 l -13.3,-62.5 c -0.137,-0.859 -0.282,-1.648 -0.45,-2.343 -0.175,-0.704 -0.254,-1.219 -0.254,-1.551 0,-0.801 0.43,-1.203 1.301,-1.203 h 5.899 V 147.5 c -3.469,-1.668 -6.329,-2.5 -8.594,-2.5 -1.27,0 -2.258,0.215 -2.949,0.645 -0.703,0.441 -1.192,1.007 -1.457,1.699 -0.262,0.703 -0.379,1.523 -0.352,2.453 0.039,0.937 0.117,1.933 0.254,3.008 -0.938,-1.008 -1.973,-1.973 -3.105,-2.903 -1.133,-0.937 -2.333,-1.765 -3.594,-2.5 -1.27,-0.742 -2.637,-1.316 -4.102,-1.757 -1.465,-0.43 -2.996,-0.645 -4.597,-0.645 -3.536,0 -6.418,1.184 -8.653,3.547 -2.238,2.371 -3.351,6.18 -3.351,11.453 0,2.402 0.207,4.961 0.605,7.695 0.391,2.735 0.996,5.422 1.797,8.059 0.801,2.625 1.816,5.125 3.047,7.5 1.23,2.363 2.656,4.375 4.25,6.043 1.738,2.07 3.633,3.566 5.703,4.504 2.07,0.926 4.336,1.394 6.797,1.394 2.801,0 5.273,-0.633 7.402,-1.894 2.137,-1.27 3.895,-2.703 5.301,-4.305 l 4.902,23.699"
       style="fill:#808080;fill-opacity:1;fill-rule:nonzero;stroke:none"
       transform="matrix(0.13333333,0,0,-0.13333333,0,146.66667)"
       clip-path="url(#clipPath152)" />
    <path
       id="path153"
       d="M 0.800781,24.8984 8.10156,25.5 20.7031,85.1016 l -6.9062,0.6992 0.8008,3.8984 H 35.4023 L 34.5977,85.8008 27.3008,85.1016 14.7031,25.5 21.6016,24.8984 20.9023,21 H 0 l 0.800781,3.8984"
       style="fill:#808080;fill-opacity:1;fill-rule:nonzero;stroke:none"
       transform="matrix(0.13333333,0,0,-0.13333333,0,146.66667)"
       clip-path="url(#clipPath154)" />
    <path
       id="path155"
       d="m 69.5039,30.3008 c -0.4648,-1.9414 -0.6992,-3.2422 -0.6992,-3.9024 0,-0.8672 0.5312,-1.2968 1.6015,-1.2968 H 76 V 22.5 c -1.3945,-0.7305 -2.8633,-1.3203 -4.3984,-1.75 -1.5313,-0.4414 -2.8672,-0.6484 -4,-0.6484 -3.5352,0 -5.2969,1.5 -5.2969,4.5 0,0.5273 0.0625,1.0703 0.1992,1.5976 0.1328,0.5313 0.2656,1.1992 0.4023,2 L 68.6016,55.5 c 0.332,1.6719 0.5,2.9297 0.5,3.8008 0,1.8594 -0.4336,3.2304 -1.3008,4.0976 -0.8672,0.8711 -2.2656,1.3008 -4.1992,1.3008 -2.1993,0 -4.5508,-0.668 -7.0508,-2 -2.5,-1.3281 -5.0117,-3.0273 -7.5469,-5.0976 L 41.2031,21 h -6.1992 l 9.1992,43.1016 -6.2969,1.2968 0.7969,3.8008 h 10.9024 l -0.4024,-7.8008 c 2.336,2.543 5,4.6407 8,6.3008 3.0039,1.6719 5.9336,2.5 8.7969,2.5 3.0039,0 5.3398,-0.8281 7.0039,-2.5 1.6641,-1.6601 2.5,-4.1289 2.5,-7.3984 0,-0.6016 -0.0508,-1.2696 -0.1523,-2 -0.0977,-0.7305 -0.2149,-1.5 -0.3477,-2.3008 l -5.5,-25.6992"
       style="fill:#808080;fill-opacity:1;fill-rule:nonzero;stroke:none"
       transform="matrix(0.13333333,0,0,-0.13333333,0,146.66667)"
       clip-path="url(#clipPath156)" />
    <path
       id="path157"
       d="m 118.605,87.3984 c -0.8,0.4024 -1.667,0.7422 -2.597,1 -0.942,0.2618 -2.102,0.4024 -3.504,0.4024 -2.332,0 -4.199,-0.6602 -5.602,-2 -1.398,-1.332 -2.394,-3.5391 -2.996,-6.6016 l -2.203,-11 h 9.402 l -1.003,-4.3984 h -9.399 l -8.8983,-46 C 91.3398,16.3984 90.7383,14.2695 90.0039,12.3984 89.2734,10.5391 88.3906,8.85156 87.3516,7.33984 86.3203,5.85156 85.0898,4.51172 83.6562,3.35156 82.2227,2.19141 80.5352,1.07031 78.6016,0 l -1.7969,2.89844 c 0.9961,0.67187 1.9492,1.4414 2.8476,2.30078 0.9024,0.87109 1.7383,1.94922 2.5,3.25 0.7657,1.30078 1.4649,2.88278 2.1016,4.74998 0.6328,1.8711 1.2149,4.1602 1.7539,6.9024 l 8.5,44.6992 h -5.7031 l 1,4.3984 h 5.8008 L 97.8008,80.5 c 0.4726,2.3984 1.1875,4.4102 2.1562,6.0508 0.965,1.6289 2.078,2.9492 3.348,3.9492 1.265,1 2.652,1.7266 4.152,2.1953 1.496,0.4688 3.047,0.7031 4.648,0.7031 1.602,0 3.016,-0.164 4.247,-0.4961 1.238,-0.332 2.418,-0.8711 3.554,-1.6015 l -1.301,-3.9024"
       style="fill:#808080;fill-opacity:1;fill-rule:nonzero;stroke:none"
       transform="matrix(0.13333333,0,0,-0.13333333,0,146.66667)"
       clip-path="url(#clipPath158)" />
    <path
       id="path159"
       d="m 141.098,33.5898 c 0.601,1.2696 1.152,2.7305 1.652,4.3594 0.504,1.6289 0.934,3.3516 1.305,5.1524 0.359,1.7968 0.648,3.6172 0.847,5.4492 0.2,1.8281 0.297,3.5078 0.297,5.039 0,4.4102 -0.867,7.5704 -2.597,9.5118 -1.739,1.9296 -4.239,2.8984 -7.5,2.8984 -2.801,0 -5.153,-0.6484 -7.051,-1.9492 -1.899,-1.3008 -3.617,-3.6914 -5.153,-7.1524 -0.597,-1.2578 -1.144,-2.7382 -1.648,-4.3984 -0.496,-1.6719 -0.945,-3.3984 -1.348,-5.1992 -0.398,-1.8008 -0.703,-3.6016 -0.902,-5.4024 -0.199,-1.7968 -0.301,-3.4687 -0.301,-5 0,-4.4687 0.887,-7.6992 2.653,-9.6992 1.761,-2 4.285,-3 7.55,-3 2.735,0 5.063,0.6797 6.996,2.0508 1.934,1.3711 3.668,3.8203 5.2,7.3398 z m -28.696,4.3086 c 0,1.8711 0.133,3.8204 0.403,5.8516 0.261,2.0312 0.648,4.0117 1.144,5.9492 0.5,1.9297 1.102,3.7813 1.805,5.5508 0.695,1.7617 1.449,3.3398 2.25,4.75 2.195,3.7305 4.777,6.3711 7.75,7.8984 2.961,1.5313 6.144,2.3008 9.551,2.3008 5,0 8.965,-1.4687 11.898,-4.3984 2.93,-2.9414 4.399,-7.332 4.399,-13.1992 0,-3.9414 -0.516,-7.9024 -1.551,-11.9024 -1.031,-4 -2.352,-7.3984 -3.953,-10.1992 -2.133,-3.8711 -4.684,-6.5781 -7.645,-8.1602 C 135.484,20.7812 132.266,20 128.801,20 c -5.067,0 -9.071,1.4883 -12,4.4492 -2.934,2.961 -4.399,7.4492 -4.399,13.4492"
       style="fill:#808080;fill-opacity:1;fill-rule:nonzero;stroke:none"
       transform="matrix(0.13333333,0,0,-0.13333333,0,146.66667)"
       clip-path="url(#clipPath160)" />
    <path
       id="path161"
       d="m 175.602,60.3984 c 2.664,3.1407 5.25,5.5508 7.75,7.25 2.5,1.7032 5.414,2.5508 8.75,2.5508 L 191.5,63.5898 c -3.398,0.1407 -6.367,-0.4492 -8.902,-1.789 -2.536,-1.332 -4.965,-3 -7.301,-5 L 167.598,21 h -6.196 l 9.297,43.1016 -6.301,1.2968 0.801,3.8008 h 10.899 l -0.496,-8.8008"
       style="fill:#808080;fill-opacity:1;fill-rule:nonzero;stroke:none"
       transform="matrix(0.13333333,0,0,-0.13333333,0,146.66667)"
       clip-path="url(#clipPath162)" />
    <path
       id="path163"
       d="m 252.898,55.5 c 0.204,0.8008 0.356,1.5586 0.454,2.3008 0.101,0.7383 0.148,1.3594 0.148,1.8984 0,1.6719 -0.387,2.9219 -1.145,3.75 -0.773,0.832 -2.023,1.25 -3.75,1.25 -2.339,0 -4.585,-0.6406 -6.753,-1.8984 -2.168,-1.2696 -4.516,-2.9024 -7.051,-4.9024 L 226.898,21 h -6.195 l 7.399,34.5 c 0.398,1.6016 0.597,3 0.597,4.1992 0,3.332 -1.633,5 -4.894,5 -2.403,0 -4.668,-0.6484 -6.801,-1.9492 -2.137,-1.3008 -4.469,-2.9492 -7.004,-4.9492 L 202.102,21 h -6.2 l 9.2,43.1016 -6.297,1.2968 0.797,3.8008 h 10.902 l -0.402,-7.5 c 2.336,2.4024 4.816,4.4102 7.453,6.0508 2.633,1.6406 5.414,2.4492 8.347,2.4492 5.536,0 8.496,-2.8711 8.899,-8.5976 2.332,2.457 4.832,4.5078 7.5,6.1484 2.664,1.6406 5.469,2.4492 8.402,2.4492 2.93,0 5.18,-0.8008 6.746,-2.3984 1.571,-1.6016 2.352,-4.0391 2.352,-7.3008 0,-0.8008 -0.051,-1.5508 -0.149,-2.25 -0.101,-0.6992 -0.218,-1.4492 -0.351,-2.25 l -5.602,-25.8008 c -0.199,-0.8594 -0.363,-1.6484 -0.496,-2.3476 -0.137,-0.7032 -0.199,-1.2227 -0.199,-1.5508 0,-0.8008 0.43,-1.1992 1.297,-1.1992 h 5.898 V 22.5 C 256.664,20.8281 253.766,20 251.5,20 c -3.332,0 -5,1.5 -5,4.5 0,0.3984 0.031,0.832 0.102,1.3008 0.062,0.4609 0.168,0.9687 0.296,1.5 l 6,28.1992"
       style="fill:#808080;fill-opacity:1;fill-rule:nonzero;stroke:none"
       transform="matrix(0.13333333,0,0,-0.13333333,0,146.66667)"
       clip-path="url(#clipPath164)" />
    <path
       id="path165"
       d="m 284.805,24.6992 c 1.265,0 2.55,0.25 3.847,0.75 1.305,0.5 2.555,1.1094 3.75,1.8516 1.203,0.7304 2.356,1.5312 3.453,2.3984 1.098,0.8711 2.079,1.6719 2.95,2.4024 l 5.8,27.6992 c -1.468,1.7304 -3.066,3.168 -4.8,4.3008 -1.735,1.1367 -3.832,1.6992 -6.297,1.6992 -4.403,0 -7.871,-2.5 -10.403,-7.5 -0.8,-1.5313 -1.539,-3.2696 -2.203,-5.1992 -0.664,-1.9414 -1.25,-3.9532 -1.746,-6.0508 -0.504,-2.1016 -0.902,-4.1914 -1.203,-6.25 -0.297,-2.0703 -0.449,-4 -0.449,-5.8008 0,-3.4688 0.633,-6.0508 1.898,-7.75 1.266,-1.6992 3.071,-2.5508 5.403,-2.5508 z m 13.3,3.1016 c -1,-0.9297 -2.035,-1.8711 -3.101,-2.8008 -1.066,-0.9414 -2.234,-1.7695 -3.5,-2.5 -1.266,-0.7305 -2.598,-1.3398 -4,-1.8008 C 286.105,20.2383 284.57,20 282.906,20 c -3.336,0 -6.152,1.1992 -8.453,3.5898 -2.301,2.4102 -3.445,6.2383 -3.445,11.5118 0,2.3984 0.199,4.9687 0.597,7.6992 0.399,2.7304 0.997,5.4101 1.797,8.0508 0.801,2.6289 1.801,5.1172 3.004,7.4492 1.196,2.3398 2.598,4.3281 4.199,6 1.735,2.0703 3.633,3.5586 5.7,4.5 2.062,0.9297 4.332,1.3984 6.8,1.3984 2.797,0 5.231,-0.6484 7.301,-1.9492 2.067,-1.3008 3.766,-2.75 5.098,-4.3516 l 2.801,5.3008 h 4.8 l -8.402,-39 c -0.199,-0.8594 -0.367,-1.6484 -0.5,-2.3476 -0.137,-0.7032 -0.199,-1.2227 -0.199,-1.5508 0,-0.8008 0.465,-1.1992 1.402,-1.1992 h 5.801 V 22.5 c -3.469,-1.6719 -6.34,-2.5 -8.605,-2.5 -1.332,0 -2.348,0.2383 -3.047,0.6992 -0.703,0.461 -1.188,1.082 -1.45,1.8516 -0.269,0.7578 -0.367,1.5976 -0.3,2.5 0.066,0.8984 0.164,1.8203 0.3,2.75"
       style="fill:#808080;fill-opacity:1;fill-rule:nonzero;stroke:none"
       transform="matrix(0.13333333,0,0,-0.13333333,0,146.66667)"
       clip-path="url(#clipPath166)" />
    <path
       id="path167"
       d="m 326.703,69.1992 h 5.699 l 2.801,12.6992 6.301,1.5 -3.004,-14.1992 h 10 l -0.898,-4.3984 h -9.899 l -7.398,-34.6992 c -0.133,-0.543 -0.239,-1.0196 -0.301,-1.4532 -0.066,-0.4375 -0.102,-0.8476 -0.102,-1.25 0,-1.8672 1.332,-2.7968 4,-2.7968 0.731,0 1.567,0.0781 2.5,0.2382 0.934,0.1719 1.899,0.4219 2.899,0.7618 L 339.605,22.5 c -1.203,-0.6602 -2.57,-1.25 -4.101,-1.75 -1.535,-0.5 -3.168,-0.75 -4.902,-0.75 -1.797,0 -3.434,0.4492 -4.899,1.3516 -1.469,0.8984 -2.203,2.4101 -2.203,4.5468 0,0.6016 0.035,1.1797 0.105,1.75 0.063,0.5625 0.2,1.25 0.399,2.0508 l 7.5,35.1016 h -5.801 l 1,4.3984"
       style="fill:#808080;fill-opacity:1;fill-rule:nonzero;stroke:none"
       transform="matrix(0.13333333,0,0,-0.13333333,0,146.66667)"
       clip-path="url(#clipPath168)" />
    <path
       id="path169"
       d="m 368.102,79.8984 c -1.403,0 -2.555,0.461 -3.454,1.4024 -0.898,0.9297 -1.347,2.0976 -1.347,3.5 0,1.3984 0.449,2.5586 1.347,3.5 0.899,0.9297 2.051,1.3984 3.454,1.3984 1.394,0 2.562,-0.4492 3.496,-1.3476 0.929,-0.9024 1.398,-2.0899 1.398,-3.5508 0,-1.4024 -0.445,-2.5703 -1.348,-3.5 -0.902,-0.9414 -2.082,-1.4024 -3.546,-1.4024 z m -6.305,-15.7968 -6.399,1.2968 0.903,3.8008 h 12.797 l -8.297,-39 c -0.199,-0.8594 -0.371,-1.6484 -0.504,-2.3476 -0.129,-0.7032 -0.199,-1.2227 -0.199,-1.5508 0,-0.8008 0.433,-1.1992 1.297,-1.1992 h 5.906 V 22.5 c -3.535,-1.6719 -6.438,-2.5 -8.703,-2.5 -3.266,0 -4.965,1.5 -5.102,4.5 0,0.3984 0.035,0.832 0.102,1.3008 0.062,0.4609 0.168,0.9687 0.297,1.5 l 7.902,36.8008"
       style="fill:#808080;fill-opacity:1;fill-rule:nonzero;stroke:none"
       transform="matrix(0.13333333,0,0,-0.13333333,0,146.66667)"
       clip-path="url(#clipPath170)" />
    <path
       id="path171"
       d="m 420.898,69.1992 -21.8,-21.3984 9.597,-20.6992 c 0.332,-0.7305 0.703,-1.25 1.102,-1.5508 0.398,-0.3008 1.101,-0.4492 2.101,-0.4492 h 4.297 V 22.5 c -1.332,-0.7305 -2.617,-1.3398 -3.847,-1.8008 C 411.113,20.2383 409.934,20 408.801,20 c -1.473,0 -2.571,0.4297 -3.305,1.3008 -0.734,0.8711 -1.398,1.9609 -2,3.3008 L 392.695,47.8008 414,69.1992 Z M 384.797,21 h -6.199 l 14.199,66.6016 -6.297,1.2968 0.797,3.7969 h 12.699 L 384.797,21"
       style="fill:#808080;fill-opacity:1;fill-rule:nonzero;stroke:none"
       transform="matrix(0.13333333,0,0,-0.13333333,0,146.66667)"
       clip-path="url(#clipPath172)" />
  </g>
</svg>
